{"glyphs":{"0":{"ha":1041,"x_min":132,"x_max":1027,"o":"m 462 -3 q 284 54 358 -3 q 171 220 210 111 q 132 483 132 328 q 151 705 132 600 q 207 900 171 810 q 294 1063 243 990 q 408 1186 344 1135 q 544 1265 471 1238 q 698 1293 617 1292 q 874 1236 800 1293 q 987 1070 947 1179 q 1027 806 1027 962 q 999 543 1027 666 q 920 319 972 419 q 799 147 869 219 q 644 35 729 74 q 462 -3 558 -3 m 458 81 q 652 136 564 81 q 806 292 741 192 q 908 526 872 392 q 944 818 944 660 q 880 1105 944 999 q 700 1212 815 1212 q 542 1176 616 1212 q 407 1073 467 1140 q 304 915 347 1006 q 237 710 260 823 q 214 471 214 598 q 243 263 214 351 q 327 128 272 176 q 458 81 382 81 z "},"1":{"ha":507,"x_min":136,"x_max":440,"o":"m 175 -3 q 146 7 156 -3 q 140 42 136 17 l 352 1249 q 371 1283 357 1273 q 404 1293 385 1293 q 432 1285 423 1293 q 437 1255 440 1276 l 223 36 q 206 5 219 13 q 175 -3 193 -3 z "},"2":{"ha":928,"x_min":42,"x_max":956,"o":"m 90 -3 q 50 10 58 -3 q 65 51 42 24 q 258 271 165 167 q 430 463 351 376 q 566 613 509 550 q 619 676 583 633 q 698 776 656 719 q 781 891 741 833 q 845 999 820 949 q 871 1078 871 1049 q 819 1182 871 1144 q 676 1220 767 1220 q 561 1204 621 1220 q 445 1160 501 1188 q 347 1099 390 1133 q 288 1065 308 1067 q 256 1076 267 1063 q 245 1105 243 1090 q 282 1151 247 1120 q 397 1224 331 1192 q 534 1274 462 1256 q 676 1293 606 1293 q 883 1240 810 1293 q 956 1089 956 1186 q 932 994 956 1049 q 869 879 908 940 q 787 760 831 819 q 703 654 743 702 q 637 577 663 606 q 541 472 598 534 q 421 339 485 410 q 294 198 357 268 q 180 67 231 127 l 723 67 q 758 61 751 67 q 766 39 766 56 q 758 8 766 19 q 723 -3 749 -3 l 90 -3 z "},"3":{"ha":956,"x_min":70,"x_max":887,"o":"m 305 -6 q 194 11 248 -6 q 105 59 141 28 q 70 105 70 88 q 77 134 70 123 q 99 142 83 142 q 151 115 114 142 q 220 81 178 93 q 306 68 262 68 q 495 105 406 68 q 654 204 584 142 q 764 346 724 267 q 803 510 803 425 q 784 608 803 561 q 721 684 765 655 q 602 714 677 714 q 480 704 553 714 q 321 643 406 694 q 284 632 300 630 q 263 647 269 635 q 258 674 258 660 q 282 704 258 689 q 410 787 340 740 q 548 885 479 834 q 673 986 616 936 q 765 1077 731 1035 q 799 1147 799 1119 q 766 1200 799 1180 q 681 1220 733 1220 q 516 1187 614 1220 q 309 1081 417 1154 q 276 1073 292 1070 q 253 1090 260 1076 q 245 1121 244 1103 q 282 1163 246 1139 q 484 1263 385 1233 q 665 1293 583 1293 q 782 1276 734 1293 q 855 1227 830 1259 q 879 1152 879 1196 q 856 1081 879 1118 q 785 998 833 1044 q 660 894 736 953 q 476 758 583 835 q 668 777 590 787 q 795 731 747 768 q 865 636 843 693 q 887 513 887 579 q 840 317 887 410 q 713 151 794 224 q 526 36 631 78 q 305 -6 422 -6 z "},"4":{"ha":930,"x_min":108,"x_max":902,"o":"m 547 -3 q 522 9 531 -2 q 519 49 514 21 l 568 317 l 158 317 q 128 325 141 317 q 111 350 115 333 q 122 390 108 366 l 628 1253 q 660 1286 644 1279 q 696 1293 676 1293 q 717 1289 708 1293 q 729 1276 726 1285 q 724 1255 732 1268 l 219 390 l 581 390 l 619 601 q 636 633 623 624 q 669 638 650 641 q 696 625 687 636 q 701 592 706 615 l 663 390 l 859 390 q 892 381 881 390 q 902 356 902 372 q 892 328 902 338 q 859 317 881 317 l 651 317 l 600 44 q 581 5 595 15 q 547 -3 566 -4 z "},"5":{"ha":943,"x_min":125,"x_max":992,"o":"m 355 0 q 235 17 290 0 q 149 68 181 33 q 125 118 125 94 q 134 138 125 132 q 159 143 143 143 q 180 139 172 143 q 199 125 188 135 q 268 86 227 99 q 355 72 308 72 q 520 103 444 72 q 653 189 597 134 q 742 314 710 243 q 774 466 774 385 q 737 592 774 537 q 638 680 701 648 q 494 712 574 712 q 401 705 449 712 q 312 686 353 698 q 274 674 286 677 q 256 671 262 671 q 231 678 239 671 q 226 706 223 686 l 321 1238 q 341 1279 326 1269 q 381 1290 355 1290 l 949 1290 q 984 1281 976 1290 q 992 1254 992 1272 q 984 1228 992 1235 q 949 1220 977 1220 l 399 1220 l 315 752 q 396 774 363 767 q 461 783 429 781 q 536 785 494 785 q 701 745 629 785 q 815 634 774 706 q 856 467 856 563 q 819 283 856 368 q 715 134 782 198 q 556 35 647 71 q 355 0 464 0 z "},"6":{"ha":960,"x_min":153,"x_max":896,"o":"m 403 -8 q 281 25 329 -8 q 204 110 232 58 q 164 221 176 163 q 153 330 153 280 q 201 619 153 482 q 335 880 249 756 q 547 1119 428 1013 q 792 1294 667 1226 q 802 1298 797 1297 q 813 1299 808 1299 q 834 1294 825 1299 q 849 1279 844 1288 q 855 1258 855 1269 q 849 1236 855 1246 q 832 1221 842 1226 q 602 1057 713 1156 q 403 832 491 958 q 359 763 380 798 q 320 690 338 727 q 286 610 302 652 q 408 714 346 675 q 529 771 469 753 q 643 791 589 789 q 794 758 738 794 q 873 656 851 721 q 890 509 896 592 q 852 337 883 426 q 783 207 828 269 q 677 97 738 145 q 547 20 617 48 q 403 -8 476 -8 m 403 56 q 520 82 463 56 q 627 152 577 108 q 715 251 677 196 q 774 365 753 306 q 812 554 810 471 q 774 683 814 637 q 646 726 734 730 q 541 705 599 725 q 425 647 483 685 q 318 556 367 609 q 243 434 270 502 q 236 330 236 376 q 244 238 236 285 q 271 148 252 190 q 322 81 290 107 q 403 56 354 56 z "},"7":{"ha":753,"x_min":93,"x_max":756,"o":"m 369 0 q 338 9 350 0 q 332 40 326 18 l 656 1216 l 140 1216 q 104 1227 115 1216 q 93 1256 93 1238 q 104 1280 93 1270 q 140 1290 115 1290 l 715 1290 q 748 1280 740 1290 q 751 1255 756 1271 l 419 49 q 399 11 413 22 q 369 0 385 0 z "},"8":{"ha":942,"x_min":174,"x_max":886,"o":"m 472 0 q 355 21 409 0 q 259 82 300 42 q 196 175 219 121 q 174 297 174 230 q 199 446 174 381 q 284 575 224 512 q 449 716 344 639 q 388 776 423 742 q 320 851 353 810 q 266 938 288 892 q 244 1031 244 983 q 272 1150 244 1101 q 349 1230 301 1199 q 456 1275 397 1261 q 578 1290 516 1290 q 691 1280 635 1290 q 790 1247 746 1271 q 860 1178 834 1222 q 886 1067 886 1135 q 839 945 886 1005 q 718 826 792 885 q 560 708 644 767 q 685 576 631 641 q 772 451 740 512 q 804 334 804 390 q 780 196 804 258 q 712 90 756 134 q 607 23 668 47 q 472 0 547 0 m 478 71 q 605 99 550 71 q 690 186 660 128 q 721 334 721 245 q 699 420 721 376 q 643 509 677 465 q 571 592 609 553 q 501 664 533 632 q 363 549 417 602 q 283 440 309 497 q 258 307 258 383 q 287 175 258 227 q 366 97 316 122 q 478 71 416 71 m 507 758 q 650 864 583 813 q 760 966 717 915 q 803 1069 803 1017 q 769 1170 803 1139 q 682 1211 735 1202 q 572 1219 629 1219 q 461 1203 518 1219 q 366 1146 405 1186 q 328 1038 328 1106 q 348 952 328 994 q 397 873 367 910 q 457 807 427 836 q 507 758 487 778 z "},"9":{"ha":1027,"x_min":194,"x_max":974,"o":"m 705 0 q 680 7 688 0 q 674 33 671 14 l 836 992 q 575 623 703 744 q 319 502 447 502 q 226 544 257 502 q 194 665 194 585 q 227 928 194 813 q 321 1125 260 1044 q 470 1248 383 1206 q 667 1290 557 1290 l 951 1290 q 969 1282 964 1290 q 971 1258 974 1274 l 756 39 q 739 9 752 17 q 705 0 725 0 m 344 576 q 465 616 403 576 q 593 732 527 655 q 727 924 658 810 q 869 1189 797 1039 l 876 1217 l 667 1217 q 460 1150 547 1217 q 326 961 373 1083 q 278 677 278 840 q 293 608 278 640 q 344 576 307 576 z "},"A":{"ha":874,"x_min":-36,"x_max":797,"o":"m 0 -3 q -23 2 -13 -3 q -34 19 -33 8 q -27 47 -36 31 l 599 1249 q 617 1282 610 1272 q 651 1293 624 1293 q 682 1285 673 1293 q 691 1264 690 1278 l 794 39 q 789 8 797 19 q 758 -3 781 -3 q 724 9 731 -3 q 715 38 717 22 l 666 658 l 374 658 l 60 42 q 36 6 46 15 q 0 -3 26 -3 m 413 733 l 660 733 l 639 999 l 639 1199 l 556 1013 l 413 733 z "},"Á":{"ha":874,"x_min":-36,"x_max":846,"o":"m 0 -3 q -23 2 -13 -3 q -34 19 -33 8 q -27 47 -36 31 l 599 1249 q 617 1282 610 1272 q 651 1293 624 1293 q 682 1285 673 1293 q 691 1264 690 1278 l 794 39 q 789 8 797 19 q 758 -3 781 -3 q 724 9 731 -3 q 715 38 717 22 l 666 658 l 374 658 l 60 42 q 36 6 46 15 q 0 -3 26 -3 m 413 733 l 660 733 l 639 999 l 639 1199 l 556 1013 l 413 733 m 660 1413 q 644 1431 649 1420 q 651 1463 638 1441 l 758 1649 q 796 1680 775 1678 q 830 1670 817 1681 q 845 1638 846 1656 q 833 1603 844 1620 l 704 1426 q 681 1408 692 1408 q 660 1413 670 1408 z "},"Ă":{"ha":874,"x_min":-36,"x_max":867,"o":"m 0 -3 q -23 2 -13 -3 q -34 19 -33 8 q -27 47 -36 31 l 599 1249 q 617 1282 610 1272 q 651 1293 624 1293 q 682 1285 673 1293 q 691 1264 690 1278 l 794 39 q 789 8 797 19 q 758 -3 781 -3 q 724 9 731 -3 q 715 38 717 22 l 666 658 l 374 658 l 60 42 q 36 6 46 15 q 0 -3 26 -3 m 413 733 l 660 733 l 639 999 l 639 1199 l 556 1013 l 413 733 m 672 1435 q 593 1454 623 1435 q 550 1504 564 1474 q 533 1568 535 1535 q 533 1631 530 1602 q 548 1668 537 1658 q 574 1677 559 1677 q 605 1670 594 1677 q 613 1644 615 1664 q 616 1544 605 1573 q 647 1510 627 1515 q 682 1504 666 1504 q 719 1514 699 1504 q 757 1552 740 1523 q 781 1642 774 1582 q 798 1671 783 1664 q 828 1678 812 1678 q 860 1662 853 1678 q 864 1626 867 1646 q 850 1574 861 1606 q 817 1510 839 1542 q 759 1457 794 1478 q 672 1435 724 1435 z "},"Ǎ":{"ha":874,"x_min":-36,"x_max":854,"o":"m 0 -3 q -23 2 -13 -3 q -34 19 -33 8 q -27 47 -36 31 l 599 1249 q 617 1282 610 1272 q 651 1293 624 1293 q 682 1285 673 1293 q 691 1264 690 1278 l 794 39 q 789 8 797 19 q 758 -3 781 -3 q 724 9 731 -3 q 715 38 717 22 l 666 658 l 374 658 l 60 42 q 36 6 46 15 q 0 -3 26 -3 m 413 733 l 660 733 l 639 999 l 639 1199 l 556 1013 l 413 733 m 672 1436 q 655 1443 665 1436 q 640 1460 645 1449 l 560 1643 q 555 1688 547 1672 q 576 1708 562 1704 q 609 1707 594 1714 q 628 1681 624 1699 l 683 1526 l 774 1680 q 809 1708 790 1707 q 840 1699 828 1709 q 854 1670 854 1686 q 843 1639 853 1654 l 717 1458 q 693 1438 705 1440 q 672 1436 682 1436 z "},"Â":{"ha":874,"x_min":-36,"x_max":835,"o":"m 0 -3 q -23 2 -13 -3 q -34 19 -33 8 q -27 47 -36 31 l 599 1249 q 617 1282 610 1272 q 651 1293 624 1293 q 682 1285 673 1293 q 691 1264 690 1278 l 794 39 q 789 8 797 19 q 758 -3 781 -3 q 724 9 731 -3 q 715 38 717 22 l 666 658 l 374 658 l 60 42 q 36 6 46 15 q 0 -3 26 -3 m 413 733 l 660 733 l 639 999 l 639 1199 l 556 1013 l 413 733 m 805 1393 q 770 1394 785 1386 q 749 1422 754 1403 l 700 1577 l 606 1424 q 570 1395 590 1397 q 540 1404 551 1394 q 526 1434 525 1417 q 537 1465 526 1450 l 666 1646 q 689 1665 678 1663 q 711 1667 701 1667 q 728 1661 717 1667 q 743 1643 738 1655 l 822 1463 q 828 1415 835 1433 q 805 1393 821 1398 z "},"Ä":{"ha":874,"x_min":-36,"x_max":860,"o":"m 0 -3 q -23 2 -13 -3 q -34 19 -33 8 q -27 47 -36 31 l 599 1249 q 617 1282 610 1272 q 651 1293 624 1293 q 682 1285 673 1293 q 691 1264 690 1278 l 794 39 q 789 8 797 19 q 758 -3 781 -3 q 724 9 731 -3 q 715 38 717 22 l 666 658 l 374 658 l 60 42 q 36 6 46 15 q 0 -3 26 -3 m 413 733 l 660 733 l 639 999 l 639 1199 l 556 1013 l 413 733 m 806 1458 q 769 1474 783 1458 q 754 1515 754 1491 q 768 1555 754 1538 q 806 1572 782 1572 q 844 1556 828 1572 q 860 1515 860 1541 q 845 1475 860 1492 q 806 1458 829 1458 m 542 1458 q 507 1475 521 1458 q 492 1515 492 1492 q 506 1554 492 1538 q 542 1571 520 1571 q 581 1556 565 1571 q 597 1515 597 1540 q 582 1475 597 1492 q 542 1458 567 1458 z "},"Ǟ":{"ha":874,"x_min":-36,"x_max":906,"o":"m 0 -3 q -23 2 -13 -3 q -34 19 -33 8 q -27 47 -36 31 l 599 1249 q 617 1282 610 1272 q 651 1293 624 1293 q 682 1285 673 1293 q 691 1264 690 1278 l 794 39 q 789 8 797 19 q 758 -3 781 -3 q 724 9 731 -3 q 715 38 717 22 l 666 658 l 374 658 l 60 42 q 36 6 46 15 q 0 -3 26 -3 m 413 733 l 660 733 l 639 999 l 639 1199 l 556 1013 l 413 733 m 806 1458 q 769 1474 783 1458 q 754 1515 754 1491 q 768 1555 754 1538 q 806 1572 782 1572 q 844 1556 828 1572 q 860 1515 860 1541 q 845 1475 860 1492 q 806 1458 829 1458 m 542 1458 q 507 1475 521 1458 q 492 1515 492 1492 q 506 1554 492 1538 q 542 1571 520 1571 q 581 1556 565 1571 q 597 1515 597 1540 q 582 1475 597 1492 q 542 1458 567 1458 m 564 1701 q 528 1712 538 1701 q 518 1738 518 1723 q 528 1764 518 1753 q 564 1774 538 1774 l 860 1774 q 896 1764 885 1774 q 906 1738 906 1753 q 895 1713 906 1724 q 860 1701 885 1701 l 564 1701 z "},"À":{"ha":874,"x_min":-36,"x_max":797,"o":"m 0 -3 q -23 2 -13 -3 q -34 19 -33 8 q -27 47 -36 31 l 599 1249 q 617 1282 610 1272 q 651 1293 624 1293 q 682 1285 673 1293 q 691 1264 690 1278 l 794 39 q 789 8 797 19 q 758 -3 781 -3 q 724 9 731 -3 q 715 38 717 22 l 666 658 l 374 658 l 60 42 q 36 6 46 15 q 0 -3 26 -3 m 413 733 l 660 733 l 639 999 l 639 1199 l 556 1013 l 413 733 m 705 1413 q 682 1407 694 1406 q 658 1428 670 1407 l 562 1607 q 555 1657 546 1638 q 579 1681 563 1676 q 615 1678 600 1687 q 638 1650 631 1669 l 717 1456 q 720 1427 724 1437 q 705 1413 715 1418 z "},"Ā":{"ha":874,"x_min":-36,"x_max":878,"o":"m 0 -3 q -23 2 -13 -3 q -34 19 -33 8 q -27 47 -36 31 l 599 1249 q 617 1282 610 1272 q 651 1293 624 1293 q 682 1285 673 1293 q 691 1264 690 1278 l 794 39 q 789 8 797 19 q 758 -3 781 -3 q 724 9 731 -3 q 715 38 717 22 l 666 658 l 374 658 l 60 42 q 36 6 46 15 q 0 -3 26 -3 m 413 733 l 660 733 l 639 999 l 639 1199 l 556 1013 l 413 733 m 535 1447 q 500 1458 510 1447 q 490 1484 490 1469 q 500 1510 490 1499 q 535 1520 510 1520 l 832 1520 q 867 1510 857 1520 q 878 1484 878 1499 q 867 1458 878 1469 q 832 1447 856 1447 l 535 1447 z "},"Ą":{"ha":874,"x_min":-36,"x_max":815,"o":"m 0 -3 q -23 2 -13 -3 q -34 19 -33 8 q -27 47 -36 31 l 599 1249 q 617 1282 610 1272 q 651 1293 624 1293 q 682 1285 673 1293 q 691 1264 690 1278 l 794 39 q 789 8 797 19 q 758 -3 781 -3 q 724 9 731 -3 q 715 38 717 22 l 666 658 l 374 658 l 60 42 q 36 6 46 15 q 0 -3 26 -3 m 413 733 l 660 733 l 639 999 l 639 1199 l 556 1013 l 413 733 m 717 -443 q 605 -416 647 -443 q 545 -345 563 -389 q 526 -253 526 -301 q 553 -150 526 -196 q 610 -69 580 -103 q 660 -14 633 -42 q 715 38 688 15 q 736 51 731 49 q 751 52 742 52 q 776 43 765 52 q 789 21 787 33 q 781 -1 792 9 q 715 -64 742 -33 q 654 -135 687 -96 q 623 -185 639 -153 q 606 -251 606 -217 q 632 -335 606 -301 q 713 -369 658 -369 l 760 -369 q 800 -374 785 -369 q 815 -404 815 -380 q 799 -436 815 -430 q 760 -443 783 -443 l 717 -443 z "},"Å":{"ha":874,"x_min":-36,"x_max":938,"o":"m 0 -3 q -23 2 -13 -3 q -34 19 -33 8 q -27 47 -36 31 l 599 1249 q 617 1282 610 1272 q 651 1293 624 1293 q 682 1285 673 1293 q 691 1264 690 1278 l 794 39 q 789 8 797 19 q 758 -3 781 -3 q 724 9 731 -3 q 715 38 717 22 l 666 658 l 374 658 l 60 42 q 36 6 46 15 q 0 -3 26 -3 m 413 733 l 660 733 l 639 999 l 639 1199 l 556 1013 l 413 733 m 662 1437 q 594 1451 624 1437 q 545 1492 563 1465 q 527 1559 527 1519 q 545 1656 527 1608 q 597 1742 563 1703 q 679 1804 631 1781 q 786 1827 727 1827 q 897 1797 857 1827 q 938 1706 938 1766 q 918 1618 938 1665 q 862 1530 899 1572 q 775 1463 826 1489 q 662 1437 724 1437 m 683 1505 q 771 1536 731 1505 q 836 1612 811 1568 q 861 1691 861 1656 q 839 1741 861 1721 q 786 1762 817 1762 q 685 1732 726 1762 q 624 1661 644 1703 q 603 1585 603 1620 q 609 1537 603 1554 q 633 1512 615 1519 q 683 1505 650 1505 z "},"Ã":{"ha":874,"x_min":-36,"x_max":933,"o":"m 0 -3 q -23 2 -13 -3 q -34 19 -33 8 q -27 47 -36 31 l 599 1249 q 617 1282 610 1272 q 651 1293 624 1293 q 682 1285 673 1293 q 691 1264 690 1278 l 794 39 q 789 8 797 19 q 758 -3 781 -3 q 724 9 731 -3 q 715 38 717 22 l 666 658 l 374 658 l 60 42 q 36 6 46 15 q 0 -3 26 -3 m 413 733 l 660 733 l 639 999 l 639 1199 l 556 1013 l 413 733 m 762 1427 q 723 1439 744 1427 q 680 1467 701 1451 q 636 1494 658 1483 q 597 1506 615 1506 q 552 1494 570 1506 q 511 1465 533 1482 q 492 1459 501 1458 q 474 1468 482 1460 q 460 1486 465 1475 q 456 1508 456 1497 q 463 1529 456 1519 q 496 1549 470 1538 q 547 1568 520 1561 q 606 1576 574 1576 q 649 1564 626 1576 q 694 1536 672 1551 q 736 1508 716 1520 q 774 1496 757 1496 q 828 1510 808 1496 q 874 1542 847 1524 q 902 1545 888 1551 q 924 1527 915 1540 q 933 1506 933 1515 q 922 1485 933 1493 q 887 1465 912 1478 q 832 1440 861 1452 q 762 1427 803 1427 z "},"Æ":{"ha":1190,"x_min":-35,"x_max":1295,"o":"m -1 0 q -23 6 -15 0 q -34 22 -32 11 q -27 49 -35 33 l 592 1247 q 612 1280 603 1269 q 642 1290 621 1290 l 1253 1290 q 1287 1280 1279 1290 q 1295 1255 1295 1270 q 1287 1229 1295 1239 q 1253 1219 1279 1219 l 684 1219 l 724 732 l 1195 732 q 1229 722 1221 732 q 1237 694 1237 711 q 1229 669 1237 679 q 1195 659 1221 659 l 729 659 l 776 72 l 1167 72 q 1202 64 1194 72 q 1210 39 1210 55 q 1202 11 1210 22 q 1167 0 1194 0 l 742 0 q 709 12 716 0 q 700 40 701 24 l 657 659 l 378 659 l 63 45 q 37 9 49 19 q -1 0 25 0 m 414 732 l 651 732 l 630 1003 l 624 1182 l 554 1015 l 414 732 z "},"B":{"ha":1005,"x_min":131,"x_max":1019,"o":"m 163 0 q 139 15 147 0 q 135 51 131 31 l 345 1244 q 361 1281 350 1272 q 395 1290 372 1290 q 869 1209 719 1290 q 997 955 1019 1128 q 971 859 990 902 q 909 784 951 817 q 793 728 867 751 q 603 694 719 706 q 863 557 782 651 q 922 319 944 463 q 869 177 910 238 q 743 77 828 117 q 517 19 658 38 q 163 0 376 0 m 222 74 q 539 95 405 74 q 750 172 672 117 q 842 328 827 226 q 806 494 855 420 q 639 615 757 569 q 327 667 522 661 l 222 74 m 338 726 q 574 749 476 735 q 736 784 672 764 q 838 831 801 805 q 893 888 876 857 q 914 956 910 919 q 892 1077 922 1027 q 797 1157 861 1126 q 638 1202 732 1188 q 424 1218 543 1217 l 338 726 z "},"C":{"ha":998,"x_min":119,"x_max":1087,"o":"m 472 -3 q 332 36 401 -3 q 211 152 263 75 q 140 342 160 229 q 146 603 119 455 q 186 784 161 689 q 252 969 211 879 q 357 1133 293 1060 q 513 1250 421 1206 q 731 1293 604 1293 q 910 1251 824 1293 q 1069 1132 997 1210 q 1085 1104 1083 1120 q 1076 1077 1087 1088 q 1052 1064 1067 1065 q 1019 1080 1037 1063 q 876 1186 950 1152 q 729 1221 801 1221 q 541 1180 620 1221 q 407 1071 462 1139 q 317 922 353 1003 q 260 757 281 840 q 227 604 240 674 q 219 375 205 474 q 271 208 233 276 q 363 106 310 140 q 474 71 417 71 q 659 124 576 71 q 825 258 742 178 q 870 306 858 286 q 903 325 883 325 q 929 318 920 325 q 940 297 938 312 q 934 269 942 288 q 891 212 926 251 q 702 57 804 117 q 472 -3 601 -3 z "},"Ć":{"ha":998,"x_min":119,"x_max":1087,"o":"m 472 -3 q 332 36 401 -3 q 211 152 263 75 q 140 342 160 229 q 146 603 119 455 q 186 784 161 689 q 252 969 211 879 q 357 1133 293 1060 q 513 1250 421 1206 q 731 1293 604 1293 q 910 1251 824 1293 q 1069 1132 997 1210 q 1085 1104 1083 1120 q 1076 1077 1087 1088 q 1052 1064 1067 1065 q 1019 1080 1037 1063 q 876 1186 950 1152 q 729 1221 801 1221 q 541 1180 620 1221 q 407 1071 462 1139 q 317 922 353 1003 q 260 757 281 840 q 227 604 240 674 q 219 375 205 474 q 271 208 233 276 q 363 106 310 140 q 474 71 417 71 q 659 124 576 71 q 825 258 742 178 q 870 306 858 286 q 903 325 883 325 q 929 318 920 325 q 940 297 938 312 q 934 269 942 288 q 891 212 926 251 q 702 57 804 117 q 472 -3 601 -3 m 741 1413 q 724 1431 730 1420 q 731 1463 719 1441 l 838 1649 q 877 1680 856 1678 q 910 1670 898 1681 q 926 1638 926 1656 q 913 1603 925 1620 l 785 1426 q 761 1408 772 1408 q 741 1413 751 1408 z "},"Č":{"ha":998,"x_min":119,"x_max":1087,"o":"m 472 -3 q 332 36 401 -3 q 211 152 263 75 q 140 342 160 229 q 146 603 119 455 q 186 784 161 689 q 252 969 211 879 q 357 1133 293 1060 q 513 1250 421 1206 q 731 1293 604 1293 q 910 1251 824 1293 q 1069 1132 997 1210 q 1085 1104 1083 1120 q 1076 1077 1087 1088 q 1052 1064 1067 1065 q 1019 1080 1037 1063 q 876 1186 950 1152 q 729 1221 801 1221 q 541 1180 620 1221 q 407 1071 462 1139 q 317 922 353 1003 q 260 757 281 840 q 227 604 240 674 q 219 375 205 474 q 271 208 233 276 q 363 106 310 140 q 474 71 417 71 q 659 124 576 71 q 825 258 742 178 q 870 306 858 286 q 903 325 883 325 q 929 318 920 325 q 940 297 938 312 q 934 269 942 288 q 891 212 926 251 q 702 57 804 117 q 472 -3 601 -3 m 752 1436 q 736 1443 746 1436 q 720 1460 726 1449 l 641 1643 q 635 1688 628 1672 q 656 1708 642 1704 q 690 1707 675 1714 q 709 1681 704 1699 l 763 1526 l 855 1680 q 890 1708 871 1707 q 921 1699 909 1709 q 934 1670 935 1686 q 924 1639 934 1654 l 797 1458 q 774 1438 785 1440 q 752 1436 763 1436 z "},"Ç":{"ha":998,"x_min":119,"x_max":1087,"o":"m 472 -3 q 332 36 401 -3 q 211 152 263 75 q 140 342 160 229 q 146 603 119 455 q 186 784 161 689 q 252 969 211 879 q 357 1133 293 1060 q 513 1250 421 1206 q 731 1293 604 1293 q 910 1251 824 1293 q 1069 1132 997 1210 q 1085 1104 1083 1120 q 1076 1077 1087 1088 q 1052 1064 1067 1065 q 1019 1080 1037 1063 q 876 1186 950 1152 q 729 1221 801 1221 q 541 1180 620 1221 q 407 1071 462 1139 q 317 922 353 1003 q 260 757 281 840 q 227 604 240 674 q 219 375 205 474 q 271 208 233 276 q 363 106 310 140 q 474 71 417 71 q 659 124 576 71 q 825 258 742 178 q 870 306 858 286 q 903 325 883 325 q 929 318 920 325 q 940 297 938 312 q 934 269 942 288 q 891 212 926 251 q 702 57 804 117 q 472 -3 601 -3 m 517 -481 q 449 -475 480 -481 q 400 -457 419 -469 q 382 -428 382 -445 q 397 -397 382 -404 q 436 -393 413 -389 q 475 -402 456 -397 q 517 -407 494 -407 q 608 -369 581 -407 q 635 -280 635 -332 q 620 -207 635 -241 q 575 -133 606 -172 q 515 -64 553 -105 q 449 9 478 -23 q 445 45 435 25 q 474 66 454 66 q 492 66 484 66 q 511 51 500 67 q 543 12 522 37 q 586 -39 564 -13 q 624 -82 609 -64 q 666 -136 644 -105 q 701 -203 687 -167 q 715 -281 715 -240 q 693 -377 715 -331 q 628 -452 672 -423 q 517 -481 584 -481 z "},"Ċ":{"ha":998,"x_min":119,"x_max":1087,"o":"m 472 -3 q 332 36 401 -3 q 211 152 263 75 q 140 342 160 229 q 146 603 119 455 q 186 784 161 689 q 252 969 211 879 q 357 1133 293 1060 q 513 1250 421 1206 q 731 1293 604 1293 q 910 1251 824 1293 q 1069 1132 997 1210 q 1085 1104 1083 1120 q 1076 1077 1087 1088 q 1052 1064 1067 1065 q 1019 1080 1037 1063 q 876 1186 950 1152 q 729 1221 801 1221 q 541 1180 620 1221 q 407 1071 462 1139 q 317 922 353 1003 q 260 757 281 840 q 227 604 240 674 q 219 375 205 474 q 271 208 233 276 q 363 106 310 140 q 474 71 417 71 q 659 124 576 71 q 825 258 742 178 q 870 306 858 286 q 903 325 883 325 q 929 318 920 325 q 940 297 938 312 q 934 269 942 288 q 891 212 926 251 q 702 57 804 117 q 472 -3 601 -3 m 772 1464 q 730 1483 746 1464 q 713 1529 713 1501 q 729 1574 713 1554 q 772 1593 745 1593 q 815 1575 797 1593 q 833 1529 833 1558 q 816 1483 833 1502 q 772 1464 798 1464 z "},"D":{"ha":1069,"x_min":131,"x_max":1090,"o":"m 171 0 q 140 11 148 0 q 134 43 131 23 l 347 1243 q 360 1278 351 1267 q 397 1290 369 1290 l 469 1290 q 726 1251 608 1290 q 928 1136 844 1213 q 1051 948 1012 1060 q 1069 685 1090 835 q 979 390 1047 518 q 808 176 911 263 q 575 44 704 89 q 301 0 445 0 l 171 0 m 224 74 l 301 74 q 540 113 425 74 q 749 230 655 151 q 906 424 844 308 q 988 697 969 541 q 968 918 1001 822 q 864 1082 935 1015 q 694 1183 794 1149 q 476 1218 594 1218 l 425 1218 l 224 74 z "},"Ď":{"ha":1069,"x_min":131,"x_max":1090,"o":"m 171 0 q 140 11 148 0 q 134 43 131 23 l 347 1243 q 360 1278 351 1267 q 397 1290 369 1290 l 469 1290 q 726 1251 608 1290 q 928 1136 844 1213 q 1051 948 1012 1060 q 1069 685 1090 835 q 979 390 1047 518 q 808 176 911 263 q 575 44 704 89 q 301 0 445 0 l 171 0 m 224 74 l 301 74 q 540 113 425 74 q 749 230 655 151 q 906 424 844 308 q 988 697 969 541 q 968 918 1001 822 q 864 1082 935 1015 q 694 1183 794 1149 q 476 1218 594 1218 l 425 1218 l 224 74 m 756 1433 q 739 1439 749 1433 q 724 1457 729 1446 l 644 1640 q 639 1684 631 1668 q 660 1705 646 1701 q 693 1703 678 1710 q 713 1678 708 1696 l 767 1523 l 858 1676 q 893 1705 874 1703 q 924 1696 913 1706 q 938 1667 938 1683 q 927 1635 938 1651 l 801 1454 q 777 1435 789 1437 q 756 1433 766 1433 z "},"Đ":{"ha":1000,"x_min":62,"x_max":1021,"o":"m 102 0 q 71 11 79 0 q 65 43 63 23 l 278 1243 q 291 1278 282 1267 q 328 1290 300 1290 l 401 1290 q 657 1251 540 1290 q 859 1136 775 1213 q 982 948 943 1060 q 1001 685 1021 835 q 910 390 978 518 q 739 176 842 263 q 506 44 635 89 q 232 0 376 0 l 102 0 m 110 661 q 73 670 85 661 q 62 699 62 679 q 75 725 62 716 q 114 733 89 733 l 408 733 q 443 725 432 733 q 455 699 455 717 q 442 670 455 680 q 404 661 430 661 l 110 661 m 155 74 l 232 74 q 471 113 356 74 q 681 230 586 151 q 838 424 775 308 q 919 697 900 541 q 899 918 933 822 q 795 1082 866 1015 q 625 1183 725 1149 q 408 1218 526 1218 l 356 1218 l 155 74 z "},"Ð":{"ha":999,"x_min":62,"x_max":1021,"o":"m 102 0 q 71 11 79 0 q 65 43 63 23 l 278 1243 q 291 1278 282 1267 q 328 1290 300 1290 l 401 1290 q 657 1251 540 1290 q 859 1136 775 1213 q 982 948 943 1060 q 1001 685 1021 835 q 910 390 978 518 q 739 176 842 263 q 506 44 635 89 q 232 0 376 0 l 102 0 m 110 661 q 73 670 85 661 q 62 699 62 679 q 75 725 62 716 q 114 733 89 733 l 408 733 q 443 725 432 733 q 455 699 455 717 q 442 670 455 680 q 404 661 430 661 l 110 661 m 155 74 l 232 74 q 471 113 356 74 q 681 230 586 151 q 838 424 775 308 q 919 697 900 541 q 899 918 933 822 q 795 1082 866 1015 q 625 1183 725 1149 q 408 1218 526 1218 l 356 1218 l 155 74 z "},"E":{"ha":986,"x_min":131,"x_max":1091,"o":"m 172 0 q 140 11 148 0 q 135 43 131 22 l 347 1244 q 360 1278 351 1267 q 399 1290 370 1290 l 1048 1290 q 1083 1278 1074 1290 q 1091 1251 1091 1267 q 1083 1226 1091 1234 q 1048 1218 1075 1218 l 426 1218 l 340 733 l 871 733 q 906 722 897 733 q 914 694 914 712 q 906 668 914 678 q 871 658 897 658 l 328 658 l 225 74 l 849 74 q 885 66 876 74 q 893 44 893 59 q 884 14 893 27 q 849 0 875 0 l 172 0 z "},"É":{"ha":986,"x_min":131,"x_max":1091,"o":"m 172 0 q 140 11 148 0 q 135 43 131 22 l 347 1244 q 360 1278 351 1267 q 399 1290 370 1290 l 1048 1290 q 1083 1278 1074 1290 q 1091 1251 1091 1267 q 1083 1226 1091 1234 q 1048 1218 1075 1218 l 426 1218 l 340 733 l 871 733 q 906 722 897 733 q 914 694 914 712 q 906 668 914 678 q 871 658 897 658 l 328 658 l 225 74 l 849 74 q 885 66 876 74 q 893 44 893 59 q 884 14 893 27 q 849 0 875 0 l 172 0 m 723 1413 q 706 1431 712 1420 q 713 1463 701 1441 l 820 1649 q 859 1680 838 1678 q 892 1670 880 1681 q 908 1638 908 1656 q 895 1603 907 1620 l 767 1426 q 743 1408 754 1408 q 723 1413 733 1408 z "},"Ě":{"ha":986,"x_min":131,"x_max":1091,"o":"m 172 0 q 140 11 148 0 q 135 43 131 22 l 347 1244 q 360 1278 351 1267 q 399 1290 370 1290 l 1048 1290 q 1083 1278 1074 1290 q 1091 1251 1091 1267 q 1083 1226 1091 1234 q 1048 1218 1075 1218 l 426 1218 l 340 733 l 871 733 q 906 722 897 733 q 914 694 914 712 q 906 668 914 678 q 871 658 897 658 l 328 658 l 225 74 l 849 74 q 885 66 876 74 q 893 44 893 59 q 884 14 893 27 q 849 0 875 0 l 172 0 m 734 1436 q 718 1443 728 1436 q 702 1460 708 1449 l 623 1643 q 617 1688 610 1672 q 638 1708 624 1704 q 672 1707 657 1714 q 691 1681 686 1699 l 745 1526 l 837 1680 q 872 1708 853 1707 q 903 1699 891 1709 q 916 1670 917 1686 q 906 1639 916 1654 l 779 1458 q 756 1438 767 1440 q 734 1436 744 1436 z "},"Ȩ":{"ha":986,"x_min":131,"x_max":1091,"o":"m 172 0 q 140 11 148 0 q 135 43 131 22 l 347 1244 q 360 1278 351 1267 q 399 1290 370 1290 l 1048 1290 q 1083 1278 1074 1290 q 1091 1251 1091 1267 q 1083 1226 1091 1234 q 1048 1218 1075 1218 l 426 1218 l 340 733 l 871 733 q 906 722 897 733 q 914 694 914 712 q 906 668 914 678 q 871 658 897 658 l 328 658 l 225 74 l 849 74 q 885 66 876 74 q 893 44 893 59 q 884 14 893 27 q 849 0 875 0 l 172 0 m 529 -492 q 462 -485 492 -492 q 413 -467 431 -479 q 394 -439 394 -456 q 410 -407 394 -415 q 449 -403 425 -399 q 488 -412 469 -407 q 529 -417 507 -417 q 620 -380 593 -417 q 648 -290 648 -342 q 633 -217 648 -251 q 588 -144 618 -183 q 528 -74 565 -115 q 462 -1 490 -33 q 457 35 448 15 q 487 56 467 56 q 505 56 497 56 q 524 41 513 56 q 556 1 535 26 q 599 -49 576 -24 q 637 -92 622 -74 q 678 -146 657 -115 q 714 -214 699 -177 q 728 -292 728 -251 q 706 -387 728 -342 q 640 -462 684 -433 q 529 -492 597 -492 z "},"Ê":{"ha":986,"x_min":131,"x_max":1091,"o":"m 172 0 q 140 11 148 0 q 135 43 131 22 l 347 1244 q 360 1278 351 1267 q 399 1290 370 1290 l 1048 1290 q 1083 1278 1074 1290 q 1091 1251 1091 1267 q 1083 1226 1091 1234 q 1048 1218 1075 1218 l 426 1218 l 340 733 l 871 733 q 906 722 897 733 q 914 694 914 712 q 906 668 914 678 q 871 658 897 658 l 328 658 l 225 74 l 849 74 q 885 66 876 74 q 893 44 893 59 q 884 14 893 27 q 849 0 875 0 l 172 0 m 867 1393 q 832 1394 848 1386 q 811 1422 817 1403 l 763 1577 l 669 1424 q 633 1395 652 1397 q 602 1404 614 1394 q 588 1434 588 1417 q 599 1465 589 1450 l 728 1646 q 752 1665 740 1663 q 774 1667 763 1667 q 790 1661 780 1667 q 806 1643 801 1655 l 884 1463 q 891 1415 898 1433 q 867 1393 883 1398 z "},"Ë":{"ha":986,"x_min":131,"x_max":1091,"o":"m 172 0 q 140 11 148 0 q 135 43 131 22 l 347 1244 q 360 1278 351 1267 q 399 1290 370 1290 l 1048 1290 q 1083 1278 1074 1290 q 1091 1251 1091 1267 q 1083 1226 1091 1234 q 1048 1218 1075 1218 l 426 1218 l 340 733 l 871 733 q 906 722 897 733 q 914 694 914 712 q 906 668 914 678 q 871 658 897 658 l 328 658 l 225 74 l 849 74 q 885 66 876 74 q 893 44 893 59 q 884 14 893 27 q 849 0 875 0 l 172 0 m 868 1458 q 831 1474 846 1458 q 817 1515 817 1491 q 831 1555 817 1538 q 868 1572 844 1572 q 907 1556 891 1572 q 923 1515 923 1541 q 907 1475 923 1492 q 868 1458 892 1458 m 605 1458 q 569 1475 583 1458 q 555 1515 555 1492 q 569 1554 555 1538 q 605 1571 583 1571 q 644 1556 628 1571 q 660 1515 660 1540 q 644 1475 660 1492 q 605 1458 629 1458 z "},"Ė":{"ha":986,"x_min":131,"x_max":1091,"o":"m 172 0 q 140 11 148 0 q 135 43 131 22 l 347 1244 q 360 1278 351 1267 q 399 1290 370 1290 l 1048 1290 q 1083 1278 1074 1290 q 1091 1251 1091 1267 q 1083 1226 1091 1234 q 1048 1218 1075 1218 l 426 1218 l 340 733 l 871 733 q 906 722 897 733 q 914 694 914 712 q 906 668 914 678 q 871 658 897 658 l 328 658 l 225 74 l 849 74 q 885 66 876 74 q 893 44 893 59 q 884 14 893 27 q 849 0 875 0 l 172 0 m 753 1464 q 711 1483 728 1464 q 695 1529 695 1501 q 711 1574 695 1554 q 753 1593 727 1593 q 797 1575 779 1593 q 815 1529 815 1558 q 798 1483 815 1502 q 753 1464 780 1464 z "},"È":{"ha":986,"x_min":131,"x_max":1091,"o":"m 172 0 q 140 11 148 0 q 135 43 131 22 l 347 1244 q 360 1278 351 1267 q 399 1290 370 1290 l 1048 1290 q 1083 1278 1074 1290 q 1091 1251 1091 1267 q 1083 1226 1091 1234 q 1048 1218 1075 1218 l 426 1218 l 340 733 l 871 733 q 906 722 897 733 q 914 694 914 712 q 906 668 914 678 q 871 658 897 658 l 328 658 l 225 74 l 849 74 q 885 66 876 74 q 893 44 893 59 q 884 14 893 27 q 849 0 875 0 l 172 0 m 767 1413 q 744 1407 756 1406 q 721 1428 733 1407 l 624 1607 q 617 1657 608 1638 q 642 1681 626 1676 q 678 1678 663 1687 q 700 1650 693 1669 l 779 1456 q 782 1427 787 1437 q 767 1413 778 1418 z "},"Ē":{"ha":986,"x_min":131,"x_max":1091,"o":"m 172 0 q 140 11 148 0 q 135 43 131 22 l 347 1244 q 360 1278 351 1267 q 399 1290 370 1290 l 1048 1290 q 1083 1278 1074 1290 q 1091 1251 1091 1267 q 1083 1226 1091 1234 q 1048 1218 1075 1218 l 426 1218 l 340 733 l 871 733 q 906 722 897 733 q 914 694 914 712 q 906 668 914 678 q 871 658 897 658 l 328 658 l 225 74 l 849 74 q 885 66 876 74 q 893 44 893 59 q 884 14 893 27 q 849 0 875 0 l 172 0 m 598 1447 q 562 1458 572 1447 q 552 1484 552 1469 q 562 1510 552 1499 q 598 1520 572 1520 l 894 1520 q 930 1510 919 1520 q 940 1484 940 1499 q 930 1458 940 1469 q 894 1447 919 1447 l 598 1447 z "},"Ę":{"ha":986,"x_min":131,"x_max":1091,"o":"m 172 0 q 140 11 148 0 q 135 43 131 22 l 347 1244 q 360 1278 351 1267 q 399 1290 370 1290 l 1048 1290 q 1083 1278 1074 1290 q 1091 1251 1091 1267 q 1083 1226 1091 1234 q 1048 1218 1075 1218 l 426 1218 l 340 733 l 871 733 q 906 722 897 733 q 914 694 914 712 q 906 668 914 678 q 871 658 897 658 l 328 658 l 225 74 l 849 74 q 885 66 876 74 q 893 44 893 59 q 884 14 893 27 q 849 0 875 0 l 172 0 m 817 -433 q 704 -406 746 -433 q 644 -335 663 -378 q 626 -242 626 -291 q 652 -139 626 -185 q 710 -58 679 -93 q 760 -3 732 -32 q 814 48 788 26 q 836 61 830 60 q 851 63 842 63 q 875 53 865 63 q 889 32 886 44 q 880 10 891 19 q 814 -54 842 -22 q 753 -124 786 -85 q 722 -175 738 -142 q 706 -241 706 -207 q 732 -325 706 -291 q 813 -358 758 -358 l 860 -358 q 899 -364 884 -358 q 914 -394 914 -369 q 898 -426 914 -419 q 860 -433 882 -433 l 817 -433 z "},"Ẽ":{"ha":986,"x_min":131,"x_max":1091,"o":"m 172 0 q 140 11 148 0 q 135 43 131 22 l 347 1244 q 360 1278 351 1267 q 399 1290 370 1290 l 1048 1290 q 1083 1278 1074 1290 q 1091 1251 1091 1267 q 1083 1226 1091 1234 q 1048 1218 1075 1218 l 426 1218 l 340 733 l 871 733 q 906 722 897 733 q 914 694 914 712 q 906 668 914 678 q 871 658 897 658 l 328 658 l 225 74 l 849 74 q 885 66 876 74 q 893 44 893 59 q 884 14 893 27 q 849 0 875 0 l 172 0 m 824 1427 q 785 1439 806 1427 q 742 1467 764 1451 q 699 1494 720 1483 q 659 1506 678 1506 q 614 1494 633 1506 q 574 1465 596 1482 q 554 1459 564 1458 q 536 1468 544 1460 q 523 1486 528 1475 q 518 1508 518 1497 q 525 1529 518 1519 q 558 1549 533 1538 q 609 1568 583 1561 q 669 1576 636 1576 q 711 1564 689 1576 q 756 1536 734 1551 q 799 1508 778 1520 q 836 1496 819 1496 q 890 1510 871 1496 q 936 1542 910 1524 q 964 1545 951 1551 q 986 1527 978 1540 q 995 1506 995 1515 q 985 1485 995 1493 q 949 1465 974 1478 q 894 1440 924 1452 q 824 1427 865 1427 z "},"F":{"ha":879,"x_min":131,"x_max":1069,"o":"m 172 0 q 140 11 149 0 q 134 43 131 23 l 347 1244 q 360 1278 350 1267 q 399 1290 369 1290 l 1026 1290 q 1061 1278 1053 1290 q 1069 1251 1069 1267 q 1061 1226 1069 1234 q 1026 1218 1053 1218 l 425 1218 l 340 733 l 848 733 q 883 722 874 733 q 892 694 892 712 q 883 668 892 678 q 848 658 874 658 l 327 658 l 218 43 q 207 14 215 28 q 172 0 199 0 z "},"G":{"ha":1078,"x_min":123,"x_max":1080,"o":"m 460 -12 q 301 34 369 -12 q 190 163 232 80 q 135 359 147 247 q 146 603 123 471 q 731 1290 270 1290 q 907 1249 824 1290 q 1065 1131 991 1208 q 1078 1102 1077 1118 q 1069 1076 1080 1087 q 1044 1063 1058 1065 q 1014 1078 1031 1061 q 873 1184 944 1151 q 729 1218 801 1218 q 229 604 335 1218 q 217 391 210 490 q 255 218 224 292 q 338 103 285 144 q 462 61 390 61 q 574 90 518 61 q 682 172 629 118 q 782 301 734 226 q 869 469 829 376 q 902 526 886 508 q 944 544 917 544 q 973 535 967 544 q 974 501 978 526 l 894 47 q 882 15 891 30 q 842 0 872 -1 q 813 14 819 1 q 810 43 808 27 l 853 289 q 649 56 744 124 q 460 -12 555 -12 z "},"Ğ":{"ha":1078,"x_min":123,"x_max":1080,"o":"m 460 -12 q 301 34 369 -12 q 190 163 232 80 q 135 359 147 247 q 146 603 123 471 q 731 1290 270 1290 q 907 1249 824 1290 q 1065 1131 991 1208 q 1078 1102 1077 1118 q 1069 1076 1080 1087 q 1044 1063 1058 1065 q 1014 1078 1031 1061 q 873 1184 944 1151 q 729 1218 801 1218 q 229 604 335 1218 q 217 391 210 490 q 255 218 224 292 q 338 103 285 144 q 462 61 390 61 q 574 90 518 61 q 682 172 629 118 q 782 301 734 226 q 869 469 829 376 q 902 526 886 508 q 944 544 917 544 q 973 535 967 544 q 974 501 978 526 l 894 47 q 882 15 891 30 q 842 0 872 -1 q 813 14 819 1 q 810 43 808 27 l 853 289 q 649 56 744 124 q 460 -12 555 -12 m 720 1431 q 641 1451 671 1431 q 598 1501 612 1470 q 581 1565 583 1531 q 581 1627 578 1599 q 596 1664 585 1655 q 622 1674 607 1674 q 653 1667 642 1674 q 660 1640 663 1660 q 664 1541 653 1569 q 694 1506 675 1512 q 730 1501 714 1501 q 767 1510 747 1501 q 805 1549 788 1519 q 828 1639 822 1578 q 845 1668 831 1660 q 876 1675 860 1675 q 908 1659 901 1675 q 912 1622 915 1642 q 898 1571 909 1603 q 865 1507 887 1539 q 807 1453 842 1475 q 720 1431 772 1431 z "},"Ǧ":{"ha":1078,"x_min":123,"x_max":1080,"o":"m 460 -12 q 301 34 369 -12 q 190 163 232 80 q 135 359 147 247 q 146 603 123 471 q 731 1290 270 1290 q 907 1249 824 1290 q 1065 1131 991 1208 q 1078 1102 1077 1118 q 1069 1076 1080 1087 q 1044 1063 1058 1065 q 1014 1078 1031 1061 q 873 1184 944 1151 q 729 1218 801 1218 q 229 604 335 1218 q 217 391 210 490 q 255 218 224 292 q 338 103 285 144 q 462 61 390 61 q 574 90 518 61 q 682 172 629 118 q 782 301 734 226 q 869 469 829 376 q 902 526 886 508 q 944 544 917 544 q 973 535 967 544 q 974 501 978 526 l 894 47 q 882 15 891 30 q 842 0 872 -1 q 813 14 819 1 q 810 43 808 27 l 853 289 q 649 56 744 124 q 460 -12 555 -12 m 719 1433 q 703 1439 713 1433 q 688 1457 693 1446 l 608 1640 q 602 1684 595 1668 q 624 1705 610 1701 q 657 1703 642 1710 q 676 1678 672 1696 l 731 1523 l 822 1676 q 857 1705 838 1703 q 888 1696 876 1706 q 902 1667 902 1683 q 891 1635 901 1651 l 765 1454 q 741 1435 753 1437 q 719 1433 730 1433 z "},"Ģ":{"ha":1078,"x_min":123,"x_max":1080,"o":"m 460 -12 q 301 34 369 -12 q 190 163 232 80 q 135 359 147 247 q 146 603 123 471 q 731 1290 270 1290 q 907 1249 824 1290 q 1065 1131 991 1208 q 1078 1102 1077 1118 q 1069 1076 1080 1087 q 1044 1063 1058 1065 q 1014 1078 1031 1061 q 873 1184 944 1151 q 729 1218 801 1218 q 229 604 335 1218 q 217 391 210 490 q 255 218 224 292 q 338 103 285 144 q 462 61 390 61 q 574 90 518 61 q 682 172 629 118 q 782 301 734 226 q 869 469 829 376 q 902 526 886 508 q 944 544 917 544 q 973 535 967 544 q 974 501 978 526 l 894 47 q 882 15 891 30 q 842 0 872 -1 q 813 14 819 1 q 810 43 808 27 l 853 289 q 649 56 744 124 q 460 -12 555 -12 m 397 -404 q 367 -390 377 -402 q 362 -353 356 -378 l 417 -116 q 436 -84 423 -92 q 472 -78 450 -76 q 504 -91 492 -81 q 510 -126 516 -102 l 452 -365 q 432 -398 447 -389 q 397 -404 417 -406 z "},"Ġ":{"ha":1078,"x_min":123,"x_max":1080,"o":"m 460 -12 q 301 34 369 -12 q 190 163 232 80 q 135 359 147 247 q 146 603 123 471 q 731 1290 270 1290 q 907 1249 824 1290 q 1065 1131 991 1208 q 1078 1102 1077 1118 q 1069 1076 1080 1087 q 1044 1063 1058 1065 q 1014 1078 1031 1061 q 873 1184 944 1151 q 729 1218 801 1218 q 229 604 335 1218 q 217 391 210 490 q 255 218 224 292 q 338 103 285 144 q 462 61 390 61 q 574 90 518 61 q 682 172 629 118 q 782 301 734 226 q 869 469 829 376 q 902 526 886 508 q 944 544 917 544 q 973 535 967 544 q 974 501 978 526 l 894 47 q 882 15 891 30 q 842 0 872 -1 q 813 14 819 1 q 810 43 808 27 l 853 289 q 649 56 744 124 q 460 -12 555 -12 m 739 1460 q 697 1479 713 1460 q 681 1526 681 1498 q 697 1570 681 1551 q 739 1590 713 1590 q 783 1572 765 1590 q 801 1526 801 1554 q 783 1480 801 1499 q 739 1460 765 1460 z "},"Ḡ":{"ha":1078,"x_min":123,"x_max":1080,"o":"m 460 -12 q 301 34 369 -12 q 190 163 232 80 q 135 359 147 247 q 146 603 123 471 q 731 1290 270 1290 q 907 1249 824 1290 q 1065 1131 991 1208 q 1078 1102 1077 1118 q 1069 1076 1080 1087 q 1044 1063 1058 1065 q 1014 1078 1031 1061 q 873 1184 944 1151 q 729 1218 801 1218 q 229 604 335 1218 q 217 391 210 490 q 255 218 224 292 q 338 103 285 144 q 462 61 390 61 q 574 90 518 61 q 682 172 629 118 q 782 301 734 226 q 869 469 829 376 q 902 526 886 508 q 944 544 917 544 q 973 535 967 544 q 974 501 978 526 l 894 47 q 882 15 891 30 q 842 0 872 -1 q 813 14 819 1 q 810 43 808 27 l 853 289 q 649 56 744 124 q 460 -12 555 -12 m 583 1444 q 548 1455 558 1444 q 538 1481 538 1465 q 548 1506 538 1496 q 583 1517 558 1517 l 880 1517 q 915 1506 905 1517 q 926 1481 926 1496 q 915 1455 926 1466 q 880 1444 904 1444 l 583 1444 z "},"H":{"ha":1112,"x_min":131,"x_max":1115,"o":"m 171 0 q 140 11 148 0 q 135 43 131 22 l 347 1243 q 361 1278 350 1266 q 399 1290 373 1290 q 426 1277 419 1290 q 428 1238 433 1264 l 340 733 l 938 733 l 1029 1253 q 1042 1279 1032 1268 q 1075 1290 1051 1290 q 1107 1278 1100 1290 q 1110 1244 1115 1267 l 898 37 q 887 12 896 24 q 853 0 878 0 q 819 13 826 0 q 816 43 813 26 l 924 658 l 326 658 l 218 43 q 207 14 215 28 q 171 0 199 0 z "},"Ħ":{"ha":1038,"x_min":179,"x_max":1240,"o":"m 219 0 q 188 11 196 0 q 183 42 179 22 l 394 1245 q 409 1278 399 1267 q 445 1290 419 1290 q 473 1277 465 1290 q 476 1240 481 1265 l 353 537 l 936 537 l 1063 1254 q 1075 1279 1065 1268 q 1106 1290 1085 1290 q 1140 1279 1133 1290 q 1143 1245 1147 1267 l 930 36 q 919 11 927 23 q 886 0 910 0 q 852 13 858 0 q 848 42 845 26 l 923 465 l 340 465 l 265 42 q 255 14 263 27 q 219 0 247 0 m 249 842 q 215 852 226 842 q 204 877 204 863 q 214 907 204 893 q 249 921 224 921 l 1194 921 q 1229 909 1219 921 q 1240 883 1240 897 q 1229 854 1240 866 q 1194 842 1219 842 l 249 842 z "},"I":{"ha":516,"x_min":74,"x_max":555,"o":"m 115 0 q 82 10 90 0 q 74 36 74 20 q 82 64 74 53 q 115 74 90 74 l 173 74 l 375 1218 l 333 1218 q 299 1229 308 1218 q 290 1255 290 1240 q 299 1280 290 1271 q 333 1290 307 1290 l 514 1290 q 547 1280 540 1290 q 555 1255 555 1271 q 547 1229 555 1240 q 514 1218 539 1218 l 458 1218 l 257 74 l 303 74 q 338 64 330 74 q 347 36 347 53 q 338 10 347 20 q 303 0 330 0 l 115 0 z "},"Ĳ":{"ha":1376,"x_min":74,"x_max":1584,"o":"m 115 0 q 82 10 90 0 q 74 36 74 20 q 82 64 74 53 q 115 74 90 74 l 173 74 l 375 1218 l 333 1218 q 299 1229 308 1218 q 290 1255 290 1240 q 299 1280 290 1271 q 333 1290 307 1290 l 514 1290 q 547 1280 540 1290 q 555 1255 555 1271 q 547 1229 555 1240 q 514 1218 539 1218 l 458 1218 l 257 74 l 303 74 q 338 64 330 74 q 347 36 347 53 q 338 10 347 20 q 303 0 330 0 l 115 0 m 501 -3 q 473 7 485 -3 q 460 36 460 17 q 473 62 460 53 q 501 71 485 71 q 559 72 519 71 q 645 75 599 73 q 733 80 692 77 q 795 86 774 83 q 919 148 872 99 q 996 268 967 196 q 1042 424 1025 340 q 1075 595 1060 509 l 1187 1218 l 926 1218 q 892 1228 900 1218 q 883 1254 883 1238 q 892 1280 883 1270 q 926 1290 900 1290 l 1542 1290 q 1576 1280 1568 1290 q 1584 1254 1584 1270 q 1576 1228 1584 1238 q 1542 1218 1568 1218 l 1269 1218 l 1156 589 q 1122 418 1140 499 q 1078 268 1104 337 q 1014 145 1053 199 q 919 57 976 92 q 783 10 863 22 q 732 6 769 8 q 651 1 696 3 q 565 -2 606 -1 q 501 -3 524 -3 z "},"Í":{"ha":516,"x_min":74,"x_max":626,"o":"m 115 0 q 82 10 90 0 q 74 36 74 20 q 82 64 74 53 q 115 74 90 74 l 173 74 l 375 1218 l 333 1218 q 299 1229 308 1218 q 290 1255 290 1240 q 299 1280 290 1271 q 333 1290 307 1290 l 514 1290 q 547 1280 540 1290 q 555 1255 555 1271 q 547 1229 555 1240 q 514 1218 539 1218 l 458 1218 l 257 74 l 303 74 q 338 64 330 74 q 347 36 347 53 q 338 10 347 20 q 303 0 330 0 l 115 0 m 441 1410 q 424 1427 430 1417 q 431 1459 419 1438 l 538 1645 q 577 1676 556 1675 q 610 1667 598 1677 q 626 1634 626 1652 q 613 1600 625 1617 l 485 1422 q 461 1405 472 1405 q 441 1410 451 1404 z "},"Î":{"ha":516,"x_min":74,"x_max":616,"o":"m 115 0 q 82 10 90 0 q 74 36 74 20 q 82 64 74 53 q 115 74 90 74 l 173 74 l 375 1218 l 333 1218 q 299 1229 308 1218 q 290 1255 290 1240 q 299 1280 290 1271 q 333 1290 307 1290 l 514 1290 q 547 1280 540 1290 q 555 1255 555 1271 q 547 1229 555 1240 q 514 1218 539 1218 l 458 1218 l 257 74 l 303 74 q 338 64 330 74 q 347 36 347 53 q 338 10 347 20 q 303 0 330 0 l 115 0 m 585 1390 q 550 1391 566 1383 q 529 1418 535 1399 l 481 1574 l 387 1420 q 351 1392 370 1393 q 320 1401 332 1391 q 306 1430 306 1414 q 317 1461 307 1447 l 447 1642 q 470 1662 458 1660 q 492 1664 481 1664 q 508 1658 498 1664 q 524 1640 519 1651 l 602 1460 q 609 1412 616 1429 q 585 1390 601 1394 z "},"Ï":{"ha":516,"x_min":74,"x_max":641,"o":"m 115 0 q 82 10 90 0 q 74 36 74 20 q 82 64 74 53 q 115 74 90 74 l 173 74 l 375 1218 l 333 1218 q 299 1229 308 1218 q 290 1255 290 1240 q 299 1280 290 1271 q 333 1290 307 1290 l 514 1290 q 547 1280 540 1290 q 555 1255 555 1271 q 547 1229 555 1240 q 514 1218 539 1218 l 458 1218 l 257 74 l 303 74 q 338 64 330 74 q 347 36 347 53 q 338 10 347 20 q 303 0 330 0 l 115 0 m 586 1454 q 549 1471 564 1454 q 535 1512 535 1488 q 549 1551 535 1534 q 586 1568 563 1568 q 625 1553 609 1568 q 641 1512 641 1538 q 625 1471 641 1488 q 586 1454 610 1454 m 323 1455 q 287 1472 301 1455 q 273 1512 273 1488 q 287 1551 273 1534 q 323 1567 301 1567 q 362 1552 346 1567 q 378 1512 378 1537 q 363 1472 378 1488 q 323 1455 347 1455 z "},"İ":{"ha":516,"x_min":74,"x_max":555,"o":"m 115 0 q 82 10 90 0 q 74 36 74 20 q 82 64 74 53 q 115 74 90 74 l 173 74 l 375 1218 l 333 1218 q 299 1229 308 1218 q 290 1255 290 1240 q 299 1280 290 1271 q 333 1290 307 1290 l 514 1290 q 547 1280 540 1290 q 555 1255 555 1271 q 547 1229 555 1240 q 514 1218 539 1218 l 458 1218 l 257 74 l 303 74 q 338 64 330 74 q 347 36 347 53 q 338 10 347 20 q 303 0 330 0 l 115 0 m 472 1460 q 430 1479 446 1460 q 413 1526 413 1498 q 429 1570 413 1551 q 472 1590 445 1590 q 515 1572 497 1590 q 533 1526 533 1554 q 516 1480 533 1499 q 472 1460 498 1460 z "},"Ì":{"ha":516,"x_min":74,"x_max":555,"o":"m 115 0 q 82 10 90 0 q 74 36 74 20 q 82 64 74 53 q 115 74 90 74 l 173 74 l 375 1218 l 333 1218 q 299 1229 308 1218 q 290 1255 290 1240 q 299 1280 290 1271 q 333 1290 307 1290 l 514 1290 q 547 1280 540 1290 q 555 1255 555 1271 q 547 1229 555 1240 q 514 1218 539 1218 l 458 1218 l 257 74 l 303 74 q 338 64 330 74 q 347 36 347 53 q 338 10 347 20 q 303 0 330 0 l 115 0 m 485 1409 q 463 1403 474 1403 q 439 1425 451 1403 l 342 1603 q 335 1653 326 1634 q 360 1677 344 1672 q 396 1674 381 1683 q 418 1647 411 1665 l 497 1453 q 500 1424 505 1433 q 485 1409 496 1415 z "},"Ī":{"ha":516,"x_min":74,"x_max":658,"o":"m 115 0 q 82 10 90 0 q 74 36 74 20 q 82 64 74 53 q 115 74 90 74 l 173 74 l 375 1218 l 333 1218 q 299 1229 308 1218 q 290 1255 290 1240 q 299 1280 290 1271 q 333 1290 307 1290 l 514 1290 q 547 1280 540 1290 q 555 1255 555 1271 q 547 1229 555 1240 q 514 1218 539 1218 l 458 1218 l 257 74 l 303 74 q 338 64 330 74 q 347 36 347 53 q 338 10 347 20 q 303 0 330 0 l 115 0 m 316 1444 q 280 1455 290 1444 q 270 1481 270 1465 q 280 1506 270 1496 q 316 1517 290 1517 l 613 1517 q 648 1506 638 1517 q 658 1481 658 1496 q 648 1455 658 1466 q 613 1444 637 1444 l 316 1444 z "},"Į":{"ha":516,"x_min":74,"x_max":555,"o":"m 115 0 q 82 10 90 0 q 74 36 74 20 q 82 64 74 53 q 115 74 90 74 l 173 74 l 375 1218 l 333 1218 q 299 1229 308 1218 q 290 1255 290 1240 q 299 1280 290 1271 q 333 1290 307 1290 l 514 1290 q 547 1280 540 1290 q 555 1255 555 1271 q 547 1229 555 1240 q 514 1218 539 1218 l 458 1218 l 257 74 l 303 74 q 338 64 330 74 q 347 36 347 53 q 338 10 347 20 q 303 0 330 0 l 115 0 m 267 -440 q 154 -412 196 -440 q 94 -342 113 -385 q 76 -249 76 -298 q 102 -146 76 -192 q 160 -65 129 -100 q 210 -10 182 -39 q 264 41 238 19 q 286 54 280 53 q 301 56 292 56 q 325 46 315 56 q 339 25 336 37 q 330 3 341 13 q 264 -61 292 -29 q 203 -131 236 -92 q 172 -182 188 -149 q 156 -248 156 -214 q 182 -332 156 -298 q 263 -365 208 -365 l 310 -365 q 349 -371 334 -365 q 364 -401 364 -376 q 348 -433 364 -426 q 310 -440 332 -440 l 267 -440 z "},"Ĩ":{"ha":516,"x_min":74,"x_max":713,"o":"m 115 0 q 82 10 90 0 q 74 36 74 20 q 82 64 74 53 q 115 74 90 74 l 173 74 l 375 1218 l 333 1218 q 299 1229 308 1218 q 290 1255 290 1240 q 299 1280 290 1271 q 333 1290 307 1290 l 514 1290 q 547 1280 540 1290 q 555 1255 555 1271 q 547 1229 555 1240 q 514 1218 539 1218 l 458 1218 l 257 74 l 303 74 q 338 64 330 74 q 347 36 347 53 q 338 10 347 20 q 303 0 330 0 l 115 0 m 542 1424 q 503 1435 524 1424 q 460 1463 482 1447 q 417 1491 438 1479 q 377 1503 396 1503 q 332 1491 351 1503 q 292 1461 314 1478 q 272 1456 282 1454 q 254 1464 263 1457 q 241 1482 246 1472 q 236 1504 236 1493 q 243 1525 236 1516 q 276 1546 251 1535 q 327 1565 301 1558 q 387 1572 354 1572 q 430 1560 407 1572 q 474 1532 452 1548 q 517 1505 497 1517 q 554 1492 538 1492 q 608 1507 589 1492 q 654 1538 628 1521 q 682 1542 669 1548 q 705 1524 696 1536 q 713 1502 713 1512 q 703 1482 713 1490 q 667 1461 692 1474 q 613 1436 642 1449 q 542 1424 583 1424 z "},"J":{"ha":797,"x_min":-119,"x_max":1005,"o":"m -78 -3 q -107 7 -94 -3 q -119 36 -119 17 q -107 62 -119 53 q -78 71 -94 71 q -20 72 -60 71 q 66 75 19 73 q 154 80 113 77 q 216 86 195 83 q 340 148 292 99 q 417 268 388 196 q 463 424 446 340 q 496 595 481 509 l 608 1218 l 347 1218 q 313 1228 321 1218 q 304 1254 304 1238 q 313 1280 304 1270 q 347 1290 321 1290 l 963 1290 q 997 1280 989 1290 q 1005 1254 1005 1270 q 997 1228 1005 1238 q 963 1218 989 1218 l 690 1218 l 577 589 q 543 418 561 499 q 499 268 525 337 q 435 145 474 199 q 340 57 397 92 q 204 10 284 22 q 153 6 190 8 q 72 1 117 3 q -14 -2 27 -1 q -78 -3 -55 -3 z "},"K":{"ha":981,"x_min":131,"x_max":1107,"o":"m 171 0 q 140 16 149 0 q 135 53 131 33 l 345 1244 q 360 1278 349 1266 q 397 1290 371 1290 q 420 1284 413 1290 q 429 1267 428 1278 q 427 1238 430 1256 l 338 729 l 1021 1266 q 1052 1285 1039 1280 q 1076 1290 1065 1290 q 1100 1281 1092 1290 q 1107 1263 1107 1273 q 1099 1236 1107 1247 q 1073 1212 1092 1226 l 409 695 l 873 81 q 894 36 894 52 q 883 10 894 21 q 855 0 871 0 q 826 10 838 0 q 803 35 815 20 l 328 674 l 218 55 q 206 18 215 35 q 171 0 197 0 z "},"Ķ":{"ha":981,"x_min":131,"x_max":1107,"o":"m 171 0 q 140 16 149 0 q 135 53 131 33 l 345 1244 q 360 1278 349 1266 q 397 1290 371 1290 q 420 1284 413 1290 q 429 1267 428 1278 q 427 1238 430 1256 l 338 729 l 1021 1266 q 1052 1285 1039 1280 q 1076 1290 1065 1290 q 1100 1281 1092 1290 q 1107 1263 1107 1273 q 1099 1236 1107 1247 q 1073 1212 1092 1226 l 409 695 l 873 81 q 894 36 894 52 q 883 10 894 21 q 855 0 871 0 q 826 10 838 0 q 803 35 815 20 l 328 674 l 218 55 q 206 18 215 35 q 171 0 197 0 m 390 -404 q 359 -390 369 -402 q 354 -353 349 -378 l 410 -116 q 429 -84 415 -92 q 464 -78 442 -76 q 497 -91 485 -81 q 503 -126 508 -102 l 444 -365 q 424 -398 439 -389 q 390 -404 410 -406 z "},"L":{"ha":896,"x_min":131,"x_max":896,"o":"m 171 0 q 140 11 148 0 q 134 43 131 23 l 347 1243 q 361 1278 350 1266 q 398 1290 372 1290 q 428 1277 423 1290 q 428 1238 433 1264 l 224 74 l 853 74 q 887 66 878 74 q 896 44 896 58 q 886 14 896 27 q 853 0 876 0 l 171 0 z "},"Ĺ":{"ha":896,"x_min":131,"x_max":896,"o":"m 171 0 q 140 11 148 0 q 134 43 131 23 l 347 1243 q 361 1278 350 1266 q 398 1290 372 1290 q 428 1277 423 1290 q 428 1238 433 1264 l 224 74 l 853 74 q 887 66 878 74 q 896 44 896 58 q 886 14 896 27 q 853 0 876 0 l 171 0 m 408 1410 q 391 1427 397 1417 q 398 1459 385 1438 l 505 1645 q 543 1676 522 1675 q 577 1667 565 1677 q 592 1634 593 1652 q 580 1600 592 1617 l 451 1422 q 428 1405 439 1405 q 408 1410 417 1404 z "},"Ľ":{"ha":896,"x_min":131,"x_max":896,"o":"m 171 0 q 140 11 148 0 q 134 43 131 23 l 347 1243 q 361 1278 350 1266 q 398 1290 372 1290 q 428 1277 423 1290 q 428 1238 433 1264 l 224 74 l 853 74 q 887 66 878 74 q 896 44 896 58 q 886 14 896 27 q 853 0 876 0 l 171 0 m 740 863 q 713 879 724 866 q 706 911 702 892 l 768 1264 q 788 1295 772 1285 q 822 1301 804 1306 q 842 1287 831 1299 q 850 1253 854 1275 l 779 898 q 766 869 776 879 q 740 863 756 860 z "},"Ļ":{"ha":896,"x_min":131,"x_max":896,"o":"m 171 0 q 140 11 148 0 q 134 43 131 23 l 347 1243 q 361 1278 350 1266 q 398 1290 372 1290 q 428 1277 423 1290 q 428 1238 433 1264 l 224 74 l 853 74 q 887 66 878 74 q 896 44 896 58 q 886 14 896 27 q 853 0 876 0 l 171 0 m 453 -404 q 423 -390 433 -402 q 418 -353 413 -378 l 474 -116 q 493 -84 479 -92 q 528 -78 506 -76 q 560 -91 549 -81 q 567 -126 572 -102 l 508 -365 q 488 -398 503 -389 q 453 -404 474 -406 z "},"Ł":{"ha":846,"x_min":-12,"x_max":846,"o":"m 121 0 q 90 11 98 0 q 84 43 81 23 l 297 1243 q 311 1278 300 1266 q 348 1290 322 1290 q 378 1277 373 1290 q 378 1238 383 1264 l 174 74 l 803 74 q 837 66 828 74 q 846 44 846 58 q 836 14 846 27 q 803 0 826 0 l 121 0 m 53 351 q 17 344 30 338 q -5 365 4 349 q -8 392 -12 379 q 19 417 -5 404 l 183 504 l 236 519 l 594 715 q 629 722 617 726 q 648 703 641 717 q 655 674 657 688 q 629 648 652 660 l 227 430 l 170 413 l 53 351 z "},"M":{"ha":1623,"x_min":-35,"x_max":1545,"o":"m 1 -3 q -23 3 -13 -3 q -34 24 -33 10 q -25 59 -35 38 l 594 1249 q 616 1281 606 1269 q 648 1293 626 1293 q 680 1284 672 1293 q 689 1264 688 1274 l 774 139 l 1343 1245 q 1364 1278 1353 1263 q 1403 1293 1375 1293 q 1436 1282 1429 1293 q 1444 1246 1443 1270 l 1543 39 q 1536 8 1545 19 q 1507 -3 1527 -3 q 1472 10 1480 -3 q 1463 37 1463 23 l 1378 1144 l 808 41 q 790 13 801 30 q 753 -3 778 -3 q 716 10 724 -3 q 706 38 708 23 l 624 1141 l 58 42 q 31 7 47 17 q 1 -3 15 -3 z "},"Ḿ":{"ha":1623,"x_min":-35,"x_max":1545,"o":"m 1 -3 q -23 3 -13 -3 q -34 24 -33 10 q -25 59 -35 38 l 594 1249 q 616 1281 606 1269 q 648 1293 626 1293 q 680 1284 672 1293 q 689 1264 688 1274 l 774 139 l 1343 1245 q 1364 1278 1353 1263 q 1403 1293 1375 1293 q 1436 1282 1429 1293 q 1444 1246 1443 1270 l 1543 39 q 1536 8 1545 19 q 1507 -3 1527 -3 q 1472 10 1480 -3 q 1463 37 1463 23 l 1378 1144 l 808 41 q 790 13 801 30 q 753 -3 778 -3 q 716 10 724 -3 q 706 38 708 23 l 624 1141 l 58 42 q 31 7 47 17 q 1 -3 15 -3 m 987 1410 q 970 1427 976 1417 q 977 1459 965 1438 l 1084 1645 q 1123 1676 1101 1675 q 1156 1667 1144 1677 q 1172 1634 1172 1652 q 1159 1600 1171 1617 l 1031 1422 q 1007 1405 1018 1405 q 987 1410 997 1404 z "},"N":{"ha":1113,"x_min":131,"x_max":1116,"o":"m 172 0 q 141 11 150 0 q 134 43 131 23 l 347 1243 q 360 1278 351 1267 q 397 1290 369 1290 q 433 1279 420 1290 q 451 1255 447 1268 l 840 174 l 1031 1244 q 1045 1278 1035 1266 q 1081 1290 1056 1290 q 1110 1277 1105 1290 q 1110 1238 1116 1265 l 899 43 q 891 14 897 28 q 859 0 885 0 q 830 9 840 0 q 814 30 819 17 l 409 1129 l 219 48 q 209 15 217 31 q 172 0 201 0 z "},"Ń":{"ha":1113,"x_min":131,"x_max":1116,"o":"m 172 0 q 141 11 150 0 q 134 43 131 23 l 347 1243 q 360 1278 351 1267 q 397 1290 369 1290 q 433 1279 420 1290 q 451 1255 447 1268 l 840 174 l 1031 1244 q 1045 1278 1035 1266 q 1081 1290 1056 1290 q 1110 1277 1105 1290 q 1110 1238 1116 1265 l 899 43 q 891 14 897 28 q 859 0 885 0 q 830 9 840 0 q 814 30 819 17 l 409 1129 l 219 48 q 209 15 217 31 q 172 0 201 0 m 747 1410 q 730 1427 735 1417 q 737 1459 724 1438 l 844 1645 q 882 1676 861 1675 q 916 1667 903 1677 q 931 1634 932 1652 q 919 1600 931 1617 l 790 1422 q 767 1405 778 1405 q 747 1410 756 1404 z "},"Ň":{"ha":1113,"x_min":131,"x_max":1116,"o":"m 172 0 q 141 11 150 0 q 134 43 131 23 l 347 1243 q 360 1278 351 1267 q 397 1290 369 1290 q 433 1279 420 1290 q 451 1255 447 1268 l 840 174 l 1031 1244 q 1045 1278 1035 1266 q 1081 1290 1056 1290 q 1110 1277 1105 1290 q 1110 1238 1116 1265 l 899 43 q 891 14 897 28 q 859 0 885 0 q 830 9 840 0 q 814 30 819 17 l 409 1129 l 219 48 q 209 15 217 31 q 172 0 201 0 m 758 1433 q 741 1439 751 1433 q 726 1457 731 1446 l 647 1640 q 641 1684 633 1668 q 662 1705 648 1701 q 695 1703 681 1710 q 715 1678 710 1696 l 769 1523 l 860 1676 q 895 1705 876 1703 q 926 1696 915 1706 q 940 1667 940 1683 q 929 1635 940 1651 l 803 1454 q 780 1435 791 1437 q 758 1433 768 1433 z "},"Ņ":{"ha":1113,"x_min":131,"x_max":1116,"o":"m 172 0 q 141 11 150 0 q 134 43 131 23 l 347 1243 q 360 1278 351 1267 q 397 1290 369 1290 q 433 1279 420 1290 q 451 1255 447 1268 l 840 174 l 1031 1244 q 1045 1278 1035 1266 q 1081 1290 1056 1290 q 1110 1277 1105 1290 q 1110 1238 1116 1265 l 899 43 q 891 14 897 28 q 859 0 885 0 q 830 9 840 0 q 814 30 819 17 l 409 1129 l 219 48 q 209 15 217 31 q 172 0 201 0 m 435 -404 q 405 -390 415 -402 q 400 -353 394 -378 l 456 -116 q 475 -84 461 -92 q 510 -78 488 -76 q 542 -91 531 -81 q 549 -126 554 -102 l 490 -365 q 470 -398 485 -389 q 435 -404 456 -406 z "},"Ñ":{"ha":1113,"x_min":131,"x_max":1116,"o":"m 172 0 q 141 11 150 0 q 134 43 131 23 l 347 1243 q 360 1278 351 1267 q 397 1290 369 1290 q 433 1279 420 1290 q 451 1255 447 1268 l 840 174 l 1031 1244 q 1045 1278 1035 1266 q 1081 1290 1056 1290 q 1110 1277 1105 1290 q 1110 1238 1116 1265 l 899 43 q 891 14 897 28 q 859 0 885 0 q 830 9 840 0 q 814 30 819 17 l 409 1129 l 219 48 q 209 15 217 31 q 172 0 201 0 m 848 1424 q 809 1435 830 1424 q 766 1463 788 1447 q 723 1491 744 1479 q 683 1503 701 1503 q 638 1491 656 1503 q 597 1461 619 1478 q 578 1456 588 1454 q 560 1464 568 1457 q 547 1482 551 1472 q 542 1504 542 1493 q 549 1525 542 1516 q 582 1546 556 1535 q 633 1565 606 1558 q 692 1572 660 1572 q 735 1560 713 1572 q 780 1532 758 1548 q 823 1505 802 1517 q 860 1492 843 1492 q 914 1507 894 1492 q 960 1538 933 1521 q 988 1542 974 1548 q 1010 1524 1001 1536 q 1019 1502 1019 1512 q 1008 1482 1019 1490 q 973 1461 998 1474 q 918 1436 947 1449 q 848 1424 889 1424 z "},"Ŋ":{"ha":1070,"x_min":131,"x_max":1077,"o":"m 381 -400 q 330 -392 347 -400 q 313 -365 313 -383 q 330 -333 313 -347 q 383 -319 347 -319 q 441 -317 411 -319 q 503 -311 471 -315 q 623 -265 577 -301 q 697 -184 669 -229 q 741 -96 725 -135 q 769 -11 758 -57 q 793 101 781 35 l 978 1064 q 955 1176 990 1130 q 863 1223 920 1223 q 759 1194 810 1223 q 658 1115 708 1165 q 560 1002 608 1065 q 469 870 513 939 q 386 734 426 801 q 313 609 347 667 q 298 593 305 597 q 272 591 290 589 q 256 595 262 592 q 249 603 251 599 q 249 614 248 608 q 252 630 250 621 q 257 651 255 640 l 360 837 q 474 1012 416 928 q 594 1161 531 1096 q 726 1265 656 1227 q 877 1303 797 1303 q 995 1270 949 1303 q 1059 1185 1041 1237 q 1066 1076 1077 1133 l 879 103 q 849 -34 863 19 q 816 -132 835 -88 q 762 -229 796 -176 q 668 -332 725 -287 q 532 -389 611 -377 q 445 -398 482 -396 q 381 -400 409 -400 m 171 -3 q 139 8 147 -3 q 134 39 131 19 l 347 1245 q 361 1279 350 1267 q 397 1291 372 1291 q 424 1278 417 1291 q 428 1240 432 1265 l 216 39 q 206 11 213 25 q 171 -3 199 -3 z "},"O":{"ha":1059,"x_min":133,"x_max":1063,"o":"m 492 -3 q 287 52 365 -3 q 174 201 210 108 q 136 412 138 295 q 154 652 133 529 q 197 825 169 735 q 268 998 224 915 q 374 1148 312 1081 q 519 1254 436 1215 q 707 1293 601 1293 q 930 1232 848 1293 q 1038 1054 1013 1170 q 1033 773 1063 938 q 1001 624 1022 706 q 948 454 980 542 q 873 285 917 367 q 774 139 830 203 q 648 35 717 74 q 492 -3 578 -3 m 491 71 q 607 106 552 71 q 710 199 662 140 q 798 330 758 258 q 869 480 838 403 q 921 630 900 558 q 952 758 942 701 q 969 927 968 844 q 945 1076 969 1010 q 861 1182 920 1142 q 697 1221 801 1221 q 536 1178 606 1221 q 413 1066 465 1135 q 324 917 360 997 q 266 763 288 838 q 234 635 244 688 q 218 485 221 563 q 226 333 215 406 q 267 200 237 259 q 352 106 298 141 q 491 71 407 71 z "},"Ó":{"ha":1059,"x_min":133,"x_max":1063,"o":"m 492 -3 q 287 52 365 -3 q 174 201 210 108 q 136 412 138 295 q 154 652 133 529 q 197 825 169 735 q 268 998 224 915 q 374 1148 312 1081 q 519 1254 436 1215 q 707 1293 601 1293 q 930 1232 848 1293 q 1038 1054 1013 1170 q 1033 773 1063 938 q 1001 624 1022 706 q 948 454 980 542 q 873 285 917 367 q 774 139 830 203 q 648 35 717 74 q 492 -3 578 -3 m 491 71 q 607 106 552 71 q 710 199 662 140 q 798 330 758 258 q 869 480 838 403 q 921 630 900 558 q 952 758 942 701 q 969 927 968 844 q 945 1076 969 1010 q 861 1182 920 1142 q 697 1221 801 1221 q 536 1178 606 1221 q 413 1066 465 1135 q 324 917 360 997 q 266 763 288 838 q 234 635 244 688 q 218 485 221 563 q 226 333 215 406 q 267 200 237 259 q 352 106 298 141 q 491 71 407 71 m 699 1410 q 682 1427 688 1417 q 689 1459 676 1438 l 796 1645 q 834 1676 813 1675 q 868 1667 856 1677 q 883 1634 884 1652 q 871 1600 883 1617 l 742 1422 q 719 1405 730 1405 q 699 1410 708 1404 z "},"Ǒ":{"ha":1059,"x_min":133,"x_max":1063,"o":"m 492 -3 q 287 52 365 -3 q 174 201 210 108 q 136 412 138 295 q 154 652 133 529 q 197 825 169 735 q 268 998 224 915 q 374 1148 312 1081 q 519 1254 436 1215 q 707 1293 601 1293 q 930 1232 848 1293 q 1038 1054 1013 1170 q 1033 773 1063 938 q 1001 624 1022 706 q 948 454 980 542 q 873 285 917 367 q 774 139 830 203 q 648 35 717 74 q 492 -3 578 -3 m 491 71 q 607 106 552 71 q 710 199 662 140 q 798 330 758 258 q 869 480 838 403 q 921 630 900 558 q 952 758 942 701 q 969 927 968 844 q 945 1076 969 1010 q 861 1182 920 1142 q 697 1221 801 1221 q 536 1178 606 1221 q 413 1066 465 1135 q 324 917 360 997 q 266 763 288 838 q 234 635 244 688 q 218 485 221 563 q 226 333 215 406 q 267 200 237 259 q 352 106 298 141 q 491 71 407 71 m 710 1433 q 693 1439 703 1433 q 678 1457 683 1446 l 599 1640 q 593 1684 585 1668 q 614 1705 600 1701 q 647 1703 633 1710 q 667 1678 662 1696 l 721 1523 l 813 1676 q 848 1705 828 1703 q 878 1696 867 1706 q 892 1667 892 1683 q 881 1635 892 1651 l 755 1454 q 732 1435 743 1437 q 710 1433 720 1433 z "},"Ô":{"ha":1059,"x_min":133,"x_max":1063,"o":"m 492 -3 q 287 52 365 -3 q 174 201 210 108 q 136 412 138 295 q 154 652 133 529 q 197 825 169 735 q 268 998 224 915 q 374 1148 312 1081 q 519 1254 436 1215 q 707 1293 601 1293 q 930 1232 848 1293 q 1038 1054 1013 1170 q 1033 773 1063 938 q 1001 624 1022 706 q 948 454 980 542 q 873 285 917 367 q 774 139 830 203 q 648 35 717 74 q 492 -3 578 -3 m 491 71 q 607 106 552 71 q 710 199 662 140 q 798 330 758 258 q 869 480 838 403 q 921 630 900 558 q 952 758 942 701 q 969 927 968 844 q 945 1076 969 1010 q 861 1182 920 1142 q 697 1221 801 1221 q 536 1178 606 1221 q 413 1066 465 1135 q 324 917 360 997 q 266 763 288 838 q 234 635 244 688 q 218 485 221 563 q 226 333 215 406 q 267 200 237 259 q 352 106 298 141 q 491 71 407 71 m 843 1390 q 808 1391 824 1383 q 787 1418 792 1399 l 738 1574 l 644 1420 q 609 1392 628 1393 q 578 1401 590 1391 q 564 1430 563 1414 q 575 1461 565 1447 l 704 1642 q 727 1662 716 1660 q 749 1664 739 1664 q 766 1658 756 1664 q 781 1640 776 1651 l 860 1460 q 866 1412 874 1429 q 843 1390 859 1394 z "},"Ö":{"ha":1059,"x_min":133,"x_max":1063,"o":"m 492 -3 q 287 52 365 -3 q 174 201 210 108 q 136 412 138 295 q 154 652 133 529 q 197 825 169 735 q 268 998 224 915 q 374 1148 312 1081 q 519 1254 436 1215 q 707 1293 601 1293 q 930 1232 848 1293 q 1038 1054 1013 1170 q 1033 773 1063 938 q 1001 624 1022 706 q 948 454 980 542 q 873 285 917 367 q 774 139 830 203 q 648 35 717 74 q 492 -3 578 -3 m 491 71 q 607 106 552 71 q 710 199 662 140 q 798 330 758 258 q 869 480 838 403 q 921 630 900 558 q 952 758 942 701 q 969 927 968 844 q 945 1076 969 1010 q 861 1182 920 1142 q 697 1221 801 1221 q 536 1178 606 1221 q 413 1066 465 1135 q 324 917 360 997 q 266 763 288 838 q 234 635 244 688 q 218 485 221 563 q 226 333 215 406 q 267 200 237 259 q 352 106 298 141 q 491 71 407 71 m 844 1454 q 807 1471 822 1454 q 792 1512 792 1488 q 806 1551 792 1534 q 844 1568 820 1568 q 883 1553 867 1568 q 899 1512 899 1538 q 883 1471 899 1488 q 844 1454 867 1454 m 581 1455 q 545 1472 559 1455 q 531 1512 531 1488 q 544 1551 531 1534 q 581 1567 558 1567 q 619 1552 603 1567 q 635 1512 635 1537 q 620 1472 635 1488 q 581 1455 605 1455 z "},"Ȫ":{"ha":1059,"x_min":133,"x_max":1063,"o":"m 492 -3 q 287 52 365 -3 q 174 201 210 108 q 136 412 138 295 q 154 652 133 529 q 197 825 169 735 q 268 998 224 915 q 374 1148 312 1081 q 519 1254 436 1215 q 707 1293 601 1293 q 930 1232 848 1293 q 1038 1054 1013 1170 q 1033 773 1063 938 q 1001 624 1022 706 q 948 454 980 542 q 873 285 917 367 q 774 139 830 203 q 648 35 717 74 q 492 -3 578 -3 m 491 71 q 607 106 552 71 q 710 199 662 140 q 798 330 758 258 q 869 480 838 403 q 921 630 900 558 q 952 758 942 701 q 969 927 968 844 q 945 1076 969 1010 q 861 1182 920 1142 q 697 1221 801 1221 q 536 1178 606 1221 q 413 1066 465 1135 q 324 917 360 997 q 266 763 288 838 q 234 635 244 688 q 218 485 221 563 q 226 333 215 406 q 267 200 237 259 q 352 106 298 141 q 491 71 407 71 m 844 1454 q 807 1471 822 1454 q 792 1512 792 1488 q 806 1551 792 1534 q 844 1568 820 1568 q 883 1553 867 1568 q 899 1512 899 1538 q 883 1471 899 1488 q 844 1454 867 1454 m 581 1455 q 545 1472 559 1455 q 531 1512 531 1488 q 544 1551 531 1534 q 581 1567 558 1567 q 619 1552 603 1567 q 635 1512 635 1537 q 620 1472 635 1488 q 581 1455 605 1455 m 602 1698 q 566 1709 576 1698 q 556 1735 556 1719 q 566 1760 556 1750 q 602 1771 576 1771 l 899 1771 q 934 1760 924 1771 q 944 1735 944 1750 q 934 1709 944 1720 q 899 1698 923 1698 l 602 1698 z "},"Ò":{"ha":1059,"x_min":133,"x_max":1063,"o":"m 492 -3 q 287 52 365 -3 q 174 201 210 108 q 136 412 138 295 q 154 652 133 529 q 197 825 169 735 q 268 998 224 915 q 374 1148 312 1081 q 519 1254 436 1215 q 707 1293 601 1293 q 930 1232 848 1293 q 1038 1054 1013 1170 q 1033 773 1063 938 q 1001 624 1022 706 q 948 454 980 542 q 873 285 917 367 q 774 139 830 203 q 648 35 717 74 q 492 -3 578 -3 m 491 71 q 607 106 552 71 q 710 199 662 140 q 798 330 758 258 q 869 480 838 403 q 921 630 900 558 q 952 758 942 701 q 969 927 968 844 q 945 1076 969 1010 q 861 1182 920 1142 q 697 1221 801 1221 q 536 1178 606 1221 q 413 1066 465 1135 q 324 917 360 997 q 266 763 288 838 q 234 635 244 688 q 218 485 221 563 q 226 333 215 406 q 267 200 237 259 q 352 106 298 141 q 491 71 407 71 m 743 1409 q 720 1403 732 1403 q 697 1425 708 1403 l 600 1603 q 593 1653 584 1634 q 617 1677 601 1672 q 653 1674 638 1683 q 676 1647 669 1665 l 755 1453 q 758 1424 763 1433 q 743 1409 753 1415 z "},"Ő":{"ha":1059,"x_min":133,"x_max":1063,"o":"m 492 -3 q 287 52 365 -3 q 174 201 210 108 q 136 412 138 295 q 154 652 133 529 q 197 825 169 735 q 268 998 224 915 q 374 1148 312 1081 q 519 1254 436 1215 q 707 1293 601 1293 q 930 1232 848 1293 q 1038 1054 1013 1170 q 1033 773 1063 938 q 1001 624 1022 706 q 948 454 980 542 q 873 285 917 367 q 774 139 830 203 q 648 35 717 74 q 492 -3 578 -3 m 491 71 q 607 106 552 71 q 710 199 662 140 q 798 330 758 258 q 869 480 838 403 q 921 630 900 558 q 952 758 942 701 q 969 927 968 844 q 945 1076 969 1010 q 861 1182 920 1142 q 697 1221 801 1221 q 536 1178 606 1221 q 413 1066 465 1135 q 324 917 360 997 q 266 763 288 838 q 234 635 244 688 q 218 485 221 563 q 226 333 215 406 q 267 200 237 259 q 352 106 298 141 q 491 71 407 71 m 787 1434 q 770 1452 776 1442 q 776 1483 765 1462 l 883 1669 q 922 1701 901 1700 q 956 1692 943 1702 q 971 1659 972 1676 q 958 1625 970 1641 l 830 1447 q 807 1429 818 1430 q 787 1434 797 1428 m 600 1434 q 583 1451 588 1442 q 589 1483 578 1460 l 676 1669 q 713 1702 690 1701 q 748 1691 735 1702 q 763 1659 764 1676 q 751 1625 761 1642 l 642 1447 q 620 1428 631 1428 q 600 1434 609 1428 z "},"Ō":{"ha":1059,"x_min":133,"x_max":1063,"o":"m 492 -3 q 287 52 365 -3 q 174 201 210 108 q 136 412 138 295 q 154 652 133 529 q 197 825 169 735 q 268 998 224 915 q 374 1148 312 1081 q 519 1254 436 1215 q 707 1293 601 1293 q 930 1232 848 1293 q 1038 1054 1013 1170 q 1033 773 1063 938 q 1001 624 1022 706 q 948 454 980 542 q 873 285 917 367 q 774 139 830 203 q 648 35 717 74 q 492 -3 578 -3 m 491 71 q 607 106 552 71 q 710 199 662 140 q 798 330 758 258 q 869 480 838 403 q 921 630 900 558 q 952 758 942 701 q 969 927 968 844 q 945 1076 969 1010 q 861 1182 920 1142 q 697 1221 801 1221 q 536 1178 606 1221 q 413 1066 465 1135 q 324 917 360 997 q 266 763 288 838 q 234 635 244 688 q 218 485 221 563 q 226 333 215 406 q 267 200 237 259 q 352 106 298 141 q 491 71 407 71 m 574 1444 q 538 1455 548 1444 q 528 1481 528 1465 q 538 1506 528 1496 q 574 1517 548 1517 l 870 1517 q 906 1506 895 1517 q 916 1481 916 1496 q 905 1455 916 1466 q 870 1444 894 1444 l 574 1444 z "},"Ṓ":{"ha":1059,"x_min":133,"x_max":1063,"o":"m 492 -3 q 287 52 365 -3 q 174 201 210 108 q 136 412 138 295 q 154 652 133 529 q 197 825 169 735 q 268 998 224 915 q 374 1148 312 1081 q 519 1254 436 1215 q 707 1293 601 1293 q 930 1232 848 1293 q 1038 1054 1013 1170 q 1033 773 1063 938 q 1001 624 1022 706 q 948 454 980 542 q 873 285 917 367 q 774 139 830 203 q 648 35 717 74 q 492 -3 578 -3 m 491 71 q 607 106 552 71 q 710 199 662 140 q 798 330 758 258 q 869 480 838 403 q 921 630 900 558 q 952 758 942 701 q 969 927 968 844 q 945 1076 969 1010 q 861 1182 920 1142 q 697 1221 801 1221 q 536 1178 606 1221 q 413 1066 465 1135 q 324 917 360 997 q 266 763 288 838 q 234 635 244 688 q 218 485 221 563 q 226 333 215 406 q 267 200 237 259 q 352 106 298 141 q 491 71 407 71 m 574 1444 q 538 1455 548 1444 q 528 1481 528 1465 q 538 1506 528 1496 q 574 1517 548 1517 l 870 1517 q 906 1506 895 1517 q 916 1481 916 1496 q 905 1455 916 1466 q 870 1444 894 1444 l 574 1444 m 755 1637 q 738 1654 744 1644 q 745 1686 733 1665 l 852 1872 q 891 1903 869 1902 q 924 1894 912 1904 q 940 1861 940 1879 q 927 1827 939 1844 l 799 1649 q 775 1632 786 1632 q 755 1637 765 1631 z "},"Ṑ":{"ha":1059,"x_min":133,"x_max":1063,"o":"m 492 -3 q 287 52 365 -3 q 174 201 210 108 q 136 412 138 295 q 154 652 133 529 q 197 825 169 735 q 268 998 224 915 q 374 1148 312 1081 q 519 1254 436 1215 q 707 1293 601 1293 q 930 1232 848 1293 q 1038 1054 1013 1170 q 1033 773 1063 938 q 1001 624 1022 706 q 948 454 980 542 q 873 285 917 367 q 774 139 830 203 q 648 35 717 74 q 492 -3 578 -3 m 491 71 q 607 106 552 71 q 710 199 662 140 q 798 330 758 258 q 869 480 838 403 q 921 630 900 558 q 952 758 942 701 q 969 927 968 844 q 945 1076 969 1010 q 861 1182 920 1142 q 697 1221 801 1221 q 536 1178 606 1221 q 413 1066 465 1135 q 324 917 360 997 q 266 763 288 838 q 234 635 244 688 q 218 485 221 563 q 226 333 215 406 q 267 200 237 259 q 352 106 298 141 q 491 71 407 71 m 574 1444 q 538 1455 548 1444 q 528 1481 528 1465 q 538 1506 528 1496 q 574 1517 548 1517 l 870 1517 q 906 1506 895 1517 q 916 1481 916 1496 q 905 1455 916 1466 q 870 1444 894 1444 l 574 1444 m 799 1636 q 776 1630 788 1630 q 753 1652 765 1631 l 656 1831 q 649 1880 640 1861 q 674 1904 658 1899 q 710 1901 694 1910 q 732 1874 725 1892 l 811 1680 q 814 1651 819 1660 q 799 1636 810 1642 z "},"Ø":{"ha":1059,"x_min":133,"x_max":1063,"o":"m 492 -3 q 287 52 365 -3 q 174 201 210 108 q 136 412 138 295 q 154 652 133 529 q 197 825 169 735 q 268 998 224 915 q 374 1148 312 1081 q 519 1254 436 1215 q 707 1293 601 1293 q 930 1232 848 1293 q 1038 1054 1013 1170 q 1033 773 1063 938 q 1001 624 1022 706 q 948 454 980 542 q 873 285 917 367 q 774 139 830 203 q 648 35 717 74 q 492 -3 578 -3 m 245 -81 q 222 -75 231 -81 q 210 -57 212 -69 q 217 -27 208 -45 l 876 1326 q 902 1361 888 1352 q 931 1371 916 1371 q 952 1364 943 1371 q 964 1344 962 1357 q 957 1311 967 1331 l 296 -43 q 273 -73 285 -64 q 245 -81 260 -81 m 491 71 q 607 106 552 71 q 710 199 662 140 q 798 330 758 258 q 869 480 838 403 q 921 630 900 558 q 952 758 942 701 q 969 927 968 844 q 945 1076 969 1010 q 861 1182 920 1142 q 697 1221 801 1221 q 536 1178 606 1221 q 413 1066 465 1135 q 324 917 360 997 q 266 763 288 838 q 234 635 244 688 q 218 485 221 563 q 226 333 215 406 q 267 200 237 259 q 352 106 298 141 q 491 71 407 71 z "},"Õ":{"ha":1059,"x_min":133,"x_max":1063,"o":"m 492 -3 q 287 52 365 -3 q 174 201 210 108 q 136 412 138 295 q 154 652 133 529 q 197 825 169 735 q 268 998 224 915 q 374 1148 312 1081 q 519 1254 436 1215 q 707 1293 601 1293 q 930 1232 848 1293 q 1038 1054 1013 1170 q 1033 773 1063 938 q 1001 624 1022 706 q 948 454 980 542 q 873 285 917 367 q 774 139 830 203 q 648 35 717 74 q 492 -3 578 -3 m 491 71 q 607 106 552 71 q 710 199 662 140 q 798 330 758 258 q 869 480 838 403 q 921 630 900 558 q 952 758 942 701 q 969 927 968 844 q 945 1076 969 1010 q 861 1182 920 1142 q 697 1221 801 1221 q 536 1178 606 1221 q 413 1066 465 1135 q 324 917 360 997 q 266 763 288 838 q 234 635 244 688 q 218 485 221 563 q 226 333 215 406 q 267 200 237 259 q 352 106 298 141 q 491 71 407 71 m 800 1424 q 761 1435 782 1424 q 718 1463 740 1447 q 675 1491 696 1479 q 635 1503 653 1503 q 590 1491 608 1503 q 549 1461 572 1478 q 530 1456 540 1454 q 512 1464 520 1457 q 499 1482 503 1472 q 494 1504 494 1493 q 501 1525 494 1516 q 534 1546 508 1535 q 585 1565 558 1558 q 644 1572 612 1572 q 687 1560 665 1572 q 732 1532 710 1548 q 775 1505 754 1517 q 812 1492 795 1492 q 866 1507 847 1492 q 912 1538 885 1521 q 940 1542 926 1548 q 962 1524 953 1536 q 971 1502 971 1512 q 960 1482 971 1490 q 925 1461 950 1474 q 870 1436 899 1449 q 800 1424 841 1424 z "},"Œ":{"ha":1747,"x_min":133,"x_max":1852,"o":"m 492 -3 q 287 52 365 -3 q 174 201 210 108 q 136 412 138 295 q 154 652 133 529 q 197 825 169 735 q 268 998 224 915 q 374 1148 312 1081 q 519 1254 436 1215 q 707 1293 601 1293 q 930 1232 848 1293 q 1038 1054 1013 1170 q 1033 773 1063 938 q 1001 624 1022 706 q 948 454 980 542 q 873 285 917 367 q 774 139 830 203 q 648 35 717 74 q 492 -3 578 -3 m 491 71 q 607 106 552 71 q 710 199 662 140 q 798 330 758 258 q 869 480 838 403 q 921 630 900 558 q 952 758 942 701 q 969 927 968 844 q 945 1076 969 1010 q 861 1182 920 1142 q 697 1221 801 1221 q 536 1178 606 1221 q 413 1066 465 1135 q 324 917 360 997 q 266 763 288 838 q 234 635 244 688 q 218 485 221 563 q 226 333 215 406 q 267 200 237 259 q 352 106 298 141 q 491 71 407 71 m 933 0 q 901 11 909 0 q 896 43 892 22 l 1108 1244 q 1122 1278 1112 1267 q 1160 1290 1131 1290 l 1809 1290 q 1844 1278 1835 1290 q 1852 1251 1852 1267 q 1844 1226 1852 1234 q 1809 1218 1836 1218 l 1188 1218 l 1101 733 l 1632 733 q 1667 722 1658 733 q 1675 694 1675 712 q 1667 668 1675 678 q 1632 658 1658 658 l 1089 658 l 986 74 l 1610 74 q 1646 66 1638 74 q 1654 44 1654 59 q 1645 14 1654 27 q 1610 0 1636 0 l 933 0 z "},"P":{"ha":955,"x_min":131,"x_max":1076,"o":"m 173 0 q 141 11 150 0 q 134 43 131 23 l 347 1243 q 360 1278 351 1267 q 398 1290 370 1290 q 768 1256 615 1290 q 999 1150 922 1222 q 1060 967 1076 1079 q 988 806 1047 867 q 830 714 928 745 q 605 671 733 682 q 326 658 476 660 l 218 43 q 208 14 215 28 q 173 0 201 0 m 339 733 q 575 744 464 734 q 775 780 687 754 q 917 852 863 806 q 980 974 971 899 q 958 1074 987 1030 q 863 1150 930 1118 q 687 1199 796 1181 q 425 1218 578 1216 l 339 733 z "},"Þ":{"ha":885,"x_min":131,"x_max":1006,"o":"m 174 0 q 140 12 150 0 q 134 43 131 24 l 347 1243 q 359 1276 350 1263 q 392 1290 369 1290 q 426 1275 419 1290 q 429 1243 433 1261 l 218 43 q 208 14 215 28 q 174 0 201 0 m 242 381 l 254 455 q 494 465 379 455 q 701 501 609 475 q 848 575 792 527 q 910 699 904 623 q 885 801 915 756 q 785 876 855 845 q 604 923 716 907 q 335 940 492 940 l 374 1011 q 849 928 692 1004 q 991 689 1006 853 q 940 552 983 608 q 825 463 897 497 q 661 411 754 429 q 462 387 569 394 q 242 381 355 381 z "},"Q":{"ha":1048,"x_min":134,"x_max":1066,"o":"m 833 -158 q 799 -159 817 -167 q 767 -128 782 -150 l 651 39 q 576 -1 615 10 q 493 -12 537 -12 q 321 25 390 -12 q 210 128 251 63 q 151 278 169 193 q 136 459 134 363 q 155 653 138 556 q 197 826 169 737 q 269 997 225 915 q 375 1146 313 1080 q 519 1251 437 1212 q 708 1290 602 1290 q 931 1229 849 1290 q 1040 1054 1014 1169 q 1036 774 1066 939 q 998 607 1023 701 q 934 416 973 513 q 842 232 895 318 q 718 85 788 145 l 841 -94 q 851 -129 852 -110 q 833 -158 851 -149 m 492 61 q 550 71 522 61 q 605 107 578 81 l 556 178 q 539 215 540 201 q 552 240 538 228 q 590 250 570 256 q 623 224 610 244 l 669 156 q 772 287 725 210 q 855 449 819 364 q 915 616 890 535 q 949 758 939 697 q 966 928 965 846 q 944 1075 967 1010 q 861 1180 920 1141 q 698 1218 802 1218 q 536 1175 607 1218 q 414 1065 466 1133 q 325 917 361 997 q 266 764 288 838 q 235 637 244 690 q 218 485 222 565 q 226 331 215 406 q 268 194 238 256 q 353 97 299 133 q 492 61 408 61 z "},"R":{"ha":971,"x_min":131,"x_max":1074,"o":"m 169 0 q 139 16 147 0 q 135 55 131 31 l 344 1243 q 358 1278 349 1267 q 397 1290 368 1290 q 769 1256 616 1290 q 998 1152 923 1222 q 1059 971 1074 1081 q 994 820 1047 879 q 855 727 941 761 q 657 679 769 694 q 414 660 544 664 l 872 81 q 894 38 891 57 q 888 8 897 19 q 860 -3 878 -3 q 839 3 851 -3 q 812 30 827 10 l 322 647 l 217 55 q 206 16 214 32 q 169 0 197 0 m 338 733 q 573 744 461 734 q 772 781 684 755 q 914 855 860 808 q 978 978 969 903 q 928 1104 988 1051 q 741 1186 868 1157 q 423 1218 615 1216 l 338 733 z "},"Ŕ":{"ha":971,"x_min":131,"x_max":1074,"o":"m 169 0 q 139 16 147 0 q 135 55 131 31 l 344 1243 q 358 1278 349 1267 q 397 1290 368 1290 q 769 1256 616 1290 q 998 1152 923 1222 q 1059 971 1074 1081 q 994 820 1047 879 q 855 727 941 761 q 657 679 769 694 q 414 660 544 664 l 872 81 q 894 38 891 57 q 888 8 897 19 q 860 -3 878 -3 q 839 3 851 -3 q 812 30 827 10 l 322 647 l 217 55 q 206 16 214 32 q 169 0 197 0 m 338 733 q 573 744 461 734 q 772 781 684 755 q 914 855 860 808 q 978 978 969 903 q 928 1104 988 1051 q 741 1186 868 1157 q 423 1218 615 1216 l 338 733 m 695 1410 q 678 1427 684 1417 q 685 1459 673 1438 l 792 1645 q 831 1676 810 1675 q 865 1667 852 1677 q 880 1634 881 1652 q 867 1600 879 1617 l 739 1422 q 716 1405 726 1405 q 695 1410 705 1404 z "},"Ř":{"ha":971,"x_min":131,"x_max":1074,"o":"m 169 0 q 139 16 147 0 q 135 55 131 31 l 344 1243 q 358 1278 349 1267 q 397 1290 368 1290 q 769 1256 616 1290 q 998 1152 923 1222 q 1059 971 1074 1081 q 994 820 1047 879 q 855 727 941 761 q 657 679 769 694 q 414 660 544 664 l 872 81 q 894 38 891 57 q 888 8 897 19 q 860 -3 878 -3 q 839 3 851 -3 q 812 30 827 10 l 322 647 l 217 55 q 206 16 214 32 q 169 0 197 0 m 338 733 q 573 744 461 734 q 772 781 684 755 q 914 855 860 808 q 978 978 969 903 q 928 1104 988 1051 q 741 1186 868 1157 q 423 1218 615 1216 l 338 733 m 706 1433 q 690 1439 700 1433 q 674 1457 680 1446 l 595 1640 q 589 1684 582 1668 q 610 1705 597 1701 q 644 1703 629 1710 q 663 1678 658 1696 l 717 1523 l 809 1676 q 844 1705 825 1703 q 875 1696 863 1706 q 889 1667 889 1683 q 878 1635 888 1651 l 751 1454 q 728 1435 740 1437 q 706 1433 717 1433 z "},"Ŗ":{"ha":971,"x_min":131,"x_max":1074,"o":"m 169 0 q 139 16 147 0 q 135 55 131 31 l 344 1243 q 358 1278 349 1267 q 397 1290 368 1290 q 769 1256 616 1290 q 998 1152 923 1222 q 1059 971 1074 1081 q 994 820 1047 879 q 855 727 941 761 q 657 679 769 694 q 414 660 544 664 l 872 81 q 894 38 891 57 q 888 8 897 19 q 860 -3 878 -3 q 839 3 851 -3 q 812 30 827 10 l 322 647 l 217 55 q 206 16 214 32 q 169 0 197 0 m 338 733 q 573 744 461 734 q 772 781 684 755 q 914 855 860 808 q 978 978 969 903 q 928 1104 988 1051 q 741 1186 868 1157 q 423 1218 615 1216 l 338 733 m 384 -404 q 353 -390 364 -402 q 349 -353 343 -378 l 404 -116 q 423 -84 410 -92 q 458 -78 437 -76 q 491 -91 479 -81 q 497 -126 503 -102 l 439 -365 q 419 -398 433 -389 q 384 -404 404 -406 z "},"S":{"ha":881,"x_min":69,"x_max":914,"o":"m 352 -3 q 160 40 233 -3 q 72 167 86 83 q 76 195 69 180 q 102 217 83 211 q 131 215 118 221 q 148 193 144 210 q 211 102 162 133 q 352 71 260 71 q 535 107 458 71 q 654 211 612 144 q 696 371 696 278 q 675 468 696 421 q 605 565 653 515 q 475 673 556 615 q 375 747 422 712 q 294 818 328 782 q 240 895 259 854 q 220 988 220 937 q 333 1211 220 1130 q 644 1293 445 1293 q 832 1255 770 1293 q 912 1124 894 1217 q 911 1095 914 1109 q 892 1077 909 1082 q 856 1077 875 1074 q 835 1097 837 1081 q 811 1164 829 1136 q 754 1206 794 1192 q 642 1221 715 1221 q 392 1160 485 1221 q 299 993 299 1099 q 330 902 299 944 q 415 818 360 860 q 545 724 470 776 q 669 619 617 674 q 750 505 722 564 q 778 384 778 447 q 749 222 778 294 q 665 100 720 150 q 531 23 610 49 q 352 -3 451 -3 z "},"Ś":{"ha":881,"x_min":69,"x_max":914,"o":"m 352 -3 q 160 40 233 -3 q 72 167 86 83 q 76 195 69 180 q 102 217 83 211 q 131 215 118 221 q 148 193 144 210 q 211 102 162 133 q 352 71 260 71 q 535 107 458 71 q 654 211 612 144 q 696 371 696 278 q 675 468 696 421 q 605 565 653 515 q 475 673 556 615 q 375 747 422 712 q 294 818 328 782 q 240 895 259 854 q 220 988 220 937 q 333 1211 220 1130 q 644 1293 445 1293 q 832 1255 770 1293 q 912 1124 894 1217 q 911 1095 914 1109 q 892 1077 909 1082 q 856 1077 875 1074 q 835 1097 837 1081 q 811 1164 829 1136 q 754 1206 794 1192 q 642 1221 715 1221 q 392 1160 485 1221 q 299 993 299 1099 q 330 902 299 944 q 415 818 360 860 q 545 724 470 776 q 669 619 617 674 q 750 505 722 564 q 778 384 778 447 q 749 222 778 294 q 665 100 720 150 q 531 23 610 49 q 352 -3 451 -3 m 616 1410 q 599 1427 605 1417 q 606 1459 594 1438 l 713 1645 q 752 1676 731 1675 q 785 1667 773 1677 q 801 1634 801 1652 q 788 1600 800 1617 l 660 1422 q 636 1405 647 1405 q 616 1410 626 1404 z "},"Š":{"ha":881,"x_min":69,"x_max":914,"o":"m 352 -3 q 160 40 233 -3 q 72 167 86 83 q 76 195 69 180 q 102 217 83 211 q 131 215 118 221 q 148 193 144 210 q 211 102 162 133 q 352 71 260 71 q 535 107 458 71 q 654 211 612 144 q 696 371 696 278 q 675 468 696 421 q 605 565 653 515 q 475 673 556 615 q 375 747 422 712 q 294 818 328 782 q 240 895 259 854 q 220 988 220 937 q 333 1211 220 1130 q 644 1293 445 1293 q 832 1255 770 1293 q 912 1124 894 1217 q 911 1095 914 1109 q 892 1077 909 1082 q 856 1077 875 1074 q 835 1097 837 1081 q 811 1164 829 1136 q 754 1206 794 1192 q 642 1221 715 1221 q 392 1160 485 1221 q 299 993 299 1099 q 330 902 299 944 q 415 818 360 860 q 545 724 470 776 q 669 619 617 674 q 750 505 722 564 q 778 384 778 447 q 749 222 778 294 q 665 100 720 150 q 531 23 610 49 q 352 -3 451 -3 m 627 1433 q 611 1439 621 1433 q 595 1457 601 1446 l 516 1640 q 510 1684 503 1668 q 531 1705 517 1701 q 565 1703 550 1710 q 584 1678 579 1696 l 638 1523 l 730 1676 q 765 1705 746 1703 q 796 1696 784 1706 q 809 1667 810 1683 q 799 1635 809 1651 l 672 1454 q 649 1435 660 1437 q 627 1433 638 1433 z "},"Ş":{"ha":881,"x_min":69,"x_max":914,"o":"m 352 -3 q 160 40 233 -3 q 72 167 86 83 q 76 195 69 180 q 102 217 83 211 q 131 215 118 221 q 148 193 144 210 q 211 102 162 133 q 352 71 260 71 q 535 107 458 71 q 654 211 612 144 q 696 371 696 278 q 675 468 696 421 q 605 565 653 515 q 475 673 556 615 q 375 747 422 712 q 294 818 328 782 q 240 895 259 854 q 220 988 220 937 q 333 1211 220 1130 q 644 1293 445 1293 q 832 1255 770 1293 q 912 1124 894 1217 q 911 1095 914 1109 q 892 1077 909 1082 q 856 1077 875 1074 q 835 1097 837 1081 q 811 1164 829 1136 q 754 1206 794 1192 q 642 1221 715 1221 q 392 1160 485 1221 q 299 993 299 1099 q 330 902 299 944 q 415 818 360 860 q 545 724 470 776 q 669 619 617 674 q 750 505 722 564 q 778 384 778 447 q 749 222 778 294 q 665 100 720 150 q 531 23 610 49 q 352 -3 451 -3 m 410 -485 q 342 -478 373 -485 q 293 -460 312 -472 q 275 -432 275 -449 q 290 -400 275 -408 q 329 -397 306 -392 q 368 -405 349 -400 q 410 -410 388 -410 q 501 -373 474 -410 q 528 -283 528 -335 q 514 -210 528 -244 q 468 -137 499 -176 q 408 -67 446 -108 q 342 6 371 -26 q 338 42 328 22 q 367 63 347 63 q 385 63 377 63 q 404 48 393 63 q 436 8 415 33 q 480 -42 457 -17 q 517 -85 502 -67 q 559 -139 538 -108 q 594 -207 580 -170 q 608 -285 608 -244 q 586 -381 608 -335 q 521 -456 565 -426 q 410 -485 477 -485 z "},"Ș":{"ha":881,"x_min":69,"x_max":914,"o":"m 352 -3 q 160 40 233 -3 q 72 167 86 83 q 76 195 69 180 q 102 217 83 211 q 131 215 118 221 q 148 193 144 210 q 211 102 162 133 q 352 71 260 71 q 535 107 458 71 q 654 211 612 144 q 696 371 696 278 q 675 468 696 421 q 605 565 653 515 q 475 673 556 615 q 375 747 422 712 q 294 818 328 782 q 240 895 259 854 q 220 988 220 937 q 333 1211 220 1130 q 644 1293 445 1293 q 832 1255 770 1293 q 912 1124 894 1217 q 911 1095 914 1109 q 892 1077 909 1082 q 856 1077 875 1074 q 835 1097 837 1081 q 811 1164 829 1136 q 754 1206 794 1192 q 642 1221 715 1221 q 392 1160 485 1221 q 299 993 299 1099 q 330 902 299 944 q 415 818 360 860 q 545 724 470 776 q 669 619 617 674 q 750 505 722 564 q 778 384 778 447 q 749 222 778 294 q 665 100 720 150 q 531 23 610 49 q 352 -3 451 -3 m 298 -397 q 267 -383 278 -395 q 263 -346 257 -372 l 318 -109 q 337 -77 324 -85 q 372 -72 351 -69 q 405 -84 393 -74 q 411 -119 417 -95 l 353 -358 q 333 -391 347 -382 q 298 -397 318 -399 z "},"ẞ":{"ha":1171,"x_min":131,"x_max":1206,"o":"m 174 -7 q 139 5 147 -7 q 134 31 131 17 l 350 1248 q 368 1279 353 1268 q 410 1290 382 1290 l 1161 1290 q 1184 1284 1174 1290 q 1200 1266 1194 1279 q 1203 1242 1206 1254 q 1192 1217 1201 1229 l 838 761 q 955 700 899 733 q 1052 623 1010 667 q 1114 519 1094 579 q 1125 376 1135 458 q 1086 240 1117 301 q 1006 134 1055 180 q 892 59 956 89 q 753 14 828 28 q 595 -1 678 -1 l 463 0 q 445 3 455 0 q 430 15 436 7 q 424 37 424 23 q 436 69 424 57 q 462 82 449 82 l 594 82 q 741 98 668 82 q 876 147 814 113 q 982 234 939 181 q 1038 364 1024 288 q 1032 483 1049 432 q 983 571 1015 535 q 914 631 951 607 q 848 666 877 654 q 810 682 819 678 q 767 709 783 692 q 749 747 750 726 q 766 794 747 769 l 1095 1210 l 431 1210 l 223 33 q 209 4 220 15 q 174 -7 198 -7 z "},"T":{"ha":848,"x_min":181,"x_max":1049,"o":"m 410 0 q 377 11 385 0 q 373 43 369 22 l 577 1218 l 224 1218 q 190 1228 198 1218 q 181 1254 181 1238 q 190 1280 181 1270 q 224 1290 198 1290 l 1008 1290 q 1041 1280 1033 1290 q 1049 1254 1049 1270 q 1041 1228 1049 1238 q 1008 1218 1033 1218 l 659 1218 l 453 43 q 444 14 451 28 q 410 0 436 0 z "},"Ť":{"ha":848,"x_min":181,"x_max":1049,"o":"m 410 0 q 377 11 385 0 q 373 43 369 22 l 577 1218 l 224 1218 q 190 1228 198 1218 q 181 1254 181 1238 q 190 1280 181 1270 q 224 1290 198 1290 l 1008 1290 q 1041 1280 1033 1290 q 1049 1254 1049 1270 q 1041 1228 1049 1238 q 1008 1218 1033 1218 l 659 1218 l 453 43 q 444 14 451 28 q 410 0 436 0 m 664 1433 q 648 1439 658 1433 q 632 1457 638 1446 l 553 1640 q 547 1684 540 1668 q 568 1705 554 1701 q 601 1703 587 1710 q 621 1678 616 1696 l 675 1523 l 767 1676 q 802 1705 783 1703 q 833 1696 821 1706 q 846 1667 847 1683 q 835 1635 846 1651 l 709 1454 q 686 1435 697 1437 q 664 1433 674 1433 z "},"Ţ":{"ha":848,"x_min":181,"x_max":1049,"o":"m 410 0 q 377 11 385 0 q 373 43 369 22 l 577 1218 l 224 1218 q 190 1228 198 1218 q 181 1254 181 1238 q 190 1280 181 1270 q 224 1290 198 1290 l 1008 1290 q 1041 1280 1033 1290 q 1049 1254 1049 1270 q 1041 1228 1049 1238 q 1008 1218 1033 1218 l 659 1218 l 453 43 q 444 14 451 28 q 410 0 436 0 m 485 -492 q 418 -485 449 -492 q 369 -467 388 -479 q 351 -439 351 -456 q 366 -407 351 -415 q 405 -403 381 -399 q 444 -412 425 -407 q 485 -417 463 -417 q 577 -380 549 -417 q 604 -290 604 -342 q 589 -217 604 -251 q 544 -144 574 -183 q 484 -74 522 -115 q 418 -1 447 -33 q 414 35 404 15 q 443 56 423 56 q 461 56 453 56 q 480 41 469 56 q 512 1 491 26 q 555 -49 533 -24 q 593 -92 578 -74 q 634 -146 613 -115 q 670 -214 656 -177 q 684 -292 684 -251 q 662 -387 684 -342 q 597 -462 640 -433 q 485 -492 553 -492 z "},"Ț":{"ha":848,"x_min":181,"x_max":1049,"o":"m 410 0 q 377 11 385 0 q 373 43 369 22 l 577 1218 l 224 1218 q 190 1228 198 1218 q 181 1254 181 1238 q 190 1280 181 1270 q 224 1290 198 1290 l 1008 1290 q 1041 1280 1033 1290 q 1049 1254 1049 1270 q 1041 1228 1049 1238 q 1008 1218 1033 1218 l 659 1218 l 453 43 q 444 14 451 28 q 410 0 436 0 m 374 -404 q 343 -390 353 -402 q 338 -353 333 -378 l 394 -116 q 413 -84 399 -92 q 448 -78 426 -76 q 481 -91 469 -81 q 487 -126 492 -102 l 428 -365 q 408 -398 423 -389 q 374 -404 394 -406 z "},"U":{"ha":1072,"x_min":115,"x_max":1074,"o":"m 274 -12 q 152 73 189 -12 q 149 355 115 159 l 305 1238 q 314 1265 308 1253 q 332 1283 321 1276 q 356 1290 342 1290 q 384 1277 376 1289 q 390 1245 393 1265 l 233 354 q 217 253 224 305 q 213 159 210 202 q 233 89 215 115 q 290 62 251 62 q 454 134 367 62 q 631 338 542 207 q 801 645 719 469 q 946 1028 882 821 l 985 1250 q 998 1278 988 1267 q 1032 1290 1008 1290 q 1066 1279 1058 1290 q 1070 1249 1074 1269 l 857 39 q 841 9 854 19 q 813 0 828 0 q 781 11 793 0 q 772 45 768 22 l 886 690 q 686 296 793 452 q 473 64 579 140 q 274 -12 366 -12 z "},"Ú":{"ha":1072,"x_min":115,"x_max":1074,"o":"m 274 -12 q 152 73 189 -12 q 149 355 115 159 l 305 1238 q 314 1265 308 1253 q 332 1283 321 1276 q 356 1290 342 1290 q 384 1277 376 1289 q 390 1245 393 1265 l 233 354 q 217 253 224 305 q 213 159 210 202 q 233 89 215 115 q 290 62 251 62 q 454 134 367 62 q 631 338 542 207 q 801 645 719 469 q 946 1028 882 821 l 985 1250 q 998 1278 988 1267 q 1032 1290 1008 1290 q 1066 1279 1058 1290 q 1070 1249 1074 1269 l 857 39 q 841 9 854 19 q 813 0 828 0 q 781 11 793 0 q 772 45 768 22 l 886 690 q 686 296 793 452 q 473 64 579 140 q 274 -12 366 -12 m 706 1410 q 689 1427 694 1417 q 696 1459 683 1438 l 803 1645 q 841 1676 820 1675 q 875 1667 863 1677 q 890 1634 891 1652 q 878 1600 890 1617 l 749 1422 q 726 1405 737 1405 q 706 1410 715 1404 z "},"Ŭ":{"ha":1072,"x_min":115,"x_max":1074,"o":"m 274 -12 q 152 73 189 -12 q 149 355 115 159 l 305 1238 q 314 1265 308 1253 q 332 1283 321 1276 q 356 1290 342 1290 q 384 1277 376 1289 q 390 1245 393 1265 l 233 354 q 217 253 224 305 q 213 159 210 202 q 233 89 215 115 q 290 62 251 62 q 454 134 367 62 q 631 338 542 207 q 801 645 719 469 q 946 1028 882 821 l 985 1250 q 998 1278 988 1267 q 1032 1290 1008 1290 q 1066 1279 1058 1290 q 1070 1249 1074 1269 l 857 39 q 841 9 854 19 q 813 0 828 0 q 781 11 793 0 q 772 45 768 22 l 886 690 q 686 296 793 452 q 473 64 579 140 q 274 -12 366 -12 m 717 1431 q 639 1451 668 1431 q 595 1501 609 1470 q 578 1565 581 1531 q 578 1627 575 1599 q 593 1664 582 1655 q 619 1674 604 1674 q 650 1667 640 1674 q 658 1640 660 1660 q 661 1541 650 1569 q 692 1506 672 1512 q 727 1501 711 1501 q 765 1510 744 1501 q 802 1549 785 1519 q 826 1639 819 1578 q 843 1668 828 1660 q 874 1675 857 1675 q 905 1659 898 1675 q 909 1622 912 1642 q 895 1571 906 1603 q 862 1507 884 1539 q 804 1453 840 1475 q 717 1431 769 1431 z "},"Û":{"ha":1072,"x_min":115,"x_max":1074,"o":"m 274 -12 q 152 73 189 -12 q 149 355 115 159 l 305 1238 q 314 1265 308 1253 q 332 1283 321 1276 q 356 1290 342 1290 q 384 1277 376 1289 q 390 1245 393 1265 l 233 354 q 217 253 224 305 q 213 159 210 202 q 233 89 215 115 q 290 62 251 62 q 454 134 367 62 q 631 338 542 207 q 801 645 719 469 q 946 1028 882 821 l 985 1250 q 998 1278 988 1267 q 1032 1290 1008 1290 q 1066 1279 1058 1290 q 1070 1249 1074 1269 l 857 39 q 841 9 854 19 q 813 0 828 0 q 781 11 793 0 q 772 45 768 22 l 886 690 q 686 296 793 452 q 473 64 579 140 q 274 -12 366 -12 m 850 1390 q 815 1391 831 1383 q 794 1418 799 1399 l 745 1574 l 651 1420 q 616 1392 635 1393 q 585 1401 597 1391 q 571 1430 570 1414 q 582 1461 572 1447 l 711 1642 q 734 1662 723 1660 q 756 1664 746 1664 q 773 1658 763 1664 q 788 1640 783 1651 l 867 1460 q 873 1412 881 1429 q 850 1390 866 1394 z "},"Ü":{"ha":1072,"x_min":115,"x_max":1074,"o":"m 274 -12 q 152 73 189 -12 q 149 355 115 159 l 305 1238 q 314 1265 308 1253 q 332 1283 321 1276 q 356 1290 342 1290 q 384 1277 376 1289 q 390 1245 393 1265 l 233 354 q 217 253 224 305 q 213 159 210 202 q 233 89 215 115 q 290 62 251 62 q 454 134 367 62 q 631 338 542 207 q 801 645 719 469 q 946 1028 882 821 l 985 1250 q 998 1278 988 1267 q 1032 1290 1008 1290 q 1066 1279 1058 1290 q 1070 1249 1074 1269 l 857 39 q 841 9 854 19 q 813 0 828 0 q 781 11 793 0 q 772 45 768 22 l 886 690 q 686 296 793 452 q 473 64 579 140 q 274 -12 366 -12 m 851 1454 q 814 1471 828 1454 q 799 1512 799 1488 q 813 1551 799 1534 q 851 1568 827 1568 q 890 1553 874 1568 q 906 1512 906 1538 q 890 1471 906 1488 q 851 1454 874 1454 m 588 1455 q 552 1472 566 1455 q 538 1512 538 1488 q 551 1551 538 1534 q 588 1567 565 1567 q 626 1552 610 1567 q 642 1512 642 1537 q 627 1472 642 1488 q 588 1455 612 1455 z "},"Ù":{"ha":1072,"x_min":115,"x_max":1074,"o":"m 274 -12 q 152 73 189 -12 q 149 355 115 159 l 305 1238 q 314 1265 308 1253 q 332 1283 321 1276 q 356 1290 342 1290 q 384 1277 376 1289 q 390 1245 393 1265 l 233 354 q 217 253 224 305 q 213 159 210 202 q 233 89 215 115 q 290 62 251 62 q 454 134 367 62 q 631 338 542 207 q 801 645 719 469 q 946 1028 882 821 l 985 1250 q 998 1278 988 1267 q 1032 1290 1008 1290 q 1066 1279 1058 1290 q 1070 1249 1074 1269 l 857 39 q 841 9 854 19 q 813 0 828 0 q 781 11 793 0 q 772 45 768 22 l 886 690 q 686 296 793 452 q 473 64 579 140 q 274 -12 366 -12 m 750 1409 q 727 1403 739 1403 q 703 1425 715 1403 l 607 1603 q 600 1653 591 1634 q 624 1677 608 1672 q 660 1674 645 1683 q 683 1647 676 1665 l 762 1453 q 765 1424 769 1433 q 750 1409 760 1415 z "},"Ű":{"ha":1072,"x_min":115,"x_max":1074,"o":"m 274 -12 q 152 73 189 -12 q 149 355 115 159 l 305 1238 q 314 1265 308 1253 q 332 1283 321 1276 q 356 1290 342 1290 q 384 1277 376 1289 q 390 1245 393 1265 l 233 354 q 217 253 224 305 q 213 159 210 202 q 233 89 215 115 q 290 62 251 62 q 454 134 367 62 q 631 338 542 207 q 801 645 719 469 q 946 1028 882 821 l 985 1250 q 998 1278 988 1267 q 1032 1290 1008 1290 q 1066 1279 1058 1290 q 1070 1249 1074 1269 l 857 39 q 841 9 854 19 q 813 0 828 0 q 781 11 793 0 q 772 45 768 22 l 886 690 q 686 296 793 452 q 473 64 579 140 q 274 -12 366 -12 m 794 1434 q 777 1452 783 1442 q 783 1483 772 1462 l 890 1669 q 929 1701 908 1700 q 963 1692 950 1702 q 978 1659 978 1676 q 965 1625 977 1641 l 837 1447 q 814 1429 825 1430 q 794 1434 803 1428 m 607 1434 q 590 1451 595 1442 q 596 1483 585 1460 l 683 1669 q 720 1702 697 1701 q 755 1691 742 1702 q 769 1659 771 1676 q 758 1625 768 1642 l 649 1447 q 627 1428 638 1428 q 607 1434 616 1428 z "},"Ū":{"ha":1072,"x_min":115,"x_max":1074,"o":"m 274 -12 q 152 73 189 -12 q 149 355 115 159 l 305 1238 q 314 1265 308 1253 q 332 1283 321 1276 q 356 1290 342 1290 q 384 1277 376 1289 q 390 1245 393 1265 l 233 354 q 217 253 224 305 q 213 159 210 202 q 233 89 215 115 q 290 62 251 62 q 454 134 367 62 q 631 338 542 207 q 801 645 719 469 q 946 1028 882 821 l 985 1250 q 998 1278 988 1267 q 1032 1290 1008 1290 q 1066 1279 1058 1290 q 1070 1249 1074 1269 l 857 39 q 841 9 854 19 q 813 0 828 0 q 781 11 793 0 q 772 45 768 22 l 886 690 q 686 296 793 452 q 473 64 579 140 q 274 -12 366 -12 m 581 1444 q 545 1455 555 1444 q 535 1481 535 1465 q 545 1506 535 1496 q 581 1517 555 1517 l 877 1517 q 913 1506 902 1517 q 923 1481 923 1496 q 912 1455 923 1466 q 877 1444 901 1444 l 581 1444 z "},"Ų":{"ha":1072,"x_min":115,"x_max":1074,"o":"m 274 -12 q 152 73 189 -12 q 149 355 115 159 l 305 1238 q 314 1265 308 1253 q 332 1283 321 1276 q 356 1290 342 1290 q 384 1277 376 1289 q 390 1245 393 1265 l 233 354 q 217 253 224 305 q 213 159 210 202 q 233 89 215 115 q 290 62 251 62 q 454 134 367 62 q 631 338 542 207 q 801 645 719 469 q 946 1028 882 821 l 985 1250 q 998 1278 988 1267 q 1032 1290 1008 1290 q 1066 1279 1058 1290 q 1070 1249 1074 1269 l 857 39 q 841 9 854 19 q 813 0 828 0 q 781 11 793 0 q 772 45 768 22 l 886 690 q 686 296 793 452 q 473 64 579 140 q 274 -12 366 -12 m 778 -433 q 666 -406 708 -433 q 606 -335 624 -378 q 588 -242 588 -291 q 614 -139 588 -185 q 672 -58 641 -93 q 722 -3 694 -32 q 776 48 749 26 q 798 61 792 60 q 813 63 803 63 q 837 53 826 63 q 850 32 848 44 q 842 10 853 19 q 776 -54 803 -22 q 715 -124 748 -85 q 684 -175 700 -142 q 667 -241 667 -207 q 693 -325 667 -291 q 774 -358 719 -358 l 822 -358 q 861 -364 846 -358 q 876 -394 876 -369 q 860 -426 876 -419 q 822 -433 844 -433 l 778 -433 z "},"Ů":{"ha":1072,"x_min":115,"x_max":1074,"o":"m 274 -12 q 152 73 189 -12 q 149 355 115 159 l 305 1238 q 314 1265 308 1253 q 332 1283 321 1276 q 356 1290 342 1290 q 384 1277 376 1289 q 390 1245 393 1265 l 233 354 q 217 253 224 305 q 213 159 210 202 q 233 89 215 115 q 290 62 251 62 q 454 134 367 62 q 631 338 542 207 q 801 645 719 469 q 946 1028 882 821 l 985 1250 q 998 1278 988 1267 q 1032 1290 1008 1290 q 1066 1279 1058 1290 q 1070 1249 1074 1269 l 857 39 q 841 9 854 19 q 813 0 828 0 q 781 11 793 0 q 772 45 768 22 l 886 690 q 686 296 793 452 q 473 64 579 140 q 274 -12 366 -12 m 707 1433 q 639 1447 669 1433 q 590 1489 608 1461 q 572 1556 572 1516 q 590 1652 572 1605 q 642 1739 608 1700 q 724 1800 676 1777 q 831 1824 772 1824 q 942 1793 902 1824 q 983 1703 983 1763 q 963 1615 983 1661 q 907 1527 944 1568 q 820 1459 871 1485 q 707 1433 769 1433 m 728 1501 q 816 1533 776 1501 q 881 1608 856 1565 q 906 1688 906 1652 q 884 1738 906 1717 q 831 1758 862 1758 q 730 1729 771 1758 q 669 1658 690 1699 q 648 1581 648 1617 q 654 1533 648 1551 q 678 1509 660 1516 q 728 1501 695 1501 z "},"Ũ":{"ha":1072,"x_min":115,"x_max":1074,"o":"m 274 -12 q 152 73 189 -12 q 149 355 115 159 l 305 1238 q 314 1265 308 1253 q 332 1283 321 1276 q 356 1290 342 1290 q 384 1277 376 1289 q 390 1245 393 1265 l 233 354 q 217 253 224 305 q 213 159 210 202 q 233 89 215 115 q 290 62 251 62 q 454 134 367 62 q 631 338 542 207 q 801 645 719 469 q 946 1028 882 821 l 985 1250 q 998 1278 988 1267 q 1032 1290 1008 1290 q 1066 1279 1058 1290 q 1070 1249 1074 1269 l 857 39 q 841 9 854 19 q 813 0 828 0 q 781 11 793 0 q 772 45 768 22 l 886 690 q 686 296 793 452 q 473 64 579 140 q 274 -12 366 -12 m 807 1424 q 768 1435 789 1424 q 725 1463 747 1447 q 682 1491 703 1479 q 642 1503 660 1503 q 597 1491 615 1503 q 556 1461 578 1478 q 537 1456 547 1454 q 519 1464 527 1457 q 506 1482 510 1472 q 501 1504 501 1493 q 508 1525 501 1516 q 541 1546 515 1535 q 592 1565 565 1558 q 651 1572 619 1572 q 694 1560 672 1572 q 739 1532 717 1548 q 782 1505 761 1517 q 819 1492 802 1492 q 873 1507 853 1492 q 919 1538 892 1521 q 947 1542 933 1548 q 969 1524 960 1536 q 978 1502 978 1512 q 967 1482 978 1490 q 932 1461 957 1474 q 877 1436 906 1449 q 807 1424 848 1424 z "},"V":{"ha":706,"x_min":160,"x_max":931,"o":"m 272 -3 q 240 12 251 -3 q 227 44 230 27 l 161 1250 q 168 1282 160 1272 q 197 1293 175 1293 q 235 1281 226 1293 q 244 1255 244 1269 l 296 145 l 830 1249 q 855 1283 842 1274 q 893 1293 867 1293 q 922 1281 913 1293 q 918 1242 931 1269 l 325 42 q 306 9 315 21 q 272 -3 297 -3 z "},"W":{"ha":1390,"x_min":153,"x_max":1610,"o":"m 269 -3 q 234 9 246 -3 q 221 44 223 22 l 155 1250 q 161 1282 153 1272 q 191 1293 168 1293 q 228 1281 220 1293 q 237 1255 237 1269 l 292 148 l 824 1251 q 842 1277 828 1260 q 876 1293 856 1293 q 916 1281 906 1293 q 927 1254 925 1268 l 983 154 l 1513 1249 q 1538 1283 1525 1272 q 1569 1293 1551 1293 q 1597 1288 1586 1293 q 1609 1271 1607 1282 q 1602 1242 1610 1260 l 1010 42 q 987 8 999 19 q 959 -3 975 -3 q 926 3 935 -3 q 916 27 917 10 l 859 1155 l 322 44 q 302 12 315 28 q 269 -3 290 -3 z "},"Ẃ":{"ha":1390,"x_min":153,"x_max":1610,"o":"m 269 -3 q 234 9 246 -3 q 221 44 223 22 l 155 1250 q 161 1282 153 1272 q 191 1293 168 1293 q 228 1281 220 1293 q 237 1255 237 1269 l 292 148 l 824 1251 q 842 1277 828 1260 q 876 1293 856 1293 q 916 1281 906 1293 q 927 1254 925 1268 l 983 154 l 1513 1249 q 1538 1283 1525 1272 q 1569 1293 1551 1293 q 1597 1288 1586 1293 q 1609 1271 1607 1282 q 1602 1242 1610 1260 l 1010 42 q 987 8 999 19 q 959 -3 975 -3 q 926 3 935 -3 q 916 27 917 10 l 859 1155 l 322 44 q 302 12 315 28 q 269 -3 290 -3 m 871 1410 q 854 1427 860 1417 q 861 1459 849 1438 l 968 1645 q 1007 1676 985 1675 q 1040 1667 1028 1677 q 1056 1634 1056 1652 q 1043 1600 1055 1617 l 915 1422 q 891 1405 902 1405 q 871 1410 881 1404 z "},"Ŵ":{"ha":1390,"x_min":153,"x_max":1610,"o":"m 269 -3 q 234 9 246 -3 q 221 44 223 22 l 155 1250 q 161 1282 153 1272 q 191 1293 168 1293 q 228 1281 220 1293 q 237 1255 237 1269 l 292 148 l 824 1251 q 842 1277 828 1260 q 876 1293 856 1293 q 916 1281 906 1293 q 927 1254 925 1268 l 983 154 l 1513 1249 q 1538 1283 1525 1272 q 1569 1293 1551 1293 q 1597 1288 1586 1293 q 1609 1271 1607 1282 q 1602 1242 1610 1260 l 1010 42 q 987 8 999 19 q 959 -3 975 -3 q 926 3 935 -3 q 916 27 917 10 l 859 1155 l 322 44 q 302 12 315 28 q 269 -3 290 -3 m 1015 1390 q 980 1391 996 1383 q 959 1418 965 1399 l 910 1574 l 817 1420 q 781 1392 800 1393 q 750 1401 762 1391 q 736 1430 735 1414 q 747 1461 737 1447 l 876 1642 q 900 1662 888 1660 q 922 1664 911 1664 q 938 1658 928 1664 q 953 1640 949 1651 l 1032 1460 q 1039 1412 1046 1429 q 1015 1390 1031 1394 z "},"Ẅ":{"ha":1390,"x_min":153,"x_max":1610,"o":"m 269 -3 q 234 9 246 -3 q 221 44 223 22 l 155 1250 q 161 1282 153 1272 q 191 1293 168 1293 q 228 1281 220 1293 q 237 1255 237 1269 l 292 148 l 824 1251 q 842 1277 828 1260 q 876 1293 856 1293 q 916 1281 906 1293 q 927 1254 925 1268 l 983 154 l 1513 1249 q 1538 1283 1525 1272 q 1569 1293 1551 1293 q 1597 1288 1586 1293 q 1609 1271 1607 1282 q 1602 1242 1610 1260 l 1010 42 q 987 8 999 19 q 959 -3 975 -3 q 926 3 935 -3 q 916 27 917 10 l 859 1155 l 322 44 q 302 12 315 28 q 269 -3 290 -3 m 1016 1454 q 979 1471 994 1454 q 965 1512 965 1488 q 978 1551 965 1534 q 1016 1568 992 1568 q 1055 1553 1039 1568 q 1071 1512 1071 1538 q 1055 1471 1071 1488 q 1016 1454 1040 1454 m 753 1455 q 717 1472 731 1455 q 703 1512 703 1488 q 717 1551 703 1534 q 753 1567 731 1567 q 792 1552 776 1567 q 808 1512 808 1537 q 792 1472 808 1488 q 753 1455 777 1455 z "},"Ẁ":{"ha":1390,"x_min":153,"x_max":1610,"o":"m 269 -3 q 234 9 246 -3 q 221 44 223 22 l 155 1250 q 161 1282 153 1272 q 191 1293 168 1293 q 228 1281 220 1293 q 237 1255 237 1269 l 292 148 l 824 1251 q 842 1277 828 1260 q 876 1293 856 1293 q 916 1281 906 1293 q 927 1254 925 1268 l 983 154 l 1513 1249 q 1538 1283 1525 1272 q 1569 1293 1551 1293 q 1597 1288 1586 1293 q 1609 1271 1607 1282 q 1602 1242 1610 1260 l 1010 42 q 987 8 999 19 q 959 -3 975 -3 q 926 3 935 -3 q 916 27 917 10 l 859 1155 l 322 44 q 302 12 315 28 q 269 -3 290 -3 m 915 1409 q 892 1403 904 1403 q 869 1425 881 1403 l 772 1603 q 765 1653 756 1634 q 790 1677 774 1672 q 826 1674 810 1683 q 848 1647 841 1665 l 927 1453 q 930 1424 935 1433 q 915 1409 926 1415 z "},"X":{"ha":765,"x_min":-55,"x_max":922,"o":"m 690 3 q 665 -3 678 -3 q 640 5 651 -3 q 623 30 629 13 l 424 561 l 28 15 q 6 -2 19 2 q -19 -4 -6 -7 q -41 6 -31 -1 q -53 29 -52 15 q -43 58 -55 42 l 390 652 l 173 1231 q 188 1292 153 1281 q 220 1293 203 1299 q 247 1263 238 1287 l 447 731 l 842 1272 q 876 1294 856 1292 q 909 1285 896 1296 q 921 1261 919 1276 q 907 1226 922 1246 l 482 639 l 701 56 q 706 22 709 35 q 690 3 702 9 z "},"Y":{"ha":706,"x_min":161,"x_max":924,"o":"m 327 -3 q 297 8 305 -3 q 291 40 288 20 l 397 642 l 169 1231 q 163 1250 165 1244 q 161 1263 161 1255 q 172 1284 161 1274 q 198 1293 183 1293 q 230 1284 218 1293 q 247 1258 241 1275 l 450 731 l 842 1272 q 862 1289 851 1285 q 886 1293 872 1293 q 905 1289 896 1293 q 919 1277 913 1284 q 924 1260 924 1269 q 909 1225 924 1248 l 482 644 l 376 40 q 364 11 372 25 q 327 -3 356 -3 z "},"Ý":{"ha":706,"x_min":161,"x_max":924,"o":"m 327 -3 q 297 8 305 -3 q 291 40 288 20 l 397 642 l 169 1231 q 163 1250 165 1244 q 161 1263 161 1255 q 172 1284 161 1274 q 198 1293 183 1293 q 230 1284 218 1293 q 247 1258 241 1275 l 450 731 l 842 1272 q 862 1289 851 1285 q 886 1293 872 1293 q 905 1289 896 1293 q 919 1277 913 1284 q 924 1260 924 1269 q 909 1225 924 1248 l 482 644 l 376 40 q 364 11 372 25 q 327 -3 356 -3 m 529 1410 q 513 1427 518 1417 q 519 1459 507 1438 l 626 1645 q 665 1676 644 1675 q 699 1667 686 1677 q 714 1634 715 1652 q 701 1600 713 1617 l 573 1422 q 550 1405 560 1405 q 529 1410 539 1404 z "},"Ŷ":{"ha":706,"x_min":161,"x_max":924,"o":"m 327 -3 q 297 8 305 -3 q 291 40 288 20 l 397 642 l 169 1231 q 163 1250 165 1244 q 161 1263 161 1255 q 172 1284 161 1274 q 198 1293 183 1293 q 230 1284 218 1293 q 247 1258 241 1275 l 450 731 l 842 1272 q 862 1289 851 1285 q 886 1293 872 1293 q 905 1289 896 1293 q 919 1277 913 1284 q 924 1260 924 1269 q 909 1225 924 1248 l 482 644 l 376 40 q 364 11 372 25 q 327 -3 356 -3 m 674 1390 q 639 1391 654 1383 q 617 1418 623 1399 l 569 1574 l 475 1420 q 439 1392 458 1393 q 408 1401 420 1391 q 394 1430 394 1414 q 406 1461 395 1447 l 535 1642 q 558 1662 547 1660 q 580 1664 569 1664 q 597 1658 586 1664 q 612 1640 607 1651 l 690 1460 q 697 1412 704 1429 q 674 1390 690 1394 z "},"Ÿ":{"ha":706,"x_min":161,"x_max":924,"o":"m 327 -3 q 297 8 305 -3 q 291 40 288 20 l 397 642 l 169 1231 q 163 1250 165 1244 q 161 1263 161 1255 q 172 1284 161 1274 q 198 1293 183 1293 q 230 1284 218 1293 q 247 1258 241 1275 l 450 731 l 842 1272 q 862 1289 851 1285 q 886 1293 872 1293 q 905 1289 896 1293 q 919 1277 913 1284 q 924 1260 924 1269 q 909 1225 924 1248 l 482 644 l 376 40 q 364 11 372 25 q 327 -3 356 -3 m 674 1454 q 638 1471 652 1454 q 623 1512 623 1488 q 637 1551 623 1534 q 674 1568 651 1568 q 713 1553 697 1568 q 729 1512 729 1538 q 714 1471 729 1488 q 674 1454 698 1454 m 411 1455 q 375 1472 390 1455 q 361 1512 361 1488 q 375 1551 361 1534 q 411 1567 389 1567 q 450 1552 434 1567 q 466 1512 466 1537 q 451 1472 466 1488 q 411 1455 435 1455 z "},"Ỳ":{"ha":706,"x_min":161,"x_max":924,"o":"m 327 -3 q 297 8 305 -3 q 291 40 288 20 l 397 642 l 169 1231 q 163 1250 165 1244 q 161 1263 161 1255 q 172 1284 161 1274 q 198 1293 183 1293 q 230 1284 218 1293 q 247 1258 241 1275 l 450 731 l 842 1272 q 862 1289 851 1285 q 886 1293 872 1293 q 905 1289 896 1293 q 919 1277 913 1284 q 924 1260 924 1269 q 909 1225 924 1248 l 482 644 l 376 40 q 364 11 372 25 q 327 -3 356 -3 m 574 1409 q 551 1403 563 1403 q 527 1425 539 1403 l 431 1603 q 423 1653 415 1634 q 448 1677 432 1672 q 484 1674 469 1683 q 506 1647 499 1665 l 585 1453 q 589 1424 593 1433 q 574 1409 584 1415 z "},"Ỹ":{"ha":706,"x_min":161,"x_max":924,"o":"m 327 -3 q 297 8 305 -3 q 291 40 288 20 l 397 642 l 169 1231 q 163 1250 165 1244 q 161 1263 161 1255 q 172 1284 161 1274 q 198 1293 183 1293 q 230 1284 218 1293 q 247 1258 241 1275 l 450 731 l 842 1272 q 862 1289 851 1285 q 886 1293 872 1293 q 905 1289 896 1293 q 919 1277 913 1284 q 924 1260 924 1269 q 909 1225 924 1248 l 482 644 l 376 40 q 364 11 372 25 q 327 -3 356 -3 m 631 1424 q 591 1435 613 1424 q 548 1463 570 1447 q 505 1491 526 1479 q 465 1503 484 1503 q 420 1491 439 1503 q 380 1461 402 1478 q 360 1456 370 1454 q 342 1464 351 1457 q 329 1482 334 1472 q 324 1504 324 1493 q 332 1525 324 1516 q 365 1546 339 1535 q 416 1565 389 1558 q 475 1572 442 1572 q 518 1560 495 1572 q 563 1532 540 1548 q 605 1505 585 1517 q 642 1492 626 1492 q 697 1507 677 1492 q 742 1538 716 1521 q 770 1542 757 1548 q 793 1524 784 1536 q 801 1502 801 1512 q 791 1482 801 1490 q 756 1461 781 1474 q 701 1436 730 1449 q 631 1424 672 1424 z "},"Z":{"ha":765,"x_min":-52,"x_max":906,"o":"m -8 -3 q -42 7 -33 -3 q -52 30 -52 17 q -42 60 -52 45 l 794 1221 l 206 1221 q 171 1229 179 1221 q 163 1254 163 1237 q 172 1282 163 1270 q 206 1293 180 1293 l 863 1293 q 897 1286 888 1293 q 906 1263 906 1279 q 901 1244 906 1255 q 890 1223 897 1234 l 59 71 l 664 71 q 699 63 691 71 q 708 38 708 54 q 699 9 708 21 q 664 -3 690 -3 l -8 -3 z "},"Ź":{"ha":765,"x_min":-52,"x_max":906,"o":"m -8 -3 q -42 7 -33 -3 q -52 30 -52 17 q -42 60 -52 45 l 794 1221 l 206 1221 q 171 1229 179 1221 q 163 1254 163 1237 q 172 1282 163 1270 q 206 1293 180 1293 l 863 1293 q 897 1286 888 1293 q 906 1263 906 1279 q 901 1244 906 1255 q 890 1223 897 1234 l 59 71 l 664 71 q 699 63 691 71 q 708 38 708 54 q 699 9 708 21 q 664 -3 690 -3 l -8 -3 m 558 1410 q 542 1427 547 1417 q 549 1459 536 1438 l 656 1645 q 694 1676 673 1675 q 728 1667 715 1677 q 743 1634 744 1652 q 731 1600 742 1617 l 602 1422 q 579 1405 590 1405 q 558 1410 568 1404 z "},"Ž":{"ha":765,"x_min":-52,"x_max":906,"o":"m -8 -3 q -42 7 -33 -3 q -52 30 -52 17 q -42 60 -52 45 l 794 1221 l 206 1221 q 171 1229 179 1221 q 163 1254 163 1237 q 172 1282 163 1270 q 206 1293 180 1293 l 863 1293 q 897 1286 888 1293 q 906 1263 906 1279 q 901 1244 906 1255 q 890 1223 897 1234 l 59 71 l 664 71 q 699 63 691 71 q 708 38 708 54 q 699 9 708 21 q 664 -3 690 -3 l -8 -3 m 569 1433 q 553 1439 563 1433 q 538 1457 543 1446 l 458 1640 q 452 1684 445 1668 q 474 1705 460 1701 q 507 1703 492 1710 q 526 1678 522 1696 l 581 1523 l 672 1676 q 707 1705 688 1703 q 738 1696 726 1706 q 752 1667 752 1683 q 741 1635 751 1651 l 615 1454 q 591 1435 603 1437 q 569 1433 580 1433 z "},"Ż":{"ha":765,"x_min":-52,"x_max":906,"o":"m -8 -3 q -42 7 -33 -3 q -52 30 -52 17 q -42 60 -52 45 l 794 1221 l 206 1221 q 171 1229 179 1221 q 163 1254 163 1237 q 172 1282 163 1270 q 206 1293 180 1293 l 863 1293 q 897 1286 888 1293 q 906 1263 906 1279 q 901 1244 906 1255 q 890 1223 897 1234 l 59 71 l 664 71 q 699 63 691 71 q 708 38 708 54 q 699 9 708 21 q 664 -3 690 -3 l -8 -3 m 589 1460 q 547 1479 563 1460 q 531 1526 531 1498 q 547 1570 531 1551 q 589 1590 563 1590 q 633 1572 615 1590 q 651 1526 651 1554 q 633 1480 651 1499 q 589 1460 615 1460 z "},"a":{"ha":726,"x_min":41,"x_max":667,"o":"m 185 -12 q 103 24 138 -12 q 55 128 68 60 q 58 289 41 196 q 138 506 81 415 q 269 646 194 597 q 419 695 344 695 l 642 695 q 663 680 660 695 q 662 637 667 664 l 556 39 q 547 16 555 32 q 506 0 539 0 q 475 13 479 0 q 472 35 470 25 l 524 326 q 419 154 477 231 q 300 32 360 77 q 185 -12 240 -12 m 202 62 q 311 125 249 62 q 438 296 372 188 q 561 538 503 404 l 576 624 l 426 624 q 311 583 369 624 q 206 468 252 542 q 142 293 160 394 q 147 126 124 190 q 202 62 169 62 z "},"á":{"ha":726,"x_min":41,"x_max":667,"o":"m 185 -12 q 103 24 138 -12 q 55 128 68 60 q 58 289 41 196 q 138 506 81 415 q 269 646 194 597 q 419 695 344 695 l 642 695 q 663 680 660 695 q 662 637 667 664 l 556 39 q 547 16 555 32 q 506 0 539 0 q 475 13 479 0 q 472 35 470 25 l 524 326 q 419 154 477 231 q 300 32 360 77 q 185 -12 240 -12 m 202 62 q 311 125 249 62 q 438 296 372 188 q 561 538 503 404 l 576 624 l 426 624 q 311 583 369 624 q 206 468 252 542 q 142 293 160 394 q 147 126 124 190 q 202 62 169 62 m 469 815 q 452 833 458 822 q 459 865 447 843 l 566 1051 q 605 1082 583 1081 q 638 1072 626 1083 q 653 1040 654 1058 q 641 1006 653 1022 l 513 828 q 489 810 500 810 q 469 815 478 810 z "},"ă":{"ha":726,"x_min":41,"x_max":675,"o":"m 185 -12 q 103 24 138 -12 q 55 128 68 60 q 58 289 41 196 q 138 506 81 415 q 269 646 194 597 q 419 695 344 695 l 642 695 q 663 680 660 695 q 662 637 667 664 l 556 39 q 547 16 555 32 q 506 0 539 0 q 475 13 479 0 q 472 35 470 25 l 524 326 q 419 154 477 231 q 300 32 360 77 q 185 -12 240 -12 m 202 62 q 311 125 249 62 q 438 296 372 188 q 561 538 503 404 l 576 624 l 426 624 q 311 583 369 624 q 206 468 252 542 q 142 293 160 394 q 147 126 124 190 q 202 62 169 62 m 481 837 q 402 856 431 837 q 358 906 372 876 q 341 970 344 937 q 342 1033 338 1004 q 356 1070 345 1060 q 383 1079 367 1079 q 413 1073 403 1079 q 421 1046 424 1066 q 424 946 413 975 q 455 912 435 917 q 490 906 474 906 q 528 916 508 906 q 565 955 548 925 q 589 1044 582 984 q 606 1073 592 1066 q 637 1081 620 1081 q 668 1064 661 1081 q 672 1028 675 1048 q 658 976 669 1008 q 625 913 647 944 q 567 859 603 881 q 481 837 532 837 z "},"ǎ":{"ha":726,"x_min":41,"x_max":667,"o":"m 185 -12 q 103 24 138 -12 q 55 128 68 60 q 58 289 41 196 q 138 506 81 415 q 269 646 194 597 q 419 695 344 695 l 642 695 q 663 680 660 695 q 662 637 667 664 l 556 39 q 547 16 555 32 q 506 0 539 0 q 475 13 479 0 q 472 35 470 25 l 524 326 q 419 154 477 231 q 300 32 360 77 q 185 -12 240 -12 m 202 62 q 311 125 249 62 q 438 296 372 188 q 561 538 503 404 l 576 624 l 426 624 q 311 583 369 624 q 206 468 252 542 q 142 293 160 394 q 147 126 124 190 q 202 62 169 62 m 480 838 q 464 845 474 838 q 448 863 453 851 l 369 1045 q 363 1090 356 1074 q 384 1110 370 1106 q 417 1109 403 1116 q 437 1083 432 1101 l 491 928 l 583 1082 q 618 1110 599 1109 q 649 1101 637 1111 q 662 1072 663 1088 q 651 1041 662 1056 l 525 860 q 502 840 513 842 q 480 838 490 838 z "},"â":{"ha":726,"x_min":41,"x_max":667,"o":"m 185 -12 q 103 24 138 -12 q 55 128 68 60 q 58 289 41 196 q 138 506 81 415 q 269 646 194 597 q 419 695 344 695 l 642 695 q 663 680 660 695 q 662 637 667 664 l 556 39 q 547 16 555 32 q 506 0 539 0 q 475 13 479 0 q 472 35 470 25 l 524 326 q 419 154 477 231 q 300 32 360 77 q 185 -12 240 -12 m 202 62 q 311 125 249 62 q 438 296 372 188 q 561 538 503 404 l 576 624 l 426 624 q 311 583 369 624 q 206 468 252 542 q 142 293 160 394 q 147 126 124 190 q 202 62 169 62 m 613 795 q 578 797 594 788 q 557 824 563 805 l 508 979 l 415 826 q 379 798 398 799 q 348 806 360 797 q 334 836 333 819 q 345 867 335 852 l 474 1048 q 498 1067 486 1065 q 519 1069 509 1069 q 536 1063 526 1069 q 551 1045 547 1057 l 630 865 q 636 817 644 835 q 613 795 629 800 z "},"ä":{"ha":726,"x_min":41,"x_max":669,"o":"m 185 -12 q 103 24 138 -12 q 55 128 68 60 q 58 289 41 196 q 138 506 81 415 q 269 646 194 597 q 419 695 344 695 l 642 695 q 663 680 660 695 q 662 637 667 664 l 556 39 q 547 16 555 32 q 506 0 539 0 q 475 13 479 0 q 472 35 470 25 l 524 326 q 419 154 477 231 q 300 32 360 77 q 185 -12 240 -12 m 202 62 q 311 125 249 62 q 438 296 372 188 q 561 538 503 404 l 576 624 l 426 624 q 311 583 369 624 q 206 468 252 542 q 142 293 160 394 q 147 126 124 190 q 202 62 169 62 m 614 860 q 577 876 592 860 q 563 917 563 893 q 576 957 563 940 q 614 974 590 974 q 653 958 637 974 q 669 917 669 943 q 653 877 669 894 q 614 860 638 860 m 351 860 q 315 877 329 860 q 301 917 301 894 q 315 956 301 940 q 351 973 328 973 q 390 958 374 973 q 406 917 406 942 q 390 877 406 894 q 351 860 375 860 z "},"ǟ":{"ha":726,"x_min":41,"x_max":715,"o":"m 185 -12 q 103 24 138 -12 q 55 128 68 60 q 58 289 41 196 q 138 506 81 415 q 269 646 194 597 q 419 695 344 695 l 642 695 q 663 680 660 695 q 662 637 667 664 l 556 39 q 547 16 555 32 q 506 0 539 0 q 475 13 479 0 q 472 35 470 25 l 524 326 q 419 154 477 231 q 300 32 360 77 q 185 -12 240 -12 m 202 62 q 311 125 249 62 q 438 296 372 188 q 561 538 503 404 l 576 624 l 426 624 q 311 583 369 624 q 206 468 252 542 q 142 293 160 394 q 147 126 124 190 q 202 62 169 62 m 614 860 q 577 876 592 860 q 563 917 563 893 q 576 957 563 940 q 614 974 590 974 q 653 958 637 974 q 669 917 669 943 q 653 877 669 894 q 614 860 638 860 m 351 860 q 315 877 329 860 q 301 917 301 894 q 315 956 301 940 q 351 973 328 973 q 390 958 374 973 q 406 917 406 942 q 390 877 406 894 q 351 860 375 860 m 372 1103 q 336 1114 347 1103 q 326 1140 326 1125 q 336 1166 326 1156 q 372 1176 347 1176 l 669 1176 q 704 1166 694 1176 q 715 1140 715 1156 q 704 1115 715 1126 q 669 1103 693 1103 l 372 1103 z "},"à":{"ha":726,"x_min":41,"x_max":667,"o":"m 185 -12 q 103 24 138 -12 q 55 128 68 60 q 58 289 41 196 q 138 506 81 415 q 269 646 194 597 q 419 695 344 695 l 642 695 q 663 680 660 695 q 662 637 667 664 l 556 39 q 547 16 555 32 q 506 0 539 0 q 475 13 479 0 q 472 35 470 25 l 524 326 q 419 154 477 231 q 300 32 360 77 q 185 -12 240 -12 m 202 62 q 311 125 249 62 q 438 296 372 188 q 561 538 503 404 l 576 624 l 426 624 q 311 583 369 624 q 206 468 252 542 q 142 293 160 394 q 147 126 124 190 q 202 62 169 62 m 513 815 q 490 809 502 808 q 467 831 478 809 l 370 1009 q 363 1059 354 1040 q 388 1083 372 1078 q 424 1080 408 1089 q 446 1052 439 1071 l 525 858 q 528 830 533 839 q 513 815 524 820 z "},"ā":{"ha":726,"x_min":41,"x_max":686,"o":"m 185 -12 q 103 24 138 -12 q 55 128 68 60 q 58 289 41 196 q 138 506 81 415 q 269 646 194 597 q 419 695 344 695 l 642 695 q 663 680 660 695 q 662 637 667 664 l 556 39 q 547 16 555 32 q 506 0 539 0 q 475 13 479 0 q 472 35 470 25 l 524 326 q 419 154 477 231 q 300 32 360 77 q 185 -12 240 -12 m 202 62 q 311 125 249 62 q 438 296 372 188 q 561 538 503 404 l 576 624 l 426 624 q 311 583 369 624 q 206 468 252 542 q 142 293 160 394 q 147 126 124 190 q 202 62 169 62 m 344 849 q 308 860 318 849 q 298 886 298 871 q 308 912 298 901 q 344 922 318 922 l 640 922 q 676 912 665 922 q 686 886 686 901 q 675 860 686 872 q 640 849 665 849 l 344 849 z "},"ą":{"ha":726,"x_min":41,"x_max":667,"o":"m 185 -12 q 103 24 138 -12 q 55 128 68 60 q 58 289 41 196 q 138 506 81 415 q 269 646 194 597 q 419 695 344 695 l 642 695 q 663 680 660 695 q 662 637 667 664 l 556 39 q 547 16 555 32 q 506 0 539 0 q 475 13 479 0 q 472 35 470 25 l 524 326 q 419 154 477 231 q 300 32 360 77 q 185 -12 240 -12 m 202 62 q 311 125 249 62 q 438 296 372 188 q 561 538 503 404 l 576 624 l 426 624 q 311 583 369 624 q 206 468 252 542 q 142 293 160 394 q 147 126 124 190 q 202 62 169 62 m 485 -426 q 372 -399 414 -426 q 312 -328 331 -372 q 294 -236 294 -285 q 320 -133 294 -179 q 378 -52 347 -87 q 428 3 400 -26 q 482 54 456 32 q 504 67 498 66 q 519 69 510 69 q 543 59 533 69 q 557 38 554 50 q 548 16 559 26 q 482 -48 510 -16 q 422 -118 454 -79 q 390 -168 406 -136 q 374 -235 374 -201 q 400 -318 374 -285 q 481 -352 426 -352 l 528 -352 q 567 -358 552 -352 q 582 -387 582 -363 q 566 -420 582 -413 q 528 -426 550 -426 l 485 -426 z "},"å":{"ha":726,"x_min":41,"x_max":746,"o":"m 185 -12 q 103 24 138 -12 q 55 128 68 60 q 58 289 41 196 q 138 506 81 415 q 269 646 194 597 q 419 695 344 695 l 642 695 q 663 680 660 695 q 662 637 667 664 l 556 39 q 547 16 555 32 q 506 0 539 0 q 475 13 479 0 q 472 35 470 25 l 524 326 q 419 154 477 231 q 300 32 360 77 q 185 -12 240 -12 m 202 62 q 311 125 249 62 q 438 296 372 188 q 561 538 503 404 l 576 624 l 426 624 q 311 583 369 624 q 206 468 252 542 q 142 293 160 394 q 147 126 124 190 q 202 62 169 62 m 470 839 q 402 853 433 839 q 353 894 372 867 q 335 961 335 922 q 353 1058 335 1010 q 406 1144 372 1106 q 488 1206 440 1183 q 594 1229 535 1229 q 706 1199 665 1229 q 746 1108 746 1168 q 726 1020 746 1067 q 670 932 707 974 q 583 865 634 891 q 470 839 533 839 m 492 907 q 579 939 539 907 q 644 1014 619 970 q 669 1093 669 1058 q 647 1143 669 1123 q 594 1164 625 1164 q 493 1134 534 1164 q 432 1064 453 1105 q 411 987 411 1022 q 417 939 411 956 q 441 914 424 922 q 492 907 458 907 z "},"ã":{"ha":726,"x_min":41,"x_max":741,"o":"m 185 -12 q 103 24 138 -12 q 55 128 68 60 q 58 289 41 196 q 138 506 81 415 q 269 646 194 597 q 419 695 344 695 l 642 695 q 663 680 660 695 q 662 637 667 664 l 556 39 q 547 16 555 32 q 506 0 539 0 q 475 13 479 0 q 472 35 470 25 l 524 326 q 419 154 477 231 q 300 32 360 77 q 185 -12 240 -12 m 202 62 q 311 125 249 62 q 438 296 372 188 q 561 538 503 404 l 576 624 l 426 624 q 311 583 369 624 q 206 468 252 542 q 142 293 160 394 q 147 126 124 190 q 202 62 169 62 m 570 829 q 531 841 552 829 q 488 869 510 853 q 445 897 466 885 q 405 908 424 908 q 360 896 378 908 q 319 867 342 884 q 300 861 310 860 q 282 870 290 863 q 269 888 274 877 q 264 910 264 899 q 271 931 264 922 q 304 951 278 940 q 355 970 328 963 q 415 978 382 978 q 457 966 435 978 q 502 938 480 953 q 545 910 524 922 q 582 898 565 898 q 636 912 617 898 q 682 944 656 926 q 710 948 697 953 q 732 930 724 942 q 741 908 741 917 q 731 888 741 895 q 695 867 720 880 q 640 842 669 854 q 570 829 611 829 z "},"æ":{"ha":1025,"x_min":42,"x_max":1012,"o":"m 183 -10 q 99 29 132 -10 q 54 135 65 68 q 56 289 42 203 q 131 513 77 423 q 260 649 185 603 q 417 695 335 695 l 640 695 q 661 681 656 695 q 660 637 665 667 l 653 597 q 758 678 702 651 q 872 706 815 706 q 975 673 938 706 q 1012 580 1012 640 q 994 512 1012 544 q 931 444 976 480 q 803 359 885 408 q 590 243 720 311 q 588 192 588 223 q 614 101 588 138 q 679 64 641 64 q 763 93 717 64 q 853 178 808 123 q 897 218 878 209 q 931 215 915 226 q 945 183 949 203 q 915 130 941 163 q 801 27 866 65 q 677 -10 737 -10 q 555 50 600 -10 q 510 210 510 109 q 514 266 510 233 q 522 326 517 298 q 413 150 472 226 q 294 32 354 74 q 183 -10 235 -10 m 200 65 q 307 124 245 65 q 437 291 369 184 q 566 538 505 398 l 581 624 l 424 624 q 303 587 363 624 q 201 476 244 550 q 140 293 157 403 q 135 181 130 233 q 157 97 140 128 q 200 65 174 65 m 607 333 q 849 477 769 417 q 929 574 929 536 q 909 615 929 597 q 860 633 888 633 q 756 594 806 633 q 666 488 705 556 q 607 333 626 421 z "},"b":{"ha":751,"x_min":55,"x_max":792,"o":"m 274 -12 q 146 26 197 -12 q 75 133 95 65 q 69 287 55 201 l 239 1244 q 259 1278 242 1266 q 292 1290 275 1290 q 318 1281 310 1290 q 323 1247 327 1272 l 155 291 q 156 177 144 230 q 203 93 169 125 q 291 61 238 61 q 407 108 356 61 q 489 235 459 156 q 519 409 519 314 q 508 548 519 490 q 483 644 496 606 q 480 668 480 655 q 488 690 479 681 q 523 694 497 698 l 753 656 q 784 642 776 653 q 792 619 792 631 q 772 586 792 593 q 719 584 752 578 l 564 611 q 591 490 581 544 q 602 389 602 435 q 558 183 602 274 q 439 40 513 92 q 274 -12 365 -12 z "},"c":{"ha":619,"x_min":62,"x_max":620,"o":"m 231 -12 q 107 42 151 -12 q 62 186 62 96 q 87 392 62 297 q 158 558 113 488 q 266 668 204 629 q 401 708 328 708 q 501 701 450 708 q 587 681 553 695 q 610 668 602 676 q 619 648 618 659 q 614 625 620 638 q 591 604 606 606 q 552 612 576 602 q 478 628 522 622 q 401 634 435 634 q 273 576 330 634 q 182 420 216 517 q 145 207 148 324 q 169 105 144 149 q 240 61 194 61 q 361 125 299 61 q 474 292 424 189 q 493 305 480 303 q 525 296 507 306 q 544 277 539 289 q 544 255 550 265 q 399 59 482 131 q 231 -12 315 -12 z "},"ć":{"ha":619,"x_min":62,"x_max":620,"o":"m 231 -12 q 107 42 151 -12 q 62 186 62 96 q 87 392 62 297 q 158 558 113 488 q 266 668 204 629 q 401 708 328 708 q 501 701 450 708 q 587 681 553 695 q 610 668 602 676 q 619 648 618 659 q 614 625 620 638 q 591 604 606 606 q 552 612 576 602 q 478 628 522 622 q 401 634 435 634 q 273 576 330 634 q 182 420 216 517 q 145 207 148 324 q 169 105 144 149 q 240 61 194 61 q 361 125 299 61 q 474 292 424 189 q 493 305 480 303 q 525 296 507 306 q 544 277 539 289 q 544 255 550 265 q 399 59 482 131 q 231 -12 315 -12 m 385 815 q 368 833 374 822 q 375 865 363 843 l 482 1051 q 520 1082 499 1081 q 554 1072 542 1083 q 569 1040 570 1058 q 557 1006 569 1022 l 428 828 q 405 810 416 810 q 385 815 394 810 z "},"č":{"ha":619,"x_min":62,"x_max":620,"o":"m 231 -12 q 107 42 151 -12 q 62 186 62 96 q 87 392 62 297 q 158 558 113 488 q 266 668 204 629 q 401 708 328 708 q 501 701 450 708 q 587 681 553 695 q 610 668 602 676 q 619 648 618 659 q 614 625 620 638 q 591 604 606 606 q 552 612 576 602 q 478 628 522 622 q 401 634 435 634 q 273 576 330 634 q 182 420 216 517 q 145 207 148 324 q 169 105 144 149 q 240 61 194 61 q 361 125 299 61 q 474 292 424 189 q 493 305 480 303 q 525 296 507 306 q 544 277 539 289 q 544 255 550 265 q 399 59 482 131 q 231 -12 315 -12 m 396 838 q 380 845 390 838 q 364 863 369 851 l 285 1045 q 279 1090 272 1074 q 300 1110 286 1106 q 333 1109 319 1116 q 353 1083 348 1101 l 407 928 l 499 1082 q 534 1110 515 1109 q 565 1101 553 1111 q 578 1072 578 1088 q 567 1041 578 1056 l 441 860 q 418 840 429 842 q 396 838 406 838 z "},"ç":{"ha":619,"x_min":62,"x_max":620,"o":"m 231 -12 q 107 42 151 -12 q 62 186 62 96 q 87 392 62 297 q 158 558 113 488 q 266 668 204 629 q 401 708 328 708 q 501 701 450 708 q 587 681 553 695 q 610 668 602 676 q 619 648 618 659 q 614 625 620 638 q 591 604 606 606 q 552 612 576 602 q 478 628 522 622 q 401 634 435 634 q 273 576 330 634 q 182 420 216 517 q 145 207 148 324 q 169 105 144 149 q 240 61 194 61 q 361 125 299 61 q 474 292 424 189 q 493 305 480 303 q 525 296 507 306 q 544 277 539 289 q 544 255 550 265 q 399 59 482 131 q 231 -12 315 -12 m 290 -492 q 223 -485 253 -492 q 174 -467 192 -479 q 156 -439 156 -456 q 171 -407 156 -415 q 210 -403 186 -399 q 249 -412 230 -407 q 290 -417 268 -417 q 382 -380 354 -417 q 409 -290 409 -342 q 394 -217 409 -251 q 349 -144 379 -183 q 289 -74 326 -115 q 223 -1 251 -33 q 218 35 209 15 q 248 56 228 56 q 266 56 258 56 q 285 41 274 56 q 317 1 296 26 q 360 -49 338 -24 q 398 -92 383 -74 q 439 -146 418 -115 q 475 -214 460 -177 q 489 -292 489 -251 q 467 -387 489 -342 q 401 -462 445 -433 q 290 -492 358 -492 z "},"ċ":{"ha":619,"x_min":62,"x_max":620,"o":"m 231 -12 q 107 42 151 -12 q 62 186 62 96 q 87 392 62 297 q 158 558 113 488 q 266 668 204 629 q 401 708 328 708 q 501 701 450 708 q 587 681 553 695 q 610 668 602 676 q 619 648 618 659 q 614 625 620 638 q 591 604 606 606 q 552 612 576 602 q 478 628 522 622 q 401 634 435 634 q 273 576 330 634 q 182 420 216 517 q 145 207 148 324 q 169 105 144 149 q 240 61 194 61 q 361 125 299 61 q 474 292 424 189 q 493 305 480 303 q 525 296 507 306 q 544 277 539 289 q 544 255 550 265 q 399 59 482 131 q 231 -12 315 -12 m 415 866 q 373 885 390 866 q 357 931 357 903 q 373 976 357 956 q 415 995 389 995 q 459 977 441 995 q 477 931 477 960 q 459 885 477 904 q 415 866 442 866 z "},"d":{"ha":722,"x_min":33,"x_max":765,"o":"m 188 -8 q 70 69 108 -8 q 58 285 33 147 q 133 502 81 410 q 261 644 185 594 q 433 695 337 695 l 581 695 l 681 1261 q 696 1285 684 1278 q 724 1290 708 1291 q 754 1278 743 1289 q 762 1247 765 1267 l 548 35 q 535 8 545 15 q 510 0 525 0 q 487 6 498 0 q 470 22 476 11 q 467 47 464 32 l 515 317 q 358 78 442 165 q 188 -8 274 -8 m 205 65 q 295 106 249 65 q 386 215 341 147 q 473 365 431 283 q 552 528 515 447 l 569 624 l 440 624 q 302 582 363 624 q 201 464 242 540 q 143 288 161 388 q 144 126 126 186 q 205 65 161 65 z "},"ď":{"ha":926,"x_min":33,"x_max":969,"o":"m 188 -8 q 70 69 108 -8 q 58 285 33 147 q 133 502 81 410 q 261 644 185 594 q 433 695 337 695 l 581 695 l 681 1261 q 696 1285 684 1278 q 724 1290 708 1291 q 754 1278 743 1289 q 762 1247 765 1267 l 548 35 q 535 8 545 15 q 510 0 525 0 q 487 6 498 0 q 470 22 476 11 q 467 47 464 32 l 515 317 q 358 78 442 165 q 188 -8 274 -8 m 205 65 q 295 106 249 65 q 386 215 341 147 q 473 365 431 283 q 552 528 515 447 l 569 624 l 440 624 q 302 582 363 624 q 201 464 242 540 q 143 288 161 388 q 144 126 126 186 q 205 65 161 65 m 856 863 q 828 879 840 866 q 821 911 817 892 l 883 1264 q 903 1295 887 1285 q 937 1301 919 1306 q 958 1287 946 1299 q 965 1253 969 1275 l 894 898 q 881 869 891 879 q 856 863 871 860 z "},"đ":{"ha":722,"x_min":33,"x_max":829,"o":"m 188 -8 q 70 69 108 -8 q 58 285 33 147 q 133 502 81 410 q 261 644 185 594 q 433 695 337 695 l 581 695 l 681 1261 q 696 1285 684 1278 q 724 1290 708 1291 q 754 1278 743 1289 q 762 1247 765 1267 l 548 35 q 535 8 545 15 q 510 0 525 0 q 487 6 498 0 q 470 22 476 11 q 467 47 464 32 l 515 317 q 358 78 442 165 q 188 -8 274 -8 m 205 65 q 295 106 249 65 q 386 215 341 147 q 473 365 431 283 q 552 528 515 447 l 569 624 l 440 624 q 302 582 363 624 q 201 464 242 540 q 143 288 161 388 q 144 126 126 186 q 205 65 161 65 m 485 937 q 448 946 459 937 q 436 974 436 955 q 450 1000 436 992 q 488 1009 463 1009 l 782 1009 q 818 1001 806 1009 q 829 974 829 992 q 817 946 829 956 q 778 937 804 937 l 485 937 z "},"ð":{"ha":775,"x_min":60,"x_max":775,"o":"m 264 -12 q 153 24 197 -12 q 87 117 109 59 q 63 245 65 175 q 77 384 60 315 q 128 512 94 454 q 212 613 160 567 q 328 684 264 658 q 465 711 393 711 q 536 696 497 711 q 609 645 576 681 q 658 549 643 610 q 660 723 665 642 q 636 873 655 804 q 581 997 617 942 q 492 1090 546 1051 q 485 1115 481 1099 q 508 1148 489 1132 q 535 1160 526 1162 q 557 1149 544 1158 q 660 1025 617 1100 q 726 858 703 950 q 749 664 749 765 q 723 459 749 562 q 642 263 697 357 q 547 122 597 184 q 429 24 497 60 q 264 -12 361 -12 m 257 67 q 372 86 313 67 q 488 168 430 106 q 601 353 547 229 q 613 403 610 371 q 609 474 615 436 q 585 548 603 513 q 533 605 567 583 q 446 628 499 628 q 355 608 403 628 q 265 557 306 589 q 203 488 224 525 q 150 336 161 411 q 150 201 138 262 q 191 103 162 140 q 257 67 219 67 m 529 881 q 497 868 512 867 q 474 879 483 868 q 460 909 463 892 q 478 941 458 926 l 704 1117 q 739 1129 724 1131 q 764 1116 755 1126 q 775 1086 775 1103 q 756 1055 775 1069 l 529 881 z "},"e":{"ha":570,"x_min":56,"x_max":557,"o":"m 222 -12 q 100 48 144 -12 q 56 210 56 108 q 85 397 56 307 q 165 556 115 486 q 281 667 216 626 q 417 708 346 708 q 520 674 483 708 q 557 581 557 641 q 533 501 557 538 q 474 435 510 465 q 399 383 438 406 q 330 342 360 360 q 232 291 289 319 q 135 243 174 263 q 133 218 134 231 q 133 192 133 205 q 159 100 133 139 q 224 61 185 61 q 311 95 265 61 q 399 178 356 129 q 444 219 426 214 q 476 215 463 225 q 489 199 485 208 q 487 173 493 190 q 460 130 481 157 q 350 28 414 68 q 222 -12 285 -12 m 151 332 q 217 366 181 348 q 283 401 252 384 q 376 461 333 431 q 447 522 420 492 q 474 575 474 551 q 456 614 474 594 q 406 634 438 634 q 298 592 349 634 q 209 482 247 551 q 151 332 170 413 z "},"é":{"ha":570,"x_min":56,"x_max":612,"o":"m 222 -12 q 100 48 144 -12 q 56 210 56 108 q 85 397 56 307 q 165 556 115 486 q 281 667 216 626 q 417 708 346 708 q 520 674 483 708 q 557 581 557 641 q 533 501 557 538 q 474 435 510 465 q 399 383 438 406 q 330 342 360 360 q 232 291 289 319 q 135 243 174 263 q 133 218 134 231 q 133 192 133 205 q 159 100 133 139 q 224 61 185 61 q 311 95 265 61 q 399 178 356 129 q 444 219 426 214 q 476 215 463 225 q 489 199 485 208 q 487 173 493 190 q 460 130 481 157 q 350 28 414 68 q 222 -12 285 -12 m 151 332 q 217 366 181 348 q 283 401 252 384 q 376 461 333 431 q 447 522 420 492 q 474 575 474 551 q 456 614 474 594 q 406 634 438 634 q 298 592 349 634 q 209 482 247 551 q 151 332 170 413 m 426 815 q 410 833 415 822 q 417 865 404 843 l 524 1051 q 562 1082 541 1081 q 596 1072 583 1083 q 611 1040 612 1058 q 599 1006 610 1022 l 470 828 q 447 810 458 810 q 426 815 436 810 z "},"ě":{"ha":570,"x_min":56,"x_max":620,"o":"m 222 -12 q 100 48 144 -12 q 56 210 56 108 q 85 397 56 307 q 165 556 115 486 q 281 667 216 626 q 417 708 346 708 q 520 674 483 708 q 557 581 557 641 q 533 501 557 538 q 474 435 510 465 q 399 383 438 406 q 330 342 360 360 q 232 291 289 319 q 135 243 174 263 q 133 218 134 231 q 133 192 133 205 q 159 100 133 139 q 224 61 185 61 q 311 95 265 61 q 399 178 356 129 q 444 219 426 214 q 476 215 463 225 q 489 199 485 208 q 487 173 493 190 q 460 130 481 157 q 350 28 414 68 q 222 -12 285 -12 m 151 332 q 217 366 181 348 q 283 401 252 384 q 376 461 333 431 q 447 522 420 492 q 474 575 474 551 q 456 614 474 594 q 406 634 438 634 q 298 592 349 634 q 209 482 247 551 q 151 332 170 413 m 438 838 q 421 845 431 838 q 406 863 411 851 l 326 1045 q 320 1090 313 1074 q 342 1110 328 1106 q 375 1109 360 1116 q 394 1083 390 1101 l 449 928 l 540 1082 q 575 1110 556 1109 q 606 1101 594 1111 q 620 1072 620 1088 q 609 1041 619 1056 l 483 860 q 459 840 471 842 q 438 838 448 838 z "},"ȩ":{"ha":570,"x_min":56,"x_max":557,"o":"m 222 -12 q 100 48 144 -12 q 56 210 56 108 q 85 397 56 307 q 165 556 115 486 q 281 667 216 626 q 417 708 346 708 q 520 674 483 708 q 557 581 557 641 q 533 501 557 538 q 474 435 510 465 q 399 383 438 406 q 330 342 360 360 q 232 291 289 319 q 135 243 174 263 q 133 218 134 231 q 133 192 133 205 q 159 100 133 139 q 224 61 185 61 q 311 95 265 61 q 399 178 356 129 q 444 219 426 214 q 476 215 463 225 q 489 199 485 208 q 487 173 493 190 q 460 130 481 157 q 350 28 414 68 q 222 -12 285 -12 m 151 332 q 217 366 181 348 q 283 401 252 384 q 376 461 333 431 q 447 522 420 492 q 474 575 474 551 q 456 614 474 594 q 406 634 438 634 q 298 592 349 634 q 209 482 247 551 q 151 332 170 413 m 262 -492 q 194 -485 225 -492 q 145 -467 164 -479 q 127 -439 127 -456 q 142 -407 127 -415 q 181 -403 158 -399 q 220 -412 201 -407 q 262 -417 240 -417 q 353 -380 326 -417 q 381 -290 381 -342 q 366 -217 381 -251 q 320 -144 351 -183 q 260 -74 298 -115 q 194 -1 223 -33 q 190 35 181 15 q 219 56 199 56 q 237 56 229 56 q 256 41 245 56 q 288 1 267 26 q 332 -49 309 -24 q 369 -92 354 -74 q 411 -146 390 -115 q 446 -214 432 -177 q 460 -292 460 -251 q 439 -387 460 -342 q 373 -462 417 -433 q 262 -492 329 -492 z "},"ê":{"ha":570,"x_min":56,"x_max":601,"o":"m 222 -12 q 100 48 144 -12 q 56 210 56 108 q 85 397 56 307 q 165 556 115 486 q 281 667 216 626 q 417 708 346 708 q 520 674 483 708 q 557 581 557 641 q 533 501 557 538 q 474 435 510 465 q 399 383 438 406 q 330 342 360 360 q 232 291 289 319 q 135 243 174 263 q 133 218 134 231 q 133 192 133 205 q 159 100 133 139 q 224 61 185 61 q 311 95 265 61 q 399 178 356 129 q 444 219 426 214 q 476 215 463 225 q 489 199 485 208 q 487 173 493 190 q 460 130 481 157 q 350 28 414 68 q 222 -12 285 -12 m 151 332 q 217 366 181 348 q 283 401 252 384 q 376 461 333 431 q 447 522 420 492 q 474 575 474 551 q 456 614 474 594 q 406 634 438 634 q 298 592 349 634 q 209 482 247 551 q 151 332 170 413 m 571 795 q 536 797 551 788 q 515 824 520 805 l 466 979 l 372 826 q 336 798 356 799 q 306 806 317 797 q 292 836 291 819 q 303 867 292 852 l 432 1048 q 455 1067 444 1065 q 477 1069 467 1069 q 494 1063 483 1069 q 509 1045 504 1057 l 588 865 q 594 817 601 835 q 571 795 587 800 z "},"ë":{"ha":570,"x_min":56,"x_max":626,"o":"m 222 -12 q 100 48 144 -12 q 56 210 56 108 q 85 397 56 307 q 165 556 115 486 q 281 667 216 626 q 417 708 346 708 q 520 674 483 708 q 557 581 557 641 q 533 501 557 538 q 474 435 510 465 q 399 383 438 406 q 330 342 360 360 q 232 291 289 319 q 135 243 174 263 q 133 218 134 231 q 133 192 133 205 q 159 100 133 139 q 224 61 185 61 q 311 95 265 61 q 399 178 356 129 q 444 219 426 214 q 476 215 463 225 q 489 199 485 208 q 487 173 493 190 q 460 130 481 157 q 350 28 414 68 q 222 -12 285 -12 m 151 332 q 217 366 181 348 q 283 401 252 384 q 376 461 333 431 q 447 522 420 492 q 474 575 474 551 q 456 614 474 594 q 406 634 438 634 q 298 592 349 634 q 209 482 247 551 q 151 332 170 413 m 572 860 q 535 876 549 860 q 520 917 520 893 q 534 957 520 940 q 572 974 548 974 q 610 958 594 974 q 626 917 626 943 q 611 877 626 894 q 572 860 595 860 m 308 860 q 273 877 287 860 q 258 917 258 894 q 272 956 258 940 q 308 973 286 973 q 347 958 331 973 q 363 917 363 942 q 348 877 363 894 q 308 860 333 860 z "},"ė":{"ha":570,"x_min":56,"x_max":557,"o":"m 222 -12 q 100 48 144 -12 q 56 210 56 108 q 85 397 56 307 q 165 556 115 486 q 281 667 216 626 q 417 708 346 708 q 520 674 483 708 q 557 581 557 641 q 533 501 557 538 q 474 435 510 465 q 399 383 438 406 q 330 342 360 360 q 232 291 289 319 q 135 243 174 263 q 133 218 134 231 q 133 192 133 205 q 159 100 133 139 q 224 61 185 61 q 311 95 265 61 q 399 178 356 129 q 444 219 426 214 q 476 215 463 225 q 489 199 485 208 q 487 173 493 190 q 460 130 481 157 q 350 28 414 68 q 222 -12 285 -12 m 151 332 q 217 366 181 348 q 283 401 252 384 q 376 461 333 431 q 447 522 420 492 q 474 575 474 551 q 456 614 474 594 q 406 634 438 634 q 298 592 349 634 q 209 482 247 551 q 151 332 170 413 m 457 866 q 415 885 431 866 q 399 931 399 903 q 415 976 399 956 q 457 995 431 995 q 501 977 483 995 q 519 931 519 960 q 501 885 519 904 q 457 866 483 866 z "},"è":{"ha":570,"x_min":56,"x_max":557,"o":"m 222 -12 q 100 48 144 -12 q 56 210 56 108 q 85 397 56 307 q 165 556 115 486 q 281 667 216 626 q 417 708 346 708 q 520 674 483 708 q 557 581 557 641 q 533 501 557 538 q 474 435 510 465 q 399 383 438 406 q 330 342 360 360 q 232 291 289 319 q 135 243 174 263 q 133 218 134 231 q 133 192 133 205 q 159 100 133 139 q 224 61 185 61 q 311 95 265 61 q 399 178 356 129 q 444 219 426 214 q 476 215 463 225 q 489 199 485 208 q 487 173 493 190 q 460 130 481 157 q 350 28 414 68 q 222 -12 285 -12 m 151 332 q 217 366 181 348 q 283 401 252 384 q 376 461 333 431 q 447 522 420 492 q 474 575 474 551 q 456 614 474 594 q 406 634 438 634 q 298 592 349 634 q 209 482 247 551 q 151 332 170 413 m 471 815 q 448 809 460 808 q 424 831 436 809 l 328 1009 q 320 1059 312 1040 q 345 1083 329 1078 q 381 1080 366 1089 q 403 1052 397 1071 l 483 858 q 486 830 490 839 q 471 815 481 820 z "},"ē":{"ha":570,"x_min":56,"x_max":644,"o":"m 222 -12 q 100 48 144 -12 q 56 210 56 108 q 85 397 56 307 q 165 556 115 486 q 281 667 216 626 q 417 708 346 708 q 520 674 483 708 q 557 581 557 641 q 533 501 557 538 q 474 435 510 465 q 399 383 438 406 q 330 342 360 360 q 232 291 289 319 q 135 243 174 263 q 133 218 134 231 q 133 192 133 205 q 159 100 133 139 q 224 61 185 61 q 311 95 265 61 q 399 178 356 129 q 444 219 426 214 q 476 215 463 225 q 489 199 485 208 q 487 173 493 190 q 460 130 481 157 q 350 28 414 68 q 222 -12 285 -12 m 151 332 q 217 366 181 348 q 283 401 252 384 q 376 461 333 431 q 447 522 420 492 q 474 575 474 551 q 456 614 474 594 q 406 634 438 634 q 298 592 349 634 q 209 482 247 551 q 151 332 170 413 m 301 849 q 266 860 276 849 q 256 886 256 871 q 266 912 256 901 q 301 922 276 922 l 598 922 q 633 912 623 922 q 644 886 644 901 q 633 860 644 872 q 598 849 622 849 l 301 849 z "},"ę":{"ha":570,"x_min":14,"x_max":557,"o":"m 222 -12 q 100 48 144 -12 q 56 210 56 108 q 85 397 56 307 q 165 556 115 486 q 281 667 216 626 q 417 708 346 708 q 520 674 483 708 q 557 581 557 641 q 533 501 557 538 q 474 435 510 465 q 399 383 438 406 q 330 342 360 360 q 232 291 289 319 q 135 243 174 263 q 133 218 134 231 q 133 192 133 205 q 159 100 133 139 q 224 61 185 61 q 311 95 265 61 q 399 178 356 129 q 444 219 426 214 q 476 215 463 225 q 489 199 485 208 q 487 173 493 190 q 460 130 481 157 q 350 28 414 68 q 222 -12 285 -12 m 151 332 q 217 366 181 348 q 283 401 252 384 q 376 461 333 431 q 447 522 420 492 q 474 575 474 551 q 456 614 474 594 q 406 634 438 634 q 298 592 349 634 q 209 482 247 551 q 151 332 170 413 m 205 -440 q 92 -412 134 -440 q 32 -342 51 -385 q 14 -249 14 -298 q 41 -146 14 -192 q 98 -65 67 -100 q 148 -10 120 -39 q 202 41 176 19 q 224 54 218 53 q 239 56 230 56 q 264 46 253 56 q 277 25 274 37 q 268 3 279 13 q 202 -61 230 -29 q 142 -131 174 -92 q 110 -182 126 -149 q 94 -248 94 -214 q 120 -332 94 -298 q 201 -365 146 -365 l 248 -365 q 287 -371 272 -365 q 302 -401 302 -376 q 286 -433 302 -426 q 248 -440 270 -440 l 205 -440 z "},"ẽ":{"ha":570,"x_min":56,"x_max":699,"o":"m 222 -12 q 100 48 144 -12 q 56 210 56 108 q 85 397 56 307 q 165 556 115 486 q 281 667 216 626 q 417 708 346 708 q 520 674 483 708 q 557 581 557 641 q 533 501 557 538 q 474 435 510 465 q 399 383 438 406 q 330 342 360 360 q 232 291 289 319 q 135 243 174 263 q 133 218 134 231 q 133 192 133 205 q 159 100 133 139 q 224 61 185 61 q 311 95 265 61 q 399 178 356 129 q 444 219 426 214 q 476 215 463 225 q 489 199 485 208 q 487 173 493 190 q 460 130 481 157 q 350 28 414 68 q 222 -12 285 -12 m 151 332 q 217 366 181 348 q 283 401 252 384 q 376 461 333 431 q 447 522 420 492 q 474 575 474 551 q 456 614 474 594 q 406 634 438 634 q 298 592 349 634 q 209 482 247 551 q 151 332 170 413 m 528 829 q 489 841 510 829 q 445 869 467 853 q 402 897 424 885 q 363 908 381 908 q 318 896 336 908 q 277 867 299 884 q 258 861 267 860 q 240 870 248 863 q 226 888 231 877 q 222 910 222 899 q 229 931 222 922 q 262 951 236 940 q 313 970 286 963 q 372 978 340 978 q 415 966 392 978 q 460 938 438 953 q 502 910 482 922 q 540 898 523 898 q 594 912 574 898 q 640 944 613 926 q 668 948 654 953 q 690 930 681 942 q 699 908 699 917 q 688 888 699 895 q 653 867 678 880 q 598 842 627 854 q 528 829 569 829 z "},"f":{"ha":372,"x_min":-42,"x_max":621,"o":"m -1 -595 q -25 -587 -16 -595 q -39 -568 -35 -579 q -41 -547 -42 -557 l 164 619 l 44 619 q 7 630 18 619 q -3 656 -3 640 q 5 682 -3 673 q 38 691 13 691 l 177 691 l 244 1068 q 293 1203 259 1155 q 374 1270 328 1251 q 469 1290 419 1290 q 533 1280 497 1290 q 592 1255 570 1271 q 612 1234 603 1247 q 610 1199 621 1220 q 581 1175 598 1176 q 556 1178 565 1173 q 512 1201 538 1192 q 468 1210 486 1210 q 377 1175 413 1210 q 324 1049 340 1141 l 261 691 l 391 691 q 426 682 417 691 q 435 656 435 672 q 428 629 435 639 q 397 619 422 619 l 249 619 l 42 -552 q 30 -582 40 -569 q -1 -595 20 -595 z "},"g":{"ha":739,"x_min":-22,"x_max":680,"o":"m 200 -595 q 83 -578 138 -595 q -8 -531 28 -560 q -21 -506 -20 -522 q -9 -476 -22 -490 q 13 -466 -1 -466 q 42 -476 27 -467 q 115 -510 71 -498 q 203 -523 160 -523 q 318 -489 272 -523 q 394 -386 365 -456 q 443 -210 424 -317 l 538 331 q 439 157 493 235 q 325 33 384 79 q 207 -12 266 -12 q 124 26 159 -12 q 76 133 90 64 q 79 294 63 202 q 155 508 102 419 q 282 647 207 598 q 445 695 356 695 l 640 695 q 673 685 666 695 q 676 651 680 674 l 522 -214 q 409 -507 486 -419 q 200 -595 332 -595 m 224 61 q 299 92 260 61 q 377 174 338 123 q 453 289 417 226 q 521 416 490 351 q 574 538 552 481 l 590 624 l 451 624 q 269 536 347 624 q 164 298 192 447 q 159 176 153 230 q 183 92 165 122 q 224 61 201 61 z "},"ğ":{"ha":739,"x_min":-22,"x_max":680,"o":"m 200 -595 q 83 -578 138 -595 q -8 -531 28 -560 q -21 -506 -20 -522 q -9 -476 -22 -490 q 13 -466 -1 -466 q 42 -476 27 -467 q 115 -510 71 -498 q 203 -523 160 -523 q 318 -489 272 -523 q 394 -386 365 -456 q 443 -210 424 -317 l 538 331 q 439 157 493 235 q 325 33 384 79 q 207 -12 266 -12 q 124 26 159 -12 q 76 133 90 64 q 79 294 63 202 q 155 508 102 419 q 282 647 207 598 q 445 695 356 695 l 640 695 q 673 685 666 695 q 676 651 680 674 l 522 -214 q 409 -507 486 -419 q 200 -595 332 -595 m 224 61 q 299 92 260 61 q 377 174 338 123 q 453 289 417 226 q 521 416 490 351 q 574 538 552 481 l 590 624 l 451 624 q 269 536 347 624 q 164 298 192 447 q 159 176 153 230 q 183 92 165 122 q 224 61 201 61 m 463 837 q 384 856 413 837 q 340 906 354 876 q 323 970 326 937 q 324 1033 320 1004 q 338 1070 327 1060 q 365 1079 349 1079 q 395 1073 385 1079 q 403 1046 406 1066 q 406 946 395 975 q 437 912 417 917 q 472 906 456 906 q 510 916 490 906 q 547 955 530 925 q 571 1044 564 984 q 588 1073 574 1066 q 619 1081 602 1081 q 650 1064 643 1081 q 654 1028 657 1048 q 640 976 651 1008 q 607 913 629 944 q 549 859 585 881 q 463 837 514 837 z "},"ǧ":{"ha":739,"x_min":-22,"x_max":680,"o":"m 200 -595 q 83 -578 138 -595 q -8 -531 28 -560 q -21 -506 -20 -522 q -9 -476 -22 -490 q 13 -466 -1 -466 q 42 -476 27 -467 q 115 -510 71 -498 q 203 -523 160 -523 q 318 -489 272 -523 q 394 -386 365 -456 q 443 -210 424 -317 l 538 331 q 439 157 493 235 q 325 33 384 79 q 207 -12 266 -12 q 124 26 159 -12 q 76 133 90 64 q 79 294 63 202 q 155 508 102 419 q 282 647 207 598 q 445 695 356 695 l 640 695 q 673 685 666 695 q 676 651 680 674 l 522 -214 q 409 -507 486 -419 q 200 -595 332 -595 m 224 61 q 299 92 260 61 q 377 174 338 123 q 453 289 417 226 q 521 416 490 351 q 574 538 552 481 l 590 624 l 451 624 q 269 536 347 624 q 164 298 192 447 q 159 176 153 230 q 183 92 165 122 q 224 61 201 61 m 462 838 q 445 845 456 838 q 430 863 435 851 l 351 1045 q 345 1090 338 1074 q 366 1110 352 1106 q 399 1109 385 1116 q 419 1083 414 1101 l 473 928 l 565 1082 q 600 1110 581 1109 q 631 1101 619 1111 q 644 1072 644 1088 q 633 1041 644 1056 l 507 860 q 484 840 495 842 q 462 838 472 838 z "},"ģ":{"ha":739,"x_min":-22,"x_max":680,"o":"m 200 -595 q 83 -578 138 -595 q -8 -531 28 -560 q -21 -506 -20 -522 q -9 -476 -22 -490 q 13 -466 -1 -466 q 42 -476 27 -467 q 115 -510 71 -498 q 203 -523 160 -523 q 318 -489 272 -523 q 394 -386 365 -456 q 443 -210 424 -317 l 538 331 q 439 157 493 235 q 325 33 384 79 q 207 -12 266 -12 q 124 26 159 -12 q 76 133 90 64 q 79 294 63 202 q 155 508 102 419 q 282 647 207 598 q 445 695 356 695 l 640 695 q 673 685 666 695 q 676 651 680 674 l 522 -214 q 409 -507 486 -419 q 200 -595 332 -595 m 224 61 q 299 92 260 61 q 377 174 338 123 q 453 289 417 226 q 521 416 490 351 q 574 538 552 481 l 590 624 l 451 624 q 269 536 347 624 q 164 298 192 447 q 159 176 153 230 q 183 92 165 122 q 224 61 201 61 m 458 797 q 426 809 438 799 q 419 844 415 820 l 464 1083 q 484 1116 469 1108 q 519 1122 499 1124 q 549 1108 539 1120 q 554 1071 559 1097 l 513 834 q 494 802 508 810 q 458 797 481 794 z "},"ġ":{"ha":739,"x_min":-22,"x_max":680,"o":"m 200 -595 q 83 -578 138 -595 q -8 -531 28 -560 q -21 -506 -20 -522 q -9 -476 -22 -490 q 13 -466 -1 -466 q 42 -476 27 -467 q 115 -510 71 -498 q 203 -523 160 -523 q 318 -489 272 -523 q 394 -386 365 -456 q 443 -210 424 -317 l 538 331 q 439 157 493 235 q 325 33 384 79 q 207 -12 266 -12 q 124 26 159 -12 q 76 133 90 64 q 79 294 63 202 q 155 508 102 419 q 282 647 207 598 q 445 695 356 695 l 640 695 q 673 685 666 695 q 676 651 680 674 l 522 -214 q 409 -507 486 -419 q 200 -595 332 -595 m 224 61 q 299 92 260 61 q 377 174 338 123 q 453 289 417 226 q 521 416 490 351 q 574 538 552 481 l 590 624 l 451 624 q 269 536 347 624 q 164 298 192 447 q 159 176 153 230 q 183 92 165 122 q 224 61 201 61 m 481 866 q 439 885 456 866 q 423 931 423 903 q 439 976 423 956 q 481 995 455 995 q 525 977 507 995 q 543 931 543 960 q 525 885 543 904 q 481 866 508 866 z "},"ḡ":{"ha":739,"x_min":-22,"x_max":680,"o":"m 200 -595 q 83 -578 138 -595 q -8 -531 28 -560 q -21 -506 -20 -522 q -9 -476 -22 -490 q 13 -466 -1 -466 q 42 -476 27 -467 q 115 -510 71 -498 q 203 -523 160 -523 q 318 -489 272 -523 q 394 -386 365 -456 q 443 -210 424 -317 l 538 331 q 439 157 493 235 q 325 33 384 79 q 207 -12 266 -12 q 124 26 159 -12 q 76 133 90 64 q 79 294 63 202 q 155 508 102 419 q 282 647 207 598 q 445 695 356 695 l 640 695 q 673 685 666 695 q 676 651 680 674 l 522 -214 q 409 -507 486 -419 q 200 -595 332 -595 m 224 61 q 299 92 260 61 q 377 174 338 123 q 453 289 417 226 q 521 416 490 351 q 574 538 552 481 l 590 624 l 451 624 q 269 536 347 624 q 164 298 192 447 q 159 176 153 230 q 183 92 165 122 q 224 61 201 61 m 326 849 q 290 860 300 849 q 280 886 280 871 q 290 912 280 901 q 326 922 300 922 l 622 922 q 658 912 647 922 q 668 886 668 901 q 657 860 668 872 q 622 849 647 849 l 326 849 z "},"h":{"ha":758,"x_min":63,"x_max":685,"o":"m 100 0 q 75 6 83 0 q 65 20 67 12 q 64 35 63 28 l 277 1244 q 294 1280 281 1269 q 335 1290 307 1290 q 360 1280 356 1290 q 361 1247 365 1271 l 230 501 q 358 650 297 604 q 497 695 419 695 q 610 661 567 695 q 669 573 653 627 q 674 455 685 518 l 601 34 q 593 13 599 26 q 554 0 587 0 q 524 13 528 0 q 520 38 519 26 l 594 458 q 595 533 601 494 q 565 598 589 571 q 491 624 540 624 q 361 568 428 624 q 210 388 294 512 l 148 38 q 140 15 147 31 q 100 0 133 0 z "},"ħ":{"ha":758,"x_min":63,"x_max":685,"o":"m 100 0 q 75 6 83 0 q 65 20 67 12 q 64 35 63 28 l 277 1244 q 294 1280 281 1269 q 335 1290 307 1290 q 360 1280 356 1290 q 361 1247 365 1271 l 230 501 q 358 650 297 604 q 497 695 419 695 q 610 661 567 695 q 669 573 653 627 q 674 455 685 518 l 601 34 q 593 13 599 26 q 554 0 587 0 q 524 13 528 0 q 520 38 519 26 l 594 458 q 595 533 601 494 q 565 598 589 571 q 491 624 540 624 q 361 568 428 624 q 210 388 294 512 l 148 38 q 140 15 147 31 q 100 0 133 0 m 178 937 q 141 946 153 937 q 130 974 130 955 q 143 1000 130 992 q 182 1009 157 1009 l 476 1009 q 511 1001 500 1009 q 523 974 523 992 q 510 946 523 956 q 472 937 498 937 l 178 937 z "},"i":{"ha":319,"x_min":62,"x_max":315,"o":"m 99 0 q 68 12 74 0 q 64 33 62 24 l 172 649 q 182 676 175 665 q 200 691 188 686 q 231 695 212 695 q 256 686 251 695 q 256 653 260 676 l 148 38 q 140 15 147 30 q 99 0 133 0 m 263 877 q 227 894 242 877 q 213 935 213 912 q 226 975 213 959 q 263 991 240 991 q 299 976 284 991 q 315 935 315 961 q 300 894 315 912 q 263 877 285 877 z "},"ı":{"ha":319,"x_min":62,"x_max":260,"o":"m 99 0 q 68 12 74 0 q 64 33 62 24 l 172 649 q 182 676 175 665 q 200 691 188 686 q 231 695 212 695 q 256 686 251 695 q 256 653 260 676 l 148 38 q 140 15 147 30 q 99 0 133 0 z "},"í":{"ha":319,"x_min":62,"x_max":416,"o":"m 99 0 q 68 12 74 0 q 64 33 62 24 l 172 649 q 182 676 175 665 q 200 691 188 686 q 231 695 212 695 q 256 686 251 695 q 256 653 260 676 l 148 38 q 140 15 147 30 q 99 0 133 0 m 231 815 q 214 833 219 822 q 221 865 208 843 l 328 1051 q 366 1082 345 1081 q 400 1072 388 1083 q 415 1040 416 1058 q 403 1006 415 1022 l 274 828 q 251 810 262 810 q 231 815 240 810 z "},"î":{"ha":319,"x_min":62,"x_max":406,"o":"m 99 0 q 68 12 74 0 q 64 33 62 24 l 172 649 q 182 676 175 665 q 200 691 188 686 q 231 695 212 695 q 256 686 251 695 q 256 653 260 676 l 148 38 q 140 15 147 30 q 99 0 133 0 m 375 795 q 340 797 356 788 q 319 824 324 805 l 270 979 l 176 826 q 141 798 160 799 q 110 806 122 797 q 96 836 95 819 q 107 867 97 852 l 236 1048 q 259 1067 248 1065 q 281 1069 271 1069 q 298 1063 288 1069 q 313 1045 308 1057 l 392 865 q 398 817 406 835 q 375 795 391 800 z "},"ï":{"ha":319,"x_min":62,"x_max":431,"o":"m 99 0 q 68 12 74 0 q 64 33 62 24 l 172 649 q 182 676 175 665 q 200 691 188 686 q 231 695 212 695 q 256 686 251 695 q 256 653 260 676 l 148 38 q 140 15 147 30 q 99 0 133 0 m 376 860 q 339 876 353 860 q 324 917 324 893 q 338 957 324 940 q 376 974 352 974 q 415 958 399 974 q 431 917 431 943 q 415 877 431 894 q 376 860 399 860 m 113 860 q 77 877 91 860 q 63 917 63 894 q 76 956 63 940 q 113 973 90 973 q 151 958 135 973 q 167 917 167 942 q 152 877 167 894 q 113 860 137 860 z "},"ì":{"ha":319,"x_min":62,"x_max":294,"o":"m 99 0 q 68 12 74 0 q 64 33 62 24 l 172 649 q 182 676 175 665 q 200 691 188 686 q 231 695 212 695 q 256 686 251 695 q 256 653 260 676 l 148 38 q 140 15 147 30 q 99 0 133 0 m 275 815 q 252 809 264 808 q 228 831 240 809 l 132 1009 q 125 1059 116 1040 q 149 1083 133 1078 q 185 1080 170 1089 q 208 1052 201 1071 l 287 858 q 290 830 294 839 q 275 815 285 820 z "},"ī":{"ha":319,"x_min":60,"x_max":448,"o":"m 99 0 q 68 12 74 0 q 64 33 62 24 l 172 649 q 182 676 175 665 q 200 691 188 686 q 231 695 212 695 q 256 686 251 695 q 256 653 260 676 l 148 38 q 140 15 147 30 q 99 0 133 0 m 106 849 q 70 860 80 849 q 60 886 60 871 q 70 912 60 901 q 106 922 80 922 l 402 922 q 438 912 427 922 q 448 886 448 901 q 437 860 448 872 q 402 849 426 849 l 106 849 z "},"į":{"ha":319,"x_min":-119,"x_max":323,"o":"m 99 0 q 68 12 74 0 q 64 33 62 24 l 172 649 q 182 676 175 665 q 200 691 188 686 q 231 695 212 695 q 256 686 251 695 q 256 653 260 676 l 148 38 q 140 15 147 30 q 99 0 133 0 m 261 866 q 219 885 235 866 q 203 931 203 903 q 219 976 203 956 q 261 995 235 995 q 305 977 287 995 q 323 931 323 960 q 305 885 323 904 q 261 866 288 866 m 72 -433 q -40 -406 1 -433 q -100 -335 -82 -378 q -119 -242 -119 -291 q -92 -139 -119 -185 q -35 -58 -65 -93 q 15 -3 -12 -32 q 69 48 43 26 q 91 61 85 60 q 106 63 97 63 q 131 53 120 63 q 144 32 142 44 q 135 10 147 19 q 69 -54 97 -22 q 9 -124 42 -85 q -23 -175 -6 -142 q -39 -241 -39 -207 q -13 -325 -39 -291 q 68 -358 13 -358 l 115 -358 q 155 -364 140 -358 q 169 -394 169 -369 q 153 -426 169 -419 q 115 -433 138 -433 l 72 -433 z "},"ĩ":{"ha":319,"x_min":26,"x_max":503,"o":"m 99 0 q 68 12 74 0 q 64 33 62 24 l 172 649 q 182 676 175 665 q 200 691 188 686 q 231 695 212 695 q 256 686 251 695 q 256 653 260 676 l 148 38 q 140 15 147 30 q 99 0 133 0 m 332 829 q 293 841 314 829 q 250 869 272 853 q 207 897 228 885 q 167 908 185 908 q 122 896 140 908 q 81 867 103 884 q 62 861 72 860 q 44 870 52 863 q 31 888 35 877 q 26 910 26 899 q 33 931 26 922 q 66 951 40 940 q 117 970 90 963 q 176 978 144 978 q 219 966 197 978 q 264 938 242 953 q 307 910 286 922 q 344 898 327 898 q 398 912 378 898 q 444 944 417 926 q 472 948 458 953 q 494 930 485 942 q 503 908 503 917 q 492 888 503 895 q 457 867 482 880 q 402 842 431 854 q 332 829 373 829 z "},"ĳ":{"ha":698,"x_min":-42,"x_max":636,"o":"m 99 0 q 68 12 74 0 q 64 33 62 24 l 172 649 q 182 676 175 665 q 200 691 188 686 q 231 695 212 695 q 256 686 251 695 q 256 653 260 676 l 148 38 q 140 15 147 30 q 99 0 133 0 m 263 877 q 227 894 242 877 q 213 935 213 912 q 226 975 213 959 q 263 991 240 991 q 299 976 284 991 q 315 935 315 961 q 300 894 315 912 q 263 877 285 877 m 128 -595 q 27 -580 66 -595 q -29 -547 -12 -565 q -41 -520 -40 -535 q -31 -491 -42 -505 q -9 -481 -22 -481 q 19 -492 4 -481 q 68 -516 42 -508 q 129 -524 94 -524 q 231 -484 190 -524 q 298 -375 272 -445 q 340 -211 324 -304 l 491 647 q 500 674 494 663 q 519 690 507 685 q 549 695 531 695 q 574 684 569 695 q 575 650 579 674 l 422 -217 q 319 -498 390 -401 q 128 -595 248 -595 m 583 889 q 546 904 561 889 q 531 940 531 919 q 545 974 531 960 q 583 988 559 988 q 620 975 605 988 q 636 940 636 962 q 621 904 636 919 q 583 889 606 889 z "},"j":{"ha":378,"x_min":-361,"x_max":317,"o":"m -192 -595 q -292 -580 -253 -595 q -349 -547 -331 -565 q -360 -520 -360 -535 q -350 -491 -361 -505 q -328 -481 -342 -481 q -301 -492 -315 -481 q -252 -516 -278 -508 q -190 -524 -226 -524 q -89 -484 -129 -524 q -22 -375 -48 -445 q 21 -211 5 -304 l 172 647 q 181 674 174 663 q 200 690 188 685 q 230 695 212 695 q 255 684 250 695 q 256 650 260 674 l 103 -217 q -1 -498 70 -401 q -192 -595 -72 -595 m 263 889 q 227 904 242 889 q 212 940 212 919 q 226 974 212 960 q 263 988 240 988 q 301 975 285 988 q 317 940 317 962 q 301 904 317 919 q 263 889 286 889 z "},"ȷ":{"ha":399,"x_min":-362,"x_max":340,"o":"m -140 -595 q -257 -578 -202 -595 q -347 -531 -312 -560 q -361 -506 -360 -522 q -351 -476 -362 -491 q -328 -467 -342 -467 q -300 -477 -314 -467 q -227 -511 -269 -498 q -138 -524 -184 -524 q -24 -490 -70 -524 q 52 -387 22 -456 q 101 -211 82 -318 l 251 647 q 261 674 254 663 q 280 690 267 685 q 310 695 292 695 q 335 684 330 695 q 335 650 340 674 l 183 -217 q 69 -508 147 -422 q -140 -595 -9 -595 z "},"k":{"ha":718,"x_min":62,"x_max":669,"o":"m 94 0 q 76 5 83 0 q 65 18 68 9 q 64 41 62 27 l 276 1242 q 291 1277 280 1265 q 322 1290 302 1290 q 354 1281 344 1290 q 359 1244 364 1272 l 209 394 q 384 630 288 553 q 576 708 480 708 q 622 700 601 708 q 656 667 643 692 q 669 589 669 642 q 644 494 669 540 q 572 403 620 447 q 449 315 523 358 l 625 67 q 637 35 637 51 q 627 10 637 19 q 602 0 617 0 q 572 9 585 0 q 549 32 559 18 l 392 256 q 366 298 375 281 q 358 324 358 315 q 365 348 358 336 q 390 369 372 359 q 538 480 488 428 q 588 579 588 531 q 581 619 588 601 q 548 638 573 638 q 472 615 515 638 q 378 537 428 592 q 274 388 327 482 q 167 151 220 293 l 148 44 q 130 9 143 19 q 94 0 116 0 z "},"ķ":{"ha":718,"x_min":62,"x_max":669,"o":"m 94 0 q 76 5 83 0 q 65 18 68 9 q 64 41 62 27 l 276 1242 q 291 1277 280 1265 q 322 1290 302 1290 q 354 1281 344 1290 q 359 1244 364 1272 l 209 394 q 384 630 288 553 q 576 708 480 708 q 622 700 601 708 q 656 667 643 692 q 669 589 669 642 q 644 494 669 540 q 572 403 620 447 q 449 315 523 358 l 625 67 q 637 35 637 51 q 627 10 637 19 q 602 0 617 0 q 572 9 585 0 q 549 32 559 18 l 392 256 q 366 298 375 281 q 358 324 358 315 q 365 348 358 336 q 390 369 372 359 q 538 480 488 428 q 588 579 588 531 q 581 619 588 601 q 548 638 573 638 q 472 615 515 638 q 378 537 428 592 q 274 388 327 482 q 167 151 220 293 l 148 44 q 130 9 143 19 q 94 0 116 0 m 224 -404 q 193 -390 203 -402 q 188 -353 183 -378 l 244 -116 q 263 -84 249 -92 q 298 -78 276 -76 q 331 -91 319 -81 q 337 -126 342 -102 l 278 -365 q 258 -398 273 -389 q 224 -404 244 -406 z "},"l":{"ha":321,"x_min":62,"x_max":364,"o":"m 103 0 q 81 5 91 0 q 67 18 72 9 q 64 42 62 28 l 278 1256 q 292 1282 281 1275 q 317 1290 303 1290 q 350 1279 337 1290 q 360 1248 364 1268 l 147 37 q 131 8 144 17 q 103 0 117 0 z "},"ĺ":{"ha":321,"x_min":62,"x_max":513,"o":"m 103 0 q 81 5 91 0 q 67 18 72 9 q 64 42 62 28 l 278 1256 q 292 1282 281 1275 q 317 1290 303 1290 q 350 1279 337 1290 q 360 1248 364 1268 l 147 37 q 131 8 144 17 q 103 0 117 0 m 327 1410 q 310 1427 316 1417 q 317 1459 305 1438 l 424 1645 q 463 1676 442 1675 q 497 1667 484 1677 q 512 1634 513 1652 q 499 1600 511 1617 l 371 1422 q 348 1405 358 1405 q 327 1410 337 1404 z "},"ľ":{"ha":534,"x_min":62,"x_max":578,"o":"m 103 0 q 81 5 91 0 q 67 18 72 9 q 64 42 62 28 l 278 1256 q 292 1282 281 1275 q 317 1290 303 1290 q 350 1279 337 1290 q 360 1248 364 1268 l 147 37 q 131 8 144 17 q 103 0 117 0 m 464 960 q 437 976 448 963 q 429 1008 426 989 l 492 1361 q 511 1392 495 1382 q 545 1399 528 1403 q 566 1384 554 1397 q 574 1350 578 1372 l 503 995 q 489 967 499 976 q 464 960 479 957 z "},"ļ":{"ha":321,"x_min":-17,"x_max":364,"o":"m 103 0 q 81 5 91 0 q 67 18 72 9 q 64 42 62 28 l 278 1256 q 292 1282 281 1275 q 317 1290 303 1290 q 350 1279 337 1290 q 360 1248 364 1268 l 147 37 q 131 8 144 17 q 103 0 117 0 m 24 -404 q -6 -390 4 -402 q -11 -353 -17 -378 l 44 -116 q 64 -84 50 -92 q 99 -78 77 -76 q 131 -91 119 -81 q 138 -126 143 -102 l 79 -365 q 59 -398 74 -389 q 24 -404 44 -406 z "},"ł":{"ha":322,"x_min":14,"x_max":403,"o":"m 104 0 q 73 11 83 0 q 65 42 63 23 l 279 1256 q 319 1290 285 1290 q 353 1278 341 1290 q 362 1248 365 1266 l 149 37 q 134 10 146 19 q 104 0 122 0 m 76 523 q 42 521 57 516 q 21 542 26 526 q 21 578 14 563 q 48 601 28 594 l 338 707 q 374 708 358 715 q 397 685 391 702 q 395 651 403 665 q 366 628 387 636 l 76 523 z "},"m":{"ha":1169,"x_min":62,"x_max":1096,"o":"m 99 0 q 67 12 72 0 q 64 34 62 24 l 172 649 q 181 675 175 665 q 199 690 188 685 q 228 695 210 695 q 255 685 249 695 q 256 652 260 676 l 232 516 q 311 626 276 584 q 386 688 347 668 q 476 708 424 708 q 574 681 534 708 q 634 610 613 654 q 656 515 654 566 q 738 626 700 584 q 815 688 775 669 q 906 708 855 708 q 1020 672 976 708 q 1080 579 1063 636 q 1084 459 1096 522 l 1009 35 q 1001 13 1008 26 q 962 0 994 0 q 930 13 935 0 q 927 38 925 26 l 1002 463 q 1003 539 1009 499 q 973 606 997 578 q 901 634 949 634 q 781 576 839 634 q 640 397 722 518 l 577 34 q 569 13 576 26 q 531 0 563 0 q 499 13 505 0 q 496 38 494 26 l 572 463 q 573 538 578 499 q 542 606 567 578 q 469 634 518 634 q 349 575 406 634 q 210 394 292 517 l 148 38 q 139 15 147 30 q 99 0 131 0 z "},"ḿ":{"ha":1169,"x_min":62,"x_max":1096,"o":"m 99 0 q 67 12 72 0 q 64 34 62 24 l 172 649 q 181 675 175 665 q 199 690 188 685 q 228 695 210 695 q 255 685 249 695 q 256 652 260 676 l 232 516 q 311 626 276 584 q 386 688 347 668 q 476 708 424 708 q 574 681 534 708 q 634 610 613 654 q 656 515 654 566 q 738 626 700 584 q 815 688 775 669 q 906 708 855 708 q 1020 672 976 708 q 1080 579 1063 636 q 1084 459 1096 522 l 1009 35 q 1001 13 1008 26 q 962 0 994 0 q 930 13 935 0 q 927 38 925 26 l 1002 463 q 1003 539 1009 499 q 973 606 997 578 q 901 634 949 634 q 781 576 839 634 q 640 397 722 518 l 577 34 q 569 13 576 26 q 531 0 563 0 q 499 13 505 0 q 496 38 494 26 l 572 463 q 573 538 578 499 q 542 606 567 578 q 469 634 518 634 q 349 575 406 634 q 210 394 292 517 l 148 38 q 139 15 147 30 q 99 0 131 0 m 655 815 q 638 833 644 822 q 645 865 633 843 l 752 1051 q 791 1082 769 1081 q 824 1072 812 1083 q 840 1040 840 1058 q 827 1006 839 1022 l 699 828 q 675 810 686 810 q 655 815 665 810 z "},"n":{"ha":756,"x_min":62,"x_max":683,"o":"m 98 0 q 67 12 72 0 q 64 34 62 24 l 172 649 q 181 675 175 665 q 199 690 188 685 q 228 695 210 695 q 255 685 249 695 q 256 652 260 676 l 231 513 q 358 661 298 614 q 495 708 417 708 q 608 672 565 708 q 667 579 651 636 q 672 459 683 522 l 597 34 q 590 13 596 26 q 551 0 583 0 q 518 13 525 0 q 514 38 512 26 l 589 463 q 591 538 596 499 q 562 606 585 578 q 489 634 538 634 q 361 575 427 634 q 210 394 295 517 l 148 38 q 139 15 147 30 q 98 0 131 0 z "},"ń":{"ha":756,"x_min":62,"x_max":683,"o":"m 98 0 q 67 12 72 0 q 64 34 62 24 l 172 649 q 181 675 175 665 q 199 690 188 685 q 228 695 210 695 q 255 685 249 695 q 256 652 260 676 l 231 513 q 358 661 298 614 q 495 708 417 708 q 608 672 565 708 q 667 579 651 636 q 672 459 683 522 l 597 34 q 590 13 596 26 q 551 0 583 0 q 518 13 525 0 q 514 38 512 26 l 589 463 q 591 538 596 499 q 562 606 585 578 q 489 634 538 634 q 361 575 427 634 q 210 394 295 517 l 148 38 q 139 15 147 30 q 98 0 131 0 m 449 815 q 432 833 438 822 q 439 865 426 843 l 546 1051 q 584 1082 563 1081 q 618 1072 606 1083 q 633 1040 634 1058 q 621 1006 633 1022 l 492 828 q 469 810 480 810 q 449 815 458 810 z "},"ň":{"ha":756,"x_min":62,"x_max":683,"o":"m 98 0 q 67 12 72 0 q 64 34 62 24 l 172 649 q 181 675 175 665 q 199 690 188 685 q 228 695 210 695 q 255 685 249 695 q 256 652 260 676 l 231 513 q 358 661 298 614 q 495 708 417 708 q 608 672 565 708 q 667 579 651 636 q 672 459 683 522 l 597 34 q 590 13 596 26 q 551 0 583 0 q 518 13 525 0 q 514 38 512 26 l 589 463 q 591 538 596 499 q 562 606 585 578 q 489 634 538 634 q 361 575 427 634 q 210 394 295 517 l 148 38 q 139 15 147 30 q 98 0 131 0 m 460 838 q 443 845 453 838 q 428 863 433 851 l 349 1045 q 343 1090 335 1074 q 364 1110 350 1106 q 397 1109 383 1116 q 417 1083 412 1101 l 471 928 l 563 1082 q 598 1110 578 1109 q 628 1101 617 1111 q 642 1072 642 1088 q 631 1041 642 1056 l 505 860 q 482 840 493 842 q 460 838 470 838 z "},"ņ":{"ha":756,"x_min":62,"x_max":683,"o":"m 98 0 q 67 12 72 0 q 64 34 62 24 l 172 649 q 181 675 175 665 q 199 690 188 685 q 228 695 210 695 q 255 685 249 695 q 256 652 260 676 l 231 513 q 358 661 298 614 q 495 708 417 708 q 608 672 565 708 q 667 579 651 636 q 672 459 683 522 l 597 34 q 590 13 596 26 q 551 0 583 0 q 518 13 525 0 q 514 38 512 26 l 589 463 q 591 538 596 499 q 562 606 585 578 q 489 634 538 634 q 361 575 427 634 q 210 394 295 517 l 148 38 q 139 15 147 30 q 98 0 131 0 m 242 -404 q 212 -390 222 -402 q 207 -353 201 -378 l 263 -116 q 282 -84 268 -92 q 317 -78 295 -76 q 349 -91 338 -81 q 356 -126 361 -102 l 297 -365 q 277 -398 292 -389 q 242 -404 263 -406 z "},"ñ":{"ha":756,"x_min":62,"x_max":721,"o":"m 98 0 q 67 12 72 0 q 64 34 62 24 l 172 649 q 181 675 175 665 q 199 690 188 685 q 228 695 210 695 q 255 685 249 695 q 256 652 260 676 l 231 513 q 358 661 298 614 q 495 708 417 708 q 608 672 565 708 q 667 579 651 636 q 672 459 683 522 l 597 34 q 590 13 596 26 q 551 0 583 0 q 518 13 525 0 q 514 38 512 26 l 589 463 q 591 538 596 499 q 562 606 585 578 q 489 634 538 634 q 361 575 427 634 q 210 394 295 517 l 148 38 q 139 15 147 30 q 98 0 131 0 m 550 829 q 511 841 532 829 q 468 869 490 853 q 425 897 446 885 q 385 908 403 908 q 340 896 358 908 q 299 867 322 884 q 280 861 290 860 q 262 870 270 863 q 249 888 253 877 q 244 910 244 899 q 251 931 244 922 q 284 951 258 940 q 335 970 308 963 q 394 978 362 978 q 437 966 415 978 q 482 938 460 953 q 525 910 504 922 q 562 898 545 898 q 616 912 597 898 q 662 944 635 926 q 690 948 676 953 q 712 930 703 942 q 721 908 721 917 q 710 888 721 895 q 675 867 700 880 q 620 842 649 854 q 550 829 591 829 z "},"ŋ":{"ha":737,"x_min":6,"x_max":682,"o":"m 228 -595 q 111 -578 166 -595 q 21 -531 56 -560 q 7 -506 8 -522 q 17 -476 6 -491 q 40 -467 26 -467 q 68 -477 54 -467 q 141 -511 99 -498 q 230 -524 184 -524 q 386 -448 331 -524 q 469 -211 441 -372 l 588 463 q 589 538 594 499 q 560 606 583 578 q 488 634 537 634 q 360 575 426 634 q 209 394 294 517 l 147 38 q 137 15 145 30 q 97 0 129 0 q 65 12 70 0 q 63 34 60 24 l 171 649 q 188 684 175 673 q 227 695 200 695 q 253 685 247 695 q 255 652 259 676 l 230 513 q 356 661 297 614 q 494 708 416 708 q 606 672 563 708 q 666 579 649 636 q 671 459 682 522 l 551 -217 q 437 -508 515 -422 q 228 -595 359 -595 z "},"o":{"ha":668,"x_min":62,"x_max":608,"o":"m 284 -4 q 121 64 181 -4 q 62 249 62 131 q 102 481 62 379 q 214 640 143 582 q 373 699 284 699 q 545 634 483 699 q 608 454 608 570 q 583 271 608 355 q 515 126 559 188 q 413 30 472 64 q 284 -4 353 -4 m 284 70 q 408 121 353 70 q 494 259 463 172 q 525 452 525 345 q 484 577 525 528 q 373 625 443 625 q 257 577 308 625 q 176 449 206 529 q 147 269 147 368 q 183 126 147 181 q 284 70 219 70 z "},"ó":{"ha":668,"x_min":62,"x_max":608,"o":"m 284 -4 q 121 64 181 -4 q 62 249 62 131 q 102 481 62 379 q 214 640 143 582 q 373 699 284 699 q 545 634 483 699 q 608 454 608 570 q 583 271 608 355 q 515 126 559 188 q 413 30 472 64 q 284 -4 353 -4 m 284 70 q 408 121 353 70 q 494 259 463 172 q 525 452 525 345 q 484 577 525 528 q 373 625 443 625 q 257 577 308 625 q 176 449 206 529 q 147 269 147 368 q 183 126 147 181 q 284 70 219 70 m 405 815 q 388 833 394 822 q 395 865 383 843 l 502 1051 q 541 1082 519 1081 q 574 1072 562 1083 q 590 1040 590 1058 q 577 1006 589 1022 l 449 828 q 425 810 436 810 q 405 815 415 810 z "},"ǒ":{"ha":668,"x_min":62,"x_max":608,"o":"m 284 -4 q 121 64 181 -4 q 62 249 62 131 q 102 481 62 379 q 214 640 143 582 q 373 699 284 699 q 545 634 483 699 q 608 454 608 570 q 583 271 608 355 q 515 126 559 188 q 413 30 472 64 q 284 -4 353 -4 m 284 70 q 408 121 353 70 q 494 259 463 172 q 525 452 525 345 q 484 577 525 528 q 373 625 443 625 q 257 577 308 625 q 176 449 206 529 q 147 269 147 368 q 183 126 147 181 q 284 70 219 70 m 416 838 q 400 845 410 838 q 384 863 390 851 l 305 1045 q 299 1090 292 1074 q 320 1110 306 1106 q 353 1109 339 1116 q 373 1083 368 1101 l 427 928 l 519 1082 q 554 1110 535 1109 q 585 1101 573 1111 q 598 1072 599 1088 q 588 1041 598 1056 l 461 860 q 438 840 449 842 q 416 838 426 838 z "},"ô":{"ha":668,"x_min":62,"x_max":608,"o":"m 284 -4 q 121 64 181 -4 q 62 249 62 131 q 102 481 62 379 q 214 640 143 582 q 373 699 284 699 q 545 634 483 699 q 608 454 608 570 q 583 271 608 355 q 515 126 559 188 q 413 30 472 64 q 284 -4 353 -4 m 284 70 q 408 121 353 70 q 494 259 463 172 q 525 452 525 345 q 484 577 525 528 q 373 625 443 625 q 257 577 308 625 q 176 449 206 529 q 147 269 147 368 q 183 126 147 181 q 284 70 219 70 m 549 795 q 514 797 530 788 q 493 824 499 805 l 444 979 l 351 826 q 315 798 334 799 q 284 806 296 797 q 270 836 269 819 q 281 867 271 852 l 410 1048 q 434 1067 422 1065 q 456 1069 445 1069 q 472 1063 462 1069 q 488 1045 483 1057 l 566 865 q 573 817 580 835 q 549 795 565 800 z "},"ö":{"ha":668,"x_min":62,"x_max":608,"o":"m 284 -4 q 121 64 181 -4 q 62 249 62 131 q 102 481 62 379 q 214 640 143 582 q 373 699 284 699 q 545 634 483 699 q 608 454 608 570 q 583 271 608 355 q 515 126 559 188 q 413 30 472 64 q 284 -4 353 -4 m 284 70 q 408 121 353 70 q 494 259 463 172 q 525 452 525 345 q 484 577 525 528 q 373 625 443 625 q 257 577 308 625 q 176 449 206 529 q 147 269 147 368 q 183 126 147 181 q 284 70 219 70 m 550 860 q 513 876 528 860 q 499 917 499 893 q 513 957 499 940 q 550 974 526 974 q 589 958 573 974 q 605 917 605 943 q 589 877 605 894 q 550 860 574 860 m 287 860 q 251 877 265 860 q 237 917 237 894 q 251 956 237 940 q 287 973 265 973 q 326 958 310 973 q 342 917 342 942 q 326 877 342 894 q 287 860 311 860 z "},"ȫ":{"ha":668,"x_min":62,"x_max":651,"o":"m 284 -4 q 121 64 181 -4 q 62 249 62 131 q 102 481 62 379 q 214 640 143 582 q 373 699 284 699 q 545 634 483 699 q 608 454 608 570 q 583 271 608 355 q 515 126 559 188 q 413 30 472 64 q 284 -4 353 -4 m 284 70 q 408 121 353 70 q 494 259 463 172 q 525 452 525 345 q 484 577 525 528 q 373 625 443 625 q 257 577 308 625 q 176 449 206 529 q 147 269 147 368 q 183 126 147 181 q 284 70 219 70 m 550 860 q 513 876 528 860 q 499 917 499 893 q 513 957 499 940 q 550 974 526 974 q 589 958 573 974 q 605 917 605 943 q 589 877 605 894 q 550 860 574 860 m 287 860 q 251 877 265 860 q 237 917 237 894 q 251 956 237 940 q 287 973 265 973 q 326 958 310 973 q 342 917 342 942 q 326 877 342 894 q 287 860 311 860 m 308 1103 q 273 1114 283 1103 q 263 1140 263 1125 q 273 1166 263 1156 q 308 1176 283 1176 l 605 1176 q 640 1166 630 1176 q 651 1140 651 1156 q 640 1115 651 1126 q 605 1103 629 1103 l 308 1103 z "},"ò":{"ha":668,"x_min":62,"x_max":608,"o":"m 284 -4 q 121 64 181 -4 q 62 249 62 131 q 102 481 62 379 q 214 640 143 582 q 373 699 284 699 q 545 634 483 699 q 608 454 608 570 q 583 271 608 355 q 515 126 559 188 q 413 30 472 64 q 284 -4 353 -4 m 284 70 q 408 121 353 70 q 494 259 463 172 q 525 452 525 345 q 484 577 525 528 q 373 625 443 625 q 257 577 308 625 q 176 449 206 529 q 147 269 147 368 q 183 126 147 181 q 284 70 219 70 m 449 815 q 426 809 438 808 q 403 831 415 809 l 306 1009 q 299 1059 290 1040 q 324 1083 308 1078 q 360 1080 344 1089 q 382 1052 375 1071 l 461 858 q 464 830 469 839 q 449 815 460 820 z "},"ő":{"ha":668,"x_min":62,"x_max":678,"o":"m 284 -4 q 121 64 181 -4 q 62 249 62 131 q 102 481 62 379 q 214 640 143 582 q 373 699 284 699 q 545 634 483 699 q 608 454 608 570 q 583 271 608 355 q 515 126 559 188 q 413 30 472 64 q 284 -4 353 -4 m 284 70 q 408 121 353 70 q 494 259 463 172 q 525 452 525 345 q 484 577 525 528 q 373 625 443 625 q 257 577 308 625 q 176 449 206 529 q 147 269 147 368 q 183 126 147 181 q 284 70 219 70 m 493 840 q 476 857 482 847 q 483 889 471 867 l 590 1075 q 628 1107 607 1106 q 662 1097 649 1108 q 677 1064 678 1082 q 665 1031 676 1047 l 536 853 q 514 835 524 835 q 493 840 503 834 m 306 840 q 290 857 294 847 q 295 889 285 866 l 382 1075 q 419 1107 397 1107 q 454 1097 442 1108 q 469 1065 470 1082 q 457 1031 467 1048 l 349 853 q 326 834 338 834 q 306 840 315 834 z "},"ō":{"ha":668,"x_min":62,"x_max":622,"o":"m 284 -4 q 121 64 181 -4 q 62 249 62 131 q 102 481 62 379 q 214 640 143 582 q 373 699 284 699 q 545 634 483 699 q 608 454 608 570 q 583 271 608 355 q 515 126 559 188 q 413 30 472 64 q 284 -4 353 -4 m 284 70 q 408 121 353 70 q 494 259 463 172 q 525 452 525 345 q 484 577 525 528 q 373 625 443 625 q 257 577 308 625 q 176 449 206 529 q 147 269 147 368 q 183 126 147 181 q 284 70 219 70 m 280 849 q 244 860 254 849 q 234 886 234 871 q 244 912 234 901 q 280 922 254 922 l 576 922 q 612 912 601 922 q 622 886 622 901 q 611 860 622 872 q 576 849 601 849 l 280 849 z "},"ṓ":{"ha":668,"x_min":62,"x_max":647,"o":"m 284 -4 q 121 64 181 -4 q 62 249 62 131 q 102 481 62 379 q 214 640 143 582 q 373 699 284 699 q 545 634 483 699 q 608 454 608 570 q 583 271 608 355 q 515 126 559 188 q 413 30 472 64 q 284 -4 353 -4 m 284 70 q 408 121 353 70 q 494 259 463 172 q 525 452 525 345 q 484 577 525 528 q 373 625 443 625 q 257 577 308 625 q 176 449 206 529 q 147 269 147 368 q 183 126 147 181 q 284 70 219 70 m 280 849 q 244 860 254 849 q 234 886 234 871 q 244 912 234 901 q 280 922 254 922 l 576 922 q 612 912 601 922 q 622 886 622 901 q 611 860 622 872 q 576 849 601 849 l 280 849 m 461 1042 q 444 1060 450 1049 q 451 1092 439 1070 l 558 1278 q 597 1309 576 1308 q 631 1299 618 1310 q 646 1267 647 1285 q 633 1233 645 1249 l 505 1055 q 482 1037 492 1038 q 461 1042 471 1037 z "},"ṑ":{"ha":668,"x_min":62,"x_max":622,"o":"m 284 -4 q 121 64 181 -4 q 62 249 62 131 q 102 481 62 379 q 214 640 143 582 q 373 699 284 699 q 545 634 483 699 q 608 454 608 570 q 583 271 608 355 q 515 126 559 188 q 413 30 472 64 q 284 -4 353 -4 m 284 70 q 408 121 353 70 q 494 259 463 172 q 525 452 525 345 q 484 577 525 528 q 373 625 443 625 q 257 577 308 625 q 176 449 206 529 q 147 269 147 368 q 183 126 147 181 q 284 70 219 70 m 280 849 q 244 860 254 849 q 234 886 234 871 q 244 912 234 901 q 280 922 254 922 l 576 922 q 612 912 601 922 q 622 886 622 901 q 611 860 622 872 q 576 849 601 849 l 280 849 m 506 1042 q 483 1036 494 1035 q 459 1058 471 1036 l 363 1236 q 355 1286 347 1267 q 380 1310 364 1305 q 416 1307 401 1316 q 438 1279 431 1298 l 517 1085 q 520 1057 525 1066 q 506 1042 516 1047 z "},"ø":{"ha":668,"x_min":58,"x_max":608,"o":"m 107 -165 q 71 -152 84 -165 q 70 -115 58 -139 l 303 360 l 508 790 q 532 823 519 814 q 559 833 544 833 q 584 826 573 833 q 600 807 596 819 q 594 777 603 794 l 370 323 l 156 -128 q 134 -157 147 -149 q 107 -165 122 -165 m 284 -4 q 121 64 181 -4 q 62 249 62 131 q 102 481 62 379 q 214 640 143 582 q 373 699 284 699 q 545 634 483 699 q 608 454 608 570 q 583 271 608 355 q 515 126 559 188 q 413 30 472 64 q 284 -4 353 -4 m 284 70 q 408 121 353 70 q 494 259 463 172 q 525 452 525 345 q 484 577 525 528 q 373 625 443 625 q 257 577 308 625 q 176 449 206 529 q 147 269 147 368 q 183 126 147 181 q 284 70 219 70 z "},"õ":{"ha":668,"x_min":62,"x_max":677,"o":"m 284 -4 q 121 64 181 -4 q 62 249 62 131 q 102 481 62 379 q 214 640 143 582 q 373 699 284 699 q 545 634 483 699 q 608 454 608 570 q 583 271 608 355 q 515 126 559 188 q 413 30 472 64 q 284 -4 353 -4 m 284 70 q 408 121 353 70 q 494 259 463 172 q 525 452 525 345 q 484 577 525 528 q 373 625 443 625 q 257 577 308 625 q 176 449 206 529 q 147 269 147 368 q 183 126 147 181 q 284 70 219 70 m 506 829 q 467 841 488 829 q 424 869 446 853 q 381 897 402 885 q 341 908 360 908 q 296 896 315 908 q 256 867 278 884 q 236 861 246 860 q 218 870 226 863 q 205 888 210 877 q 200 910 200 899 q 207 931 200 922 q 240 951 215 940 q 291 970 265 963 q 351 978 318 978 q 393 966 371 978 q 438 938 416 953 q 481 910 460 922 q 518 898 501 898 q 572 912 553 898 q 618 944 592 926 q 646 948 633 953 q 668 930 660 942 q 677 908 677 917 q 667 888 677 895 q 631 867 656 880 q 576 842 606 854 q 506 829 547 829 z "},"œ":{"ha":1015,"x_min":62,"x_max":1002,"o":"m 284 -4 q 121 64 181 -4 q 62 249 62 131 q 102 481 62 379 q 214 640 143 582 q 373 699 284 699 q 545 634 483 699 q 608 454 608 570 q 583 271 608 355 q 515 126 559 188 q 413 30 472 64 q 284 -4 353 -4 m 284 70 q 408 121 353 70 q 494 259 463 172 q 525 452 525 345 q 484 577 525 528 q 373 625 443 625 q 257 577 308 625 q 176 449 206 529 q 147 269 147 368 q 183 126 147 181 q 284 70 219 70 m 667 -12 q 545 48 590 -12 q 501 210 501 108 q 530 397 501 307 q 610 556 560 486 q 726 667 661 626 q 863 708 791 708 q 965 674 928 708 q 1002 581 1002 641 q 978 501 1002 538 q 919 435 955 465 q 844 383 883 406 q 775 342 806 360 q 677 291 734 319 q 581 243 619 263 q 578 218 579 231 q 578 192 578 205 q 604 100 578 139 q 669 61 631 61 q 756 95 710 61 q 844 178 801 129 q 889 219 871 214 q 921 215 908 225 q 934 199 931 208 q 932 173 938 190 q 906 130 926 157 q 795 28 859 68 q 667 -12 731 -12 m 597 332 q 662 366 626 348 q 728 401 697 384 q 822 461 778 431 q 892 522 865 492 q 919 575 919 551 q 901 614 919 594 q 851 634 883 634 q 743 592 794 634 q 654 482 692 551 q 597 332 615 413 z "},"p":{"ha":794,"x_min":-37,"x_max":790,"o":"m 1 -595 q -27 -587 -17 -595 q -34 -559 -37 -578 l 180 656 q 189 677 182 669 q 207 691 197 686 q 227 695 217 695 q 257 686 245 695 q 265 659 268 677 l 240 521 q 366 665 306 622 q 504 708 426 708 q 601 673 563 708 q 656 583 640 638 q 661 464 672 527 l 603 138 l 690 211 q 729 238 713 229 q 760 247 745 247 q 783 240 776 247 q 790 218 790 234 q 778 186 790 203 q 742 150 767 170 l 579 17 q 557 3 567 6 q 536 0 548 0 q 506 15 510 0 q 503 47 501 29 l 577 467 q 579 541 583 503 q 555 607 574 580 q 497 634 535 634 q 369 577 436 634 q 218 399 301 521 l 50 -558 q 32 -586 47 -577 q 1 -595 17 -595 z "},"þ":{"ha":738,"x_min":-44,"x_max":735,"o":"m -6 -597 q -34 -589 -24 -597 q -41 -560 -44 -581 l 279 1253 q 297 1283 283 1273 q 327 1292 310 1292 q 355 1283 344 1292 q 362 1256 365 1274 l 183 235 q 283 405 228 321 q 399 556 339 488 q 518 665 459 624 q 626 706 576 706 q 708 664 681 706 q 734 549 735 622 q 715 367 733 451 q 662 215 697 283 q 576 98 627 147 q 460 24 526 50 q 317 -2 395 -2 l 141 -2 l 42 -560 q 25 -588 39 -579 q -6 -597 10 -597 m 156 76 l 317 76 q 484 124 407 76 q 607 275 560 173 q 654 538 654 377 q 652 574 654 554 q 641 609 651 594 q 608 624 631 624 q 553 596 589 624 q 473 521 517 568 q 380 416 428 474 q 289 296 333 358 q 210 177 244 234 q 156 76 175 120 z "},"q":{"ha":696,"x_min":41,"x_max":659,"o":"m 394 -595 q 363 -580 368 -595 q 361 -549 358 -565 l 515 329 q 446 211 484 271 q 365 100 408 151 q 278 18 323 49 q 189 -12 233 -12 q 102 26 138 -12 q 54 133 67 64 q 58 294 41 202 q 134 508 81 419 q 266 647 188 598 q 436 695 343 695 l 621 695 q 654 683 649 695 q 657 659 659 671 l 460 -458 l 548 -383 q 586 -357 569 -365 q 618 -349 603 -349 q 640 -356 633 -349 q 647 -377 647 -362 q 636 -408 647 -392 q 600 -444 625 -423 l 437 -580 q 416 -592 426 -589 q 394 -595 406 -595 m 206 61 q 275 93 238 61 q 352 176 313 124 q 430 291 392 228 q 499 418 467 354 q 552 537 531 483 l 568 624 l 443 624 q 250 535 331 624 q 142 297 169 447 q 145 128 125 194 q 206 61 166 61 z "},"r":{"ha":622,"x_min":60,"x_max":708,"o":"m 97 0 q 70 10 80 0 q 64 42 60 21 l 172 649 q 190 684 176 673 q 219 695 203 695 q 247 684 235 695 q 254 645 259 672 l 227 492 q 341 641 278 586 q 463 695 404 695 q 502 682 491 695 q 525 655 514 669 q 561 642 535 642 q 599 652 579 642 q 629 670 619 663 q 666 685 648 683 q 697 681 685 688 q 708 658 708 674 q 702 633 708 644 q 683 612 695 622 q 656 593 672 603 q 603 570 630 577 q 560 564 576 564 q 514 579 533 564 q 479 609 494 594 q 446 624 464 624 q 396 605 427 624 q 319 534 365 586 q 208 381 273 481 l 149 46 q 129 11 144 22 q 97 0 114 0 z "},"ŕ":{"ha":622,"x_min":60,"x_max":708,"o":"m 97 0 q 70 10 80 0 q 64 42 60 21 l 172 649 q 190 684 176 673 q 219 695 203 695 q 247 684 235 695 q 254 645 259 672 l 227 492 q 341 641 278 586 q 463 695 404 695 q 502 682 491 695 q 525 655 514 669 q 561 642 535 642 q 599 652 579 642 q 629 670 619 663 q 666 685 648 683 q 697 681 685 688 q 708 658 708 674 q 702 633 708 644 q 683 612 695 622 q 656 593 672 603 q 603 570 630 577 q 560 564 576 564 q 514 579 533 564 q 479 609 494 594 q 446 624 464 624 q 396 605 427 624 q 319 534 365 586 q 208 381 273 481 l 149 46 q 129 11 144 22 q 97 0 114 0 m 381 815 q 365 833 370 822 q 372 865 359 843 l 478 1051 q 517 1082 496 1081 q 551 1072 538 1083 q 566 1040 567 1058 q 553 1006 565 1022 l 425 828 q 402 810 413 810 q 381 815 391 810 z "},"ř":{"ha":622,"x_min":60,"x_max":708,"o":"m 97 0 q 70 10 80 0 q 64 42 60 21 l 172 649 q 190 684 176 673 q 219 695 203 695 q 247 684 235 695 q 254 645 259 672 l 227 492 q 341 641 278 586 q 463 695 404 695 q 502 682 491 695 q 525 655 514 669 q 561 642 535 642 q 599 652 579 642 q 629 670 619 663 q 666 685 648 683 q 697 681 685 688 q 708 658 708 674 q 702 633 708 644 q 683 612 695 622 q 656 593 672 603 q 603 570 630 577 q 560 564 576 564 q 514 579 533 564 q 479 609 494 594 q 446 624 464 624 q 396 605 427 624 q 319 534 365 586 q 208 381 273 481 l 149 46 q 129 11 144 22 q 97 0 114 0 m 392 838 q 376 845 386 838 q 360 863 366 851 l 281 1045 q 275 1090 268 1074 q 297 1110 283 1106 q 330 1109 315 1116 q 349 1083 344 1101 l 403 928 l 495 1082 q 530 1110 511 1109 q 561 1101 549 1111 q 575 1072 575 1088 q 564 1041 574 1056 l 438 860 q 414 840 426 842 q 392 838 403 838 z "},"ŗ":{"ha":622,"x_min":-18,"x_max":708,"o":"m 97 0 q 70 10 80 0 q 64 42 60 21 l 172 649 q 190 684 176 673 q 219 695 203 695 q 247 684 235 695 q 254 645 259 672 l 227 492 q 341 641 278 586 q 463 695 404 695 q 502 682 491 695 q 525 655 514 669 q 561 642 535 642 q 599 652 579 642 q 629 670 619 663 q 666 685 648 683 q 697 681 685 688 q 708 658 708 674 q 702 633 708 644 q 683 612 695 622 q 656 593 672 603 q 603 570 630 577 q 560 564 576 564 q 514 579 533 564 q 479 609 494 594 q 446 624 464 624 q 396 605 427 624 q 319 534 365 586 q 208 381 273 481 l 149 46 q 129 11 144 22 q 97 0 114 0 m 23 -404 q -8 -390 3 -402 q -12 -353 -18 -378 l 43 -116 q 62 -84 49 -92 q 97 -78 76 -76 q 130 -91 118 -81 q 136 -126 142 -102 l 78 -365 q 58 -398 72 -389 q 23 -404 43 -406 z "},"s":{"ha":608,"x_min":34,"x_max":569,"o":"m 282 -12 q 189 4 242 -12 q 86 58 135 21 q 47 91 60 77 q 47 124 34 105 q 75 139 54 139 q 117 124 96 139 q 186 82 140 106 q 282 57 231 57 q 378 94 340 57 q 415 178 415 131 q 400 232 415 210 q 364 270 384 254 q 307 310 342 288 q 229 358 272 332 q 149 428 187 384 q 112 528 112 472 q 171 650 112 605 q 338 695 231 695 q 423 686 378 695 q 523 646 469 676 q 560 614 551 631 q 558 579 569 597 q 529 562 549 565 q 484 572 509 559 q 427 603 467 582 q 338 624 388 624 q 233 597 273 624 q 193 528 193 569 q 224 468 193 495 q 288 417 256 440 q 368 368 330 390 q 438 313 406 347 q 481 257 464 288 q 497 173 497 226 q 469 80 497 122 q 393 13 442 38 q 282 -12 344 -12 z "},"ś":{"ha":608,"x_min":34,"x_max":569,"o":"m 282 -12 q 189 4 242 -12 q 86 58 135 21 q 47 91 60 77 q 47 124 34 105 q 75 139 54 139 q 117 124 96 139 q 186 82 140 106 q 282 57 231 57 q 378 94 340 57 q 415 178 415 131 q 400 232 415 210 q 364 270 384 254 q 307 310 342 288 q 229 358 272 332 q 149 428 187 384 q 112 528 112 472 q 171 650 112 605 q 338 695 231 695 q 423 686 378 695 q 523 646 469 676 q 560 614 551 631 q 558 579 569 597 q 529 562 549 565 q 484 572 509 559 q 427 603 467 582 q 338 624 388 624 q 233 597 273 624 q 193 528 193 569 q 224 468 193 495 q 288 417 256 440 q 368 368 330 390 q 438 313 406 347 q 481 257 464 288 q 497 173 497 226 q 469 80 497 122 q 393 13 442 38 q 282 -12 344 -12 m 375 815 q 358 833 364 822 q 365 865 353 843 l 472 1051 q 511 1082 490 1081 q 544 1072 532 1083 q 560 1040 560 1058 q 547 1006 559 1022 l 419 828 q 395 810 406 810 q 375 815 385 810 z "},"š":{"ha":608,"x_min":34,"x_max":569,"o":"m 282 -12 q 189 4 242 -12 q 86 58 135 21 q 47 91 60 77 q 47 124 34 105 q 75 139 54 139 q 117 124 96 139 q 186 82 140 106 q 282 57 231 57 q 378 94 340 57 q 415 178 415 131 q 400 232 415 210 q 364 270 384 254 q 307 310 342 288 q 229 358 272 332 q 149 428 187 384 q 112 528 112 472 q 171 650 112 605 q 338 695 231 695 q 423 686 378 695 q 523 646 469 676 q 560 614 551 631 q 558 579 569 597 q 529 562 549 565 q 484 572 509 559 q 427 603 467 582 q 338 624 388 624 q 233 597 273 624 q 193 528 193 569 q 224 468 193 495 q 288 417 256 440 q 368 368 330 390 q 438 313 406 347 q 481 257 464 288 q 497 173 497 226 q 469 80 497 122 q 393 13 442 38 q 282 -12 344 -12 m 386 838 q 370 845 380 838 q 354 863 360 851 l 275 1045 q 269 1090 262 1074 q 290 1110 276 1106 q 324 1109 309 1116 q 343 1083 338 1101 l 397 928 l 489 1082 q 524 1110 505 1109 q 555 1101 543 1111 q 568 1072 569 1088 q 558 1041 568 1056 l 431 860 q 408 840 419 842 q 386 838 397 838 z "},"ş":{"ha":608,"x_min":34,"x_max":569,"o":"m 282 -12 q 189 4 242 -12 q 86 58 135 21 q 47 91 60 77 q 47 124 34 105 q 75 139 54 139 q 117 124 96 139 q 186 82 140 106 q 282 57 231 57 q 378 94 340 57 q 415 178 415 131 q 400 232 415 210 q 364 270 384 254 q 307 310 342 288 q 229 358 272 332 q 149 428 187 384 q 112 528 112 472 q 171 650 112 605 q 338 695 231 695 q 423 686 378 695 q 523 646 469 676 q 560 614 551 631 q 558 579 569 597 q 529 562 549 565 q 484 572 509 559 q 427 603 467 582 q 338 624 388 624 q 233 597 273 624 q 193 528 193 569 q 224 468 193 495 q 288 417 256 440 q 368 368 330 390 q 438 313 406 347 q 481 257 464 288 q 497 173 497 226 q 469 80 497 122 q 393 13 442 38 q 282 -12 344 -12 m 297 -493 q 230 -487 260 -493 q 181 -469 199 -481 q 163 -440 163 -457 q 178 -408 163 -416 q 217 -405 193 -401 q 256 -414 237 -408 q 297 -419 275 -419 q 389 -381 361 -419 q 416 -292 416 -344 q 401 -218 416 -253 q 356 -145 386 -184 q 296 -76 333 -117 q 230 -3 258 -35 q 225 34 216 13 q 255 54 235 54 q 273 55 265 54 q 292 40 281 55 q 324 0 303 25 q 367 -50 344 -25 q 405 -94 390 -76 q 446 -148 425 -117 q 482 -215 467 -178 q 496 -293 496 -252 q 474 -389 496 -343 q 408 -464 452 -435 q 297 -493 365 -493 z "},"ș":{"ha":608,"x_min":34,"x_max":569,"o":"m 282 -12 q 189 4 242 -12 q 86 58 135 21 q 47 91 60 77 q 47 124 34 105 q 75 139 54 139 q 117 124 96 139 q 186 82 140 106 q 282 57 231 57 q 378 94 340 57 q 415 178 415 131 q 400 232 415 210 q 364 270 384 254 q 307 310 342 288 q 229 358 272 332 q 149 428 187 384 q 112 528 112 472 q 171 650 112 605 q 338 695 231 695 q 423 686 378 695 q 523 646 469 676 q 560 614 551 631 q 558 579 569 597 q 529 562 549 565 q 484 572 509 559 q 427 603 467 582 q 338 624 388 624 q 233 597 273 624 q 193 528 193 569 q 224 468 193 495 q 288 417 256 440 q 368 368 330 390 q 438 313 406 347 q 481 257 464 288 q 497 173 497 226 q 469 80 497 122 q 393 13 442 38 q 282 -12 344 -12 m 185 -406 q 155 -392 165 -403 q 150 -354 144 -380 l 206 -117 q 225 -86 211 -94 q 260 -80 238 -78 q 292 -93 281 -82 q 299 -127 304 -103 l 240 -367 q 220 -399 235 -390 q 185 -406 206 -408 z "},"ß":{"ha":888,"x_min":61,"x_max":851,"o":"m 103 -1 q 71 14 81 -1 q 64 44 61 28 l 210 870 q 273 1092 235 1009 q 365 1219 312 1176 q 486 1276 418 1262 q 637 1290 553 1290 q 712 1281 672 1290 q 784 1247 751 1271 q 834 1184 817 1224 q 841 1083 851 1144 q 801 979 831 1022 q 732 905 771 936 q 657 847 694 873 q 597 795 621 821 q 573 736 573 769 q 599 674 573 705 q 661 610 624 643 q 734 538 699 576 q 792 451 770 499 q 808 342 814 403 q 751 168 799 245 q 620 45 703 90 q 419 0 536 0 l 356 0 q 323 8 337 0 q 308 40 308 17 q 323 72 308 64 q 360 79 338 79 l 424 79 q 579 112 515 79 q 678 203 642 144 q 721 340 714 262 q 703 427 725 386 q 645 506 681 468 q 574 580 610 544 q 513 652 538 616 q 488 726 488 688 q 511 818 488 783 q 570 878 535 853 q 643 929 605 903 q 711 992 681 955 q 753 1089 742 1029 q 730 1185 767 1149 q 624 1220 694 1220 q 466 1189 532 1220 q 357 1078 400 1157 q 288 857 313 999 l 145 44 q 133 14 142 28 q 103 -1 123 -1 z "},"t":{"ha":401,"x_min":-14,"x_max":485,"o":"m 109 0 q 81 9 91 0 q 74 38 70 18 l 176 620 l 30 620 q -5 630 5 620 q -14 656 -14 640 q -5 682 -14 672 q 29 691 3 691 l 189 691 l 259 1092 q 274 1119 263 1110 q 299 1128 285 1128 q 323 1122 313 1128 q 338 1106 333 1117 q 340 1081 343 1096 l 272 691 l 442 691 q 476 682 467 691 q 485 656 485 672 q 476 630 485 640 q 442 620 467 620 l 260 620 l 157 38 q 140 9 153 17 q 109 0 127 0 z "},"ť":{"ha":431,"x_min":-14,"x_max":587,"o":"m 109 0 q 81 9 91 0 q 74 38 70 18 l 176 620 l 30 620 q -5 630 5 620 q -14 656 -14 640 q -5 682 -14 672 q 29 691 3 691 l 189 691 l 259 1092 q 274 1119 263 1110 q 299 1128 285 1128 q 323 1122 313 1128 q 338 1106 333 1117 q 340 1081 343 1096 l 272 691 l 442 691 q 476 682 467 691 q 485 656 485 672 q 476 630 485 640 q 442 620 467 620 l 260 620 l 157 38 q 140 9 153 17 q 109 0 127 0 m 473 863 q 446 879 457 866 q 438 911 435 892 l 501 1264 q 520 1295 504 1285 q 554 1301 537 1306 q 575 1287 563 1299 q 583 1253 587 1275 l 512 898 q 498 869 508 879 q 473 863 488 860 z "},"ţ":{"ha":401,"x_min":-14,"x_max":485,"o":"m 109 0 q 81 9 91 0 q 74 38 70 18 l 176 620 l 30 620 q -5 630 5 620 q -14 656 -14 640 q -5 682 -14 672 q 29 691 3 691 l 189 691 l 259 1092 q 274 1119 263 1110 q 299 1128 285 1128 q 323 1122 313 1128 q 338 1106 333 1117 q 340 1081 343 1096 l 272 691 l 442 691 q 476 682 467 691 q 485 656 485 672 q 476 630 485 640 q 442 620 467 620 l 260 620 l 157 38 q 140 9 153 17 q 109 0 127 0 m 157 -492 q 90 -485 120 -492 q 41 -467 59 -479 q 22 -439 22 -456 q 38 -407 22 -415 q 76 -403 53 -399 q 116 -412 97 -407 q 157 -417 135 -417 q 248 -380 221 -417 q 276 -290 276 -342 q 261 -217 276 -251 q 215 -144 246 -183 q 156 -74 193 -115 q 90 -1 118 -33 q 85 35 76 15 q 115 56 94 56 q 132 56 124 56 q 151 41 140 56 q 183 1 163 26 q 227 -49 204 -24 q 265 -92 249 -74 q 306 -146 285 -115 q 341 -214 327 -177 q 356 -292 356 -251 q 334 -387 356 -342 q 268 -462 312 -433 q 157 -492 224 -492 z "},"ț":{"ha":401,"x_min":-14,"x_max":485,"o":"m 109 0 q 81 9 91 0 q 74 38 70 18 l 176 620 l 30 620 q -5 630 5 620 q -14 656 -14 640 q -5 682 -14 672 q 29 691 3 691 l 189 691 l 259 1092 q 274 1119 263 1110 q 299 1128 285 1128 q 323 1122 313 1128 q 338 1106 333 1117 q 340 1081 343 1096 l 272 691 l 442 691 q 476 682 467 691 q 485 656 485 672 q 476 630 485 640 q 442 620 467 620 l 260 620 l 157 38 q 140 9 153 17 q 109 0 127 0 m 45 -404 q 15 -390 25 -402 q 10 -353 4 -378 l 65 -116 q 84 -84 71 -92 q 119 -78 98 -76 q 152 -91 140 -81 q 158 -126 164 -102 l 100 -365 q 80 -398 94 -389 q 45 -404 65 -406 z "},"u":{"ha":738,"x_min":63,"x_max":675,"o":"m 260 -12 q 110 55 158 -12 q 83 235 63 122 l 158 661 q 166 682 160 669 q 205 695 172 695 q 237 682 231 695 q 241 657 243 669 l 167 233 q 181 111 154 161 q 267 62 207 62 q 386 122 325 62 q 527 302 447 183 l 590 656 q 598 679 591 663 q 638 695 606 695 q 670 683 665 695 q 673 658 675 670 l 565 47 q 556 19 563 30 q 538 5 549 9 q 507 0 526 0 q 482 10 488 0 q 481 43 477 19 l 506 184 q 382 32 438 76 q 260 -12 326 -12 z "},"ú":{"ha":738,"x_min":63,"x_max":675,"o":"m 260 -12 q 110 55 158 -12 q 83 235 63 122 l 158 661 q 166 682 160 669 q 205 695 172 695 q 237 682 231 695 q 241 657 243 669 l 167 233 q 181 111 154 161 q 267 62 207 62 q 386 122 325 62 q 527 302 447 183 l 590 656 q 598 679 591 663 q 638 695 606 695 q 670 683 665 695 q 673 658 675 670 l 565 47 q 556 19 563 30 q 538 5 549 9 q 507 0 526 0 q 482 10 488 0 q 481 43 477 19 l 506 184 q 382 32 438 76 q 260 -12 326 -12 m 440 811 q 423 828 428 818 q 430 860 417 839 l 537 1047 q 575 1077 554 1076 q 609 1068 597 1078 q 624 1036 625 1053 q 612 1001 624 1018 l 483 824 q 460 806 471 806 q 440 811 449 806 z "},"ŭ":{"ha":738,"x_min":63,"x_max":675,"o":"m 260 -12 q 110 55 158 -12 q 83 235 63 122 l 158 661 q 166 682 160 669 q 205 695 172 695 q 237 682 231 695 q 241 657 243 669 l 167 233 q 181 111 154 161 q 267 62 207 62 q 386 122 325 62 q 527 302 447 183 l 590 656 q 598 679 591 663 q 638 695 606 695 q 670 683 665 695 q 673 658 675 670 l 565 47 q 556 19 563 30 q 538 5 549 9 q 507 0 526 0 q 482 10 488 0 q 481 43 477 19 l 506 184 q 382 32 438 76 q 260 -12 326 -12 m 451 833 q 373 852 402 833 q 329 902 343 872 q 312 966 315 933 q 313 1028 309 1000 q 327 1066 316 1056 q 353 1075 338 1075 q 384 1068 374 1075 q 392 1042 394 1062 q 395 942 384 971 q 426 908 406 913 q 461 902 445 902 q 499 911 478 902 q 536 950 519 921 q 560 1040 553 980 q 577 1069 563 1062 q 608 1076 591 1076 q 639 1060 632 1076 q 643 1024 646 1044 q 629 972 640 1004 q 596 908 618 940 q 538 855 574 876 q 451 833 503 833 z "},"û":{"ha":738,"x_min":63,"x_max":675,"o":"m 260 -12 q 110 55 158 -12 q 83 235 63 122 l 158 661 q 166 682 160 669 q 205 695 172 695 q 237 682 231 695 q 241 657 243 669 l 167 233 q 181 111 154 161 q 267 62 207 62 q 386 122 325 62 q 527 302 447 183 l 590 656 q 598 679 591 663 q 638 695 606 695 q 670 683 665 695 q 673 658 675 670 l 565 47 q 556 19 563 30 q 538 5 549 9 q 507 0 526 0 q 482 10 488 0 q 481 43 477 19 l 506 184 q 382 32 438 76 q 260 -12 326 -12 m 584 791 q 549 792 565 784 q 528 819 533 801 l 479 975 l 385 822 q 350 793 369 794 q 319 802 331 792 q 305 832 304 815 q 316 863 306 848 l 445 1044 q 468 1063 457 1061 q 490 1065 480 1065 q 507 1059 497 1065 q 522 1041 517 1053 l 601 861 q 607 813 615 831 q 584 791 600 796 z "},"ü":{"ha":738,"x_min":63,"x_max":675,"o":"m 260 -12 q 110 55 158 -12 q 83 235 63 122 l 158 661 q 166 682 160 669 q 205 695 172 695 q 237 682 231 695 q 241 657 243 669 l 167 233 q 181 111 154 161 q 267 62 207 62 q 386 122 325 62 q 527 302 447 183 l 590 656 q 598 679 591 663 q 638 695 606 695 q 670 683 665 695 q 673 658 675 670 l 565 47 q 556 19 563 30 q 538 5 549 9 q 507 0 526 0 q 482 10 488 0 q 481 43 477 19 l 506 184 q 382 32 438 76 q 260 -12 326 -12 m 585 856 q 548 872 563 856 q 533 913 533 889 q 547 952 533 935 q 585 969 561 969 q 624 954 608 969 q 640 913 640 939 q 624 873 640 890 q 585 856 608 856 m 322 856 q 286 873 300 856 q 272 913 272 890 q 285 952 272 935 q 322 969 299 969 q 360 953 344 969 q 376 913 376 938 q 361 873 376 890 q 322 856 346 856 z "},"ù":{"ha":738,"x_min":63,"x_max":675,"o":"m 260 -12 q 110 55 158 -12 q 83 235 63 122 l 158 661 q 166 682 160 669 q 205 695 172 695 q 237 682 231 695 q 241 657 243 669 l 167 233 q 181 111 154 161 q 267 62 207 62 q 386 122 325 62 q 527 302 447 183 l 590 656 q 598 679 591 663 q 638 695 606 695 q 670 683 665 695 q 673 658 675 670 l 565 47 q 556 19 563 30 q 538 5 549 9 q 507 0 526 0 q 482 10 488 0 q 481 43 477 19 l 506 184 q 382 32 438 76 q 260 -12 326 -12 m 484 810 q 461 805 473 804 q 438 826 449 805 l 341 1005 q 334 1055 325 1035 q 358 1078 342 1074 q 394 1076 379 1085 q 417 1048 410 1067 l 496 854 q 499 825 503 835 q 484 810 494 816 z "},"ű":{"ha":738,"x_min":63,"x_max":713,"o":"m 260 -12 q 110 55 158 -12 q 83 235 63 122 l 158 661 q 166 682 160 669 q 205 695 172 695 q 237 682 231 695 q 241 657 243 669 l 167 233 q 181 111 154 161 q 267 62 207 62 q 386 122 325 62 q 527 302 447 183 l 590 656 q 598 679 591 663 q 638 695 606 695 q 670 683 665 695 q 673 658 675 670 l 565 47 q 556 19 563 30 q 538 5 549 9 q 507 0 526 0 q 482 10 488 0 q 481 43 477 19 l 506 184 q 382 32 438 76 q 260 -12 326 -12 m 528 835 q 511 853 517 843 q 517 885 506 863 l 624 1071 q 663 1102 642 1101 q 697 1093 684 1103 q 712 1060 713 1078 q 699 1026 711 1042 l 571 849 q 548 831 559 831 q 528 835 538 830 m 341 835 q 324 852 329 843 q 330 885 319 862 l 417 1071 q 454 1103 431 1103 q 489 1092 476 1103 q 503 1061 505 1078 q 492 1026 502 1044 l 383 849 q 361 830 372 830 q 341 835 350 830 z "},"ū":{"ha":738,"x_min":63,"x_max":675,"o":"m 260 -12 q 110 55 158 -12 q 83 235 63 122 l 158 661 q 166 682 160 669 q 205 695 172 695 q 237 682 231 695 q 241 657 243 669 l 167 233 q 181 111 154 161 q 267 62 207 62 q 386 122 325 62 q 527 302 447 183 l 590 656 q 598 679 591 663 q 638 695 606 695 q 670 683 665 695 q 673 658 675 670 l 565 47 q 556 19 563 30 q 538 5 549 9 q 507 0 526 0 q 482 10 488 0 q 481 43 477 19 l 506 184 q 382 32 438 76 q 260 -12 326 -12 m 315 845 q 279 856 289 845 q 269 882 269 867 q 279 908 269 897 q 315 918 289 918 l 611 918 q 647 908 636 918 q 657 882 657 897 q 646 856 657 867 q 611 845 635 845 l 315 845 z "},"ų":{"ha":738,"x_min":63,"x_max":675,"o":"m 260 -12 q 110 55 158 -12 q 83 235 63 122 l 158 661 q 166 682 160 669 q 205 695 172 695 q 237 682 231 695 q 241 657 243 669 l 167 233 q 181 111 154 161 q 267 62 207 62 q 386 122 325 62 q 527 302 447 183 l 590 656 q 598 679 591 663 q 638 695 606 695 q 670 683 665 695 q 673 658 675 670 l 565 47 q 556 19 563 30 q 538 5 549 9 q 507 0 526 0 q 482 10 488 0 q 481 43 477 19 l 506 184 q 382 32 438 76 q 260 -12 326 -12 m 491 -426 q 378 -399 420 -426 q 318 -328 337 -372 q 300 -235 300 -284 q 327 -132 300 -178 q 384 -51 353 -86 q 434 4 406 -25 q 488 55 462 33 q 510 68 504 67 q 525 69 516 69 q 550 60 539 69 q 563 39 560 51 q 554 17 565 26 q 488 -47 516 -15 q 428 -117 460 -78 q 396 -168 413 -135 q 380 -234 380 -200 q 406 -318 380 -284 q 487 -351 432 -351 l 534 -351 q 573 -357 558 -351 q 588 -387 588 -362 q 572 -419 588 -412 q 534 -426 556 -426 l 491 -426 z "},"ů":{"ha":738,"x_min":63,"x_max":717,"o":"m 260 -12 q 110 55 158 -12 q 83 235 63 122 l 158 661 q 166 682 160 669 q 205 695 172 695 q 237 682 231 695 q 241 657 243 669 l 167 233 q 181 111 154 161 q 267 62 207 62 q 386 122 325 62 q 527 302 447 183 l 590 656 q 598 679 591 663 q 638 695 606 695 q 670 683 665 695 q 673 658 675 670 l 565 47 q 556 19 563 30 q 538 5 549 9 q 507 0 526 0 q 482 10 488 0 q 481 43 477 19 l 506 184 q 382 32 438 76 q 260 -12 326 -12 m 441 835 q 373 849 403 835 q 324 890 342 863 q 306 957 306 917 q 324 1054 306 1006 q 376 1140 342 1101 q 458 1202 410 1178 q 565 1225 506 1225 q 676 1194 636 1225 q 717 1104 717 1164 q 697 1016 717 1063 q 641 928 678 969 q 554 861 605 887 q 441 835 503 835 m 463 903 q 550 934 510 903 q 615 1010 590 966 q 640 1089 640 1053 q 618 1139 640 1119 q 565 1160 596 1160 q 464 1130 505 1160 q 403 1059 424 1101 q 382 983 382 1018 q 388 935 382 952 q 412 910 394 917 q 463 903 429 903 z "},"ũ":{"ha":738,"x_min":63,"x_max":712,"o":"m 260 -12 q 110 55 158 -12 q 83 235 63 122 l 158 661 q 166 682 160 669 q 205 695 172 695 q 237 682 231 695 q 241 657 243 669 l 167 233 q 181 111 154 161 q 267 62 207 62 q 386 122 325 62 q 527 302 447 183 l 590 656 q 598 679 591 663 q 638 695 606 695 q 670 683 665 695 q 673 658 675 670 l 565 47 q 556 19 563 30 q 538 5 549 9 q 507 0 526 0 q 482 10 488 0 q 481 43 477 19 l 506 184 q 382 32 438 76 q 260 -12 326 -12 m 541 825 q 502 837 523 825 q 459 865 481 849 q 416 892 437 881 q 376 904 394 904 q 331 892 349 904 q 290 863 313 880 q 271 857 281 856 q 253 866 261 858 q 240 884 244 873 q 235 906 235 894 q 242 927 235 917 q 275 947 249 936 q 326 966 299 959 q 385 974 353 974 q 428 961 406 974 q 473 934 451 949 q 516 906 495 918 q 553 894 536 894 q 607 908 588 894 q 653 940 626 922 q 681 943 667 949 q 703 925 694 938 q 712 903 712 913 q 701 883 712 891 q 666 863 691 876 q 611 838 640 850 q 541 825 582 825 z "},"v":{"ha":824,"x_min":67,"x_max":903,"o":"m 207 0 q 124 28 157 0 q 80 102 92 56 q 76 199 67 147 l 157 644 q 176 679 161 668 q 207 690 191 690 q 233 679 224 690 q 238 640 243 667 l 160 201 q 172 104 149 138 q 235 71 195 71 q 333 135 277 71 q 462 322 389 199 q 628 624 535 446 q 658 674 647 658 q 693 690 670 690 q 710 688 696 690 q 761 678 725 685 q 863 659 797 672 q 894 644 886 654 q 903 619 903 633 q 881 580 903 590 q 829 576 860 569 l 710 603 l 698 579 q 516 255 597 383 q 361 63 435 126 q 207 0 288 0 z "},"w":{"ha":1344,"x_min":68,"x_max":1392,"o":"m 193 -4 q 114 26 142 -4 q 76 103 85 56 q 76 199 68 149 l 156 649 q 176 684 160 673 q 208 695 192 695 q 235 684 226 695 q 239 645 244 672 l 160 201 q 172 104 149 138 q 222 70 194 70 q 301 110 258 70 q 390 213 344 149 q 480 352 435 277 q 562 501 524 428 q 628 630 600 574 q 657 678 644 662 q 694 695 671 695 q 721 684 710 695 q 726 645 731 672 l 647 201 q 653 129 640 158 q 690 85 667 100 q 729 70 713 70 q 809 110 767 70 q 893 216 851 151 q 976 356 936 281 q 1052 503 1017 431 q 1116 629 1088 576 q 1147 679 1134 663 q 1181 695 1159 695 q 1204 692 1185 695 q 1259 681 1223 688 q 1350 664 1295 674 q 1383 648 1374 659 q 1392 622 1392 638 q 1371 584 1392 594 q 1319 581 1351 574 l 1198 608 l 1186 584 q 1079 374 1132 478 q 970 184 1026 269 q 849 47 914 99 q 705 -4 784 -4 q 619 26 653 -4 q 569 103 584 56 q 563 199 555 150 l 606 444 q 515 283 562 363 q 417 139 468 203 q 311 35 367 74 q 193 -4 255 -4 z "},"ẃ":{"ha":1344,"x_min":68,"x_max":1392,"o":"m 193 -4 q 114 26 142 -4 q 76 103 85 56 q 76 199 68 149 l 156 649 q 176 684 160 673 q 208 695 192 695 q 235 684 226 695 q 239 645 244 672 l 160 201 q 172 104 149 138 q 222 70 194 70 q 301 110 258 70 q 390 213 344 149 q 480 352 435 277 q 562 501 524 428 q 628 630 600 574 q 657 678 644 662 q 694 695 671 695 q 721 684 710 695 q 726 645 731 672 l 647 201 q 653 129 640 158 q 690 85 667 100 q 729 70 713 70 q 809 110 767 70 q 893 216 851 151 q 976 356 936 281 q 1052 503 1017 431 q 1116 629 1088 576 q 1147 679 1134 663 q 1181 695 1159 695 q 1204 692 1185 695 q 1259 681 1223 688 q 1350 664 1295 674 q 1383 648 1374 659 q 1392 622 1392 638 q 1371 584 1392 594 q 1319 581 1351 574 l 1198 608 l 1186 584 q 1079 374 1132 478 q 970 184 1026 269 q 849 47 914 99 q 705 -4 784 -4 q 619 26 653 -4 q 569 103 584 56 q 563 199 555 150 l 606 444 q 515 283 562 363 q 417 139 468 203 q 311 35 367 74 q 193 -4 255 -4 m 743 815 q 726 833 732 822 q 733 865 721 843 l 840 1051 q 879 1082 858 1081 q 913 1072 900 1083 q 928 1040 928 1058 q 915 1006 927 1022 l 787 828 q 764 810 774 810 q 743 815 753 810 z "},"ŵ":{"ha":1344,"x_min":68,"x_max":1392,"o":"m 193 -4 q 114 26 142 -4 q 76 103 85 56 q 76 199 68 149 l 156 649 q 176 684 160 673 q 208 695 192 695 q 235 684 226 695 q 239 645 244 672 l 160 201 q 172 104 149 138 q 222 70 194 70 q 301 110 258 70 q 390 213 344 149 q 480 352 435 277 q 562 501 524 428 q 628 630 600 574 q 657 678 644 662 q 694 695 671 695 q 721 684 710 695 q 726 645 731 672 l 647 201 q 653 129 640 158 q 690 85 667 100 q 729 70 713 70 q 809 110 767 70 q 893 216 851 151 q 976 356 936 281 q 1052 503 1017 431 q 1116 629 1088 576 q 1147 679 1134 663 q 1181 695 1159 695 q 1204 692 1185 695 q 1259 681 1223 688 q 1350 664 1295 674 q 1383 648 1374 659 q 1392 622 1392 638 q 1371 584 1392 594 q 1319 581 1351 574 l 1198 608 l 1186 584 q 1079 374 1132 478 q 970 184 1026 269 q 849 47 914 99 q 705 -4 784 -4 q 619 26 653 -4 q 569 103 584 56 q 563 199 555 150 l 606 444 q 515 283 562 363 q 417 139 468 203 q 311 35 367 74 q 193 -4 255 -4 m 888 795 q 852 797 868 788 q 831 824 837 805 l 783 979 l 689 826 q 653 798 672 799 q 622 806 634 797 q 608 836 608 819 q 619 867 609 852 l 749 1048 q 772 1067 760 1065 q 794 1069 783 1069 q 810 1063 800 1069 q 826 1045 821 1057 l 904 865 q 911 817 918 835 q 888 795 903 800 z "},"ẅ":{"ha":1344,"x_min":68,"x_max":1392,"o":"m 193 -4 q 114 26 142 -4 q 76 103 85 56 q 76 199 68 149 l 156 649 q 176 684 160 673 q 208 695 192 695 q 235 684 226 695 q 239 645 244 672 l 160 201 q 172 104 149 138 q 222 70 194 70 q 301 110 258 70 q 390 213 344 149 q 480 352 435 277 q 562 501 524 428 q 628 630 600 574 q 657 678 644 662 q 694 695 671 695 q 721 684 710 695 q 726 645 731 672 l 647 201 q 653 129 640 158 q 690 85 667 100 q 729 70 713 70 q 809 110 767 70 q 893 216 851 151 q 976 356 936 281 q 1052 503 1017 431 q 1116 629 1088 576 q 1147 679 1134 663 q 1181 695 1159 695 q 1204 692 1185 695 q 1259 681 1223 688 q 1350 664 1295 674 q 1383 648 1374 659 q 1392 622 1392 638 q 1371 584 1392 594 q 1319 581 1351 574 l 1198 608 l 1186 584 q 1079 374 1132 478 q 970 184 1026 269 q 849 47 914 99 q 705 -4 784 -4 q 619 26 653 -4 q 569 103 584 56 q 563 199 555 150 l 606 444 q 515 283 562 363 q 417 139 468 203 q 311 35 367 74 q 193 -4 255 -4 m 888 860 q 851 876 866 860 q 837 917 837 893 q 851 957 837 940 q 888 974 865 974 q 927 958 911 974 q 943 917 943 943 q 927 877 943 894 q 888 860 912 860 m 625 860 q 589 877 603 860 q 575 917 575 894 q 589 956 575 940 q 625 973 603 973 q 664 958 648 973 q 680 917 680 942 q 665 877 680 894 q 625 860 649 860 z "},"ẁ":{"ha":1344,"x_min":68,"x_max":1392,"o":"m 193 -4 q 114 26 142 -4 q 76 103 85 56 q 76 199 68 149 l 156 649 q 176 684 160 673 q 208 695 192 695 q 235 684 226 695 q 239 645 244 672 l 160 201 q 172 104 149 138 q 222 70 194 70 q 301 110 258 70 q 390 213 344 149 q 480 352 435 277 q 562 501 524 428 q 628 630 600 574 q 657 678 644 662 q 694 695 671 695 q 721 684 710 695 q 726 645 731 672 l 647 201 q 653 129 640 158 q 690 85 667 100 q 729 70 713 70 q 809 110 767 70 q 893 216 851 151 q 976 356 936 281 q 1052 503 1017 431 q 1116 629 1088 576 q 1147 679 1134 663 q 1181 695 1159 695 q 1204 692 1185 695 q 1259 681 1223 688 q 1350 664 1295 674 q 1383 648 1374 659 q 1392 622 1392 638 q 1371 584 1392 594 q 1319 581 1351 574 l 1198 608 l 1186 584 q 1079 374 1132 478 q 970 184 1026 269 q 849 47 914 99 q 705 -4 784 -4 q 619 26 653 -4 q 569 103 584 56 q 563 199 555 150 l 606 444 q 515 283 562 363 q 417 139 468 203 q 311 35 367 74 q 193 -4 255 -4 m 788 815 q 765 809 776 808 q 741 831 753 809 l 644 1009 q 637 1059 628 1040 q 662 1083 646 1078 q 698 1080 683 1089 q 720 1052 713 1071 l 799 858 q 802 830 807 839 q 788 815 798 820 z "},"x":{"ha":838,"x_min":-50,"x_max":835,"o":"m 133 -4 q 52 3 90 -4 q -18 27 14 10 q -40 43 -33 35 q -49 61 -48 51 q -44 84 -50 71 q -23 107 -36 103 q 13 99 -10 110 q 74 77 42 84 q 133 70 105 70 q 211 102 172 70 q 286 191 251 134 q 342 325 320 249 q 367 488 364 401 q 361 549 368 517 q 337 603 355 581 q 286 625 319 625 q 202 585 242 625 q 126 477 163 545 q 107 464 120 466 q 75 473 93 463 q 56 492 60 481 q 56 515 51 503 q 294 699 148 699 q 384 664 345 699 q 428 533 422 628 q 523 655 468 612 q 646 699 578 699 q 733 692 693 699 q 804 672 772 685 q 826 658 819 667 q 834 640 833 650 q 829 616 835 629 q 807 595 822 598 q 769 603 793 593 q 646 625 711 625 q 536 569 587 625 q 453 418 485 513 q 419 207 422 324 q 424 145 417 177 q 448 92 431 113 q 497 70 466 70 q 599 134 543 70 q 707 301 654 198 q 726 314 713 313 q 758 305 740 315 q 777 286 772 298 q 777 264 783 274 q 638 67 715 139 q 489 -4 562 -4 q 397 34 437 -4 q 356 176 358 73 q 255 44 312 92 q 133 -4 197 -4 z "},"y":{"ha":735,"x_min":-26,"x_max":675,"o":"m 195 -595 q 78 -578 133 -595 q -12 -531 24 -560 q -25 -506 -25 -522 q -14 -476 -26 -491 q 9 -462 -6 -465 q 38 -468 24 -459 q 110 -501 67 -488 q 197 -514 153 -514 q 310 -482 265 -514 q 386 -384 356 -451 q 435 -210 417 -317 l 506 186 q 382 34 438 80 q 262 -12 326 -12 q 112 57 160 -12 q 84 240 65 127 l 158 661 q 166 682 160 669 q 206 695 173 695 q 238 682 232 695 q 241 657 243 669 l 167 237 q 181 113 154 165 q 269 61 208 61 q 387 124 326 61 q 526 304 448 187 l 587 649 q 597 675 590 665 q 615 690 603 685 q 645 695 627 695 q 670 685 665 695 q 672 653 675 676 l 518 -215 q 405 -507 482 -419 q 195 -595 328 -595 z "},"ý":{"ha":735,"x_min":-26,"x_max":675,"o":"m 195 -595 q 78 -578 133 -595 q -12 -531 24 -560 q -25 -506 -25 -522 q -14 -476 -26 -491 q 9 -462 -6 -465 q 38 -468 24 -459 q 110 -501 67 -488 q 197 -514 153 -514 q 310 -482 265 -514 q 386 -384 356 -451 q 435 -210 417 -317 l 506 186 q 382 34 438 80 q 262 -12 326 -12 q 112 57 160 -12 q 84 240 65 127 l 158 661 q 166 682 160 669 q 206 695 173 695 q 238 682 232 695 q 241 657 243 669 l 167 237 q 181 113 154 165 q 269 61 208 61 q 387 124 326 61 q 526 304 448 187 l 587 649 q 597 675 590 665 q 615 690 603 685 q 645 695 627 695 q 670 685 665 695 q 672 653 675 676 l 518 -215 q 405 -507 482 -419 q 195 -595 328 -595 m 438 815 q 422 833 427 822 q 428 865 416 843 l 535 1051 q 574 1082 553 1081 q 608 1072 595 1083 q 623 1040 624 1058 q 610 1006 622 1022 l 482 828 q 459 810 469 810 q 438 815 448 810 z "},"ŷ":{"ha":735,"x_min":-26,"x_max":675,"o":"m 195 -595 q 78 -578 133 -595 q -12 -531 24 -560 q -25 -506 -25 -522 q -14 -476 -26 -491 q 9 -462 -6 -465 q 38 -468 24 -459 q 110 -501 67 -488 q 197 -514 153 -514 q 310 -482 265 -514 q 386 -384 356 -451 q 435 -210 417 -317 l 506 186 q 382 34 438 80 q 262 -12 326 -12 q 112 57 160 -12 q 84 240 65 127 l 158 661 q 166 682 160 669 q 206 695 173 695 q 238 682 232 695 q 241 657 243 669 l 167 237 q 181 113 154 165 q 269 61 208 61 q 387 124 326 61 q 526 304 448 187 l 587 649 q 597 675 590 665 q 615 690 603 685 q 645 695 627 695 q 670 685 665 695 q 672 653 675 676 l 518 -215 q 405 -507 482 -419 q 195 -595 328 -595 m 583 795 q 548 797 563 788 q 526 824 532 805 l 478 979 l 384 826 q 348 798 367 799 q 317 806 329 797 q 303 836 303 819 q 315 867 304 852 l 444 1048 q 467 1067 456 1065 q 489 1069 478 1069 q 506 1063 495 1069 q 521 1045 516 1057 l 599 865 q 606 817 613 835 q 583 795 599 800 z "},"ÿ":{"ha":735,"x_min":-26,"x_max":675,"o":"m 195 -595 q 78 -578 133 -595 q -12 -531 24 -560 q -25 -506 -25 -522 q -14 -476 -26 -491 q 9 -462 -6 -465 q 38 -468 24 -459 q 110 -501 67 -488 q 197 -514 153 -514 q 310 -482 265 -514 q 386 -384 356 -451 q 435 -210 417 -317 l 506 186 q 382 34 438 80 q 262 -12 326 -12 q 112 57 160 -12 q 84 240 65 127 l 158 661 q 166 682 160 669 q 206 695 173 695 q 238 682 232 695 q 241 657 243 669 l 167 237 q 181 113 154 165 q 269 61 208 61 q 387 124 326 61 q 526 304 448 187 l 587 649 q 597 675 590 665 q 615 690 603 685 q 645 695 627 695 q 670 685 665 695 q 672 653 675 676 l 518 -215 q 405 -507 482 -419 q 195 -595 328 -595 m 583 860 q 547 876 561 860 q 532 917 532 893 q 546 957 532 940 q 583 974 560 974 q 622 958 606 974 q 638 917 638 943 q 623 877 638 894 q 583 860 607 860 m 320 860 q 284 877 299 860 q 270 917 270 894 q 284 956 270 940 q 320 973 298 973 q 359 958 343 973 q 375 917 375 942 q 360 877 375 894 q 320 860 344 860 z "}}}
